<svg xmlns="http://www.w3.org/2000/svg" style="enable-background:new 0 0 300 300;" viewBox="0 0 300 300">
  <g fill="none" fill-rule="evenodd">
    <path fill="#F7EE6D" fill-rule="nonzero" d="M214.98,198.66 C214.94687,233.843755 186.403801,262.342069 151.220038,262.319987 C116.036274,262.297906 87.5289985,233.763787 87.5400314,198.580019 C87.5510642,163.39625 116.07623,134.880016 151.26,134.88 C168.169996,134.879993 184.386526,141.601566 196.338071,153.564364 C208.289615,165.527162 214.995923,181.750012 214.98,198.66"/>
    <path fill="#409ECC" fill-rule="nonzero" d="M60,101.16 C60,101.16 60,101.16 59.58,101.16 C59.7142642,101.216675 59.8657358,101.216675 60,101.16 Z M59.58,98.22 C59.88,98.22 60.18,98.22 60.18,97.68 L59.58,97.68 L59.58,98.22 Z M59.58,91.62 L60,91.62 L60,90.96 L59.52,90.96 L59.58,91.62 Z M60,104.88 L60,104.22 L59.4,104.22 C59.4,104.34 59.52,104.88 60,104.88 Z M60,107.88 L60.42,107.58 L59.88,107.04 L59.88,107.34 L60,107.88 Z M58.62,89.7 C58.8402117,89.6738295 59.0138295,89.5002117 59.04,89.28 L58.2,89.28 L58.62,89.7 Z M58.62,106.14 L59.1,106.14 L59.1,105.72 C58.9840202,105.405198 58.6348023,105.24402 58.32,105.36 C58.0051977,105.47598 57.8440202,105.825198 57.96,106.14 L58.62,106.14 Z M59.4,103.02 L58.32,102 L57.96,102.36 L59.4,103.02 Z M59.4,99.66 L59.4,99.24 L59.04,99.54 L59.4,99.66 Z M59.82,109.74 C59.82,109.32 59.82,108.54 59.16,108.54 L58.74,109.32 L59.82,109.74 Z M58.62,116.22 C58.92,116.22 59.58,116.22 59.58,115.8 L59.58,115.44 C59.3646089,114.909807 58.7601934,114.654609 58.23,114.87 C57.6998067,115.085391 57.444609,115.689807 57.66,116.22 L58.62,116.22 Z M58.92,112.86 L59.4,112.44 L58.92,112.02 L58.5,112.44 L58.92,112.86 Z M57.42,146.64 C57.42,146.64 57.42,146.64 57.42,146.64 C57.42,146.64 56.34,146.64 56.34,146.64 L57.42,146.64 Z M57.78,114.36 C58.2,114.36 58.32,113.76 58.32,113.4 C58.32,113.04 57.3,113.4 57.3,113.94 L57.78,114.36 Z M58.5,111.36 C58.5,111 58.5,110.28 57.96,110.28 L57.3,110.7 C56.22,111.24 57,111.36 57.42,111.36 L58.5,111.36 Z M57.54,124.14 C57.7651006,123.996161 57.9009349,123.747131 57.9,123.48 L57.12,123.48 L57.54,124.14 Z M57.54,108.12 L56.88,108 L56.46,107.46 L56.04,107.88 L57.54,108.12 Z M56.4,138.42 C56.4,138.42 56.4,138.42 56.4,138.42 C56.4,138.42 55.08,138.42 55.08,138.42 L56.4,138.42 Z M42,112.68 C42.1254945,112.770128 42.2945055,112.770128 42.42,112.68 L42,112.68 Z M37.2,117.42 C37.2,117.42 37.56,117.42 37.62,117.42 L37.2,117.42 Z M37.2,150.12 L37.38,150 L37.08,149.64 L36.72,150 L37.2,150.12 Z M40.44,148.38 C49.98,148.38 54.18,124.38 54.18,117.18 L54.18,113.1 C53.130425,112.079035 51.672239,111.592973 50.22,111.78 C38.22,111.78 35.58,128.7 35.58,137.7 C35.46,140.94 35.64,148.38 40.32,148.38 L40.44,148.38 Z M35.34,122.4 L35.76,122.4 C35.76,122.4 35.76,122.4 35.76,121.98 C35.76,121.56 35.22,122.16 35.22,122.4 L35.34,122.4 Z M35.34,119.16 C35.4773667,119.198401 35.6226333,119.198401 35.76,119.16 L36,119.16 C36,119.16 35.46,119.16 35.22,119.16 L35.34,119.16 Z M35.76,148.5 L35.76,147.66 L35.16,147.96 L35.76,148.5 Z M33.84,124.5 L34.26,124.5 L34.26,123.84 L33.72,123.84 L33.84,124.5 Z M33.84,146.76 C33.9960224,146.810455 34.1639776,146.810455 34.32,146.76 C34.0707148,146.599907 33.7641399,146.55611 33.48,146.64 L33.84,146.76 Z M33.84,143.52 L34.32,143.52 L33.84,143.52 Z M33.84,140.28 L34.26,139.5 L33.54,139.86 L33.84,140.28 Z M33.84,137.04 L34.5,137.04 L34.5,136.38 L33.3,136.38 L33.84,137.04 Z M33.84,134.46 L34.62,133.68 L33.96,133.38 L33.3,134.1 L33.84,134.46 Z M33.84,130.74 L34.26,130.32 L33.6,129.66 L33.18,130.08 L33.84,130.74 Z M32.22,132.48 L32.64,132 L32.28,131.58 L32.28,132 L32.22,132.48 Z M32.22,129 C32.22,129 32.64,129 32.64,128.58 C32.64,128.16 31.98,128.58 31.98,128.88 L32.22,129 Z M32.22,139.2 L32.64,138.66 L32.28,138 L31.74,138.78 L32.22,139.2 Z M32.22,135.54 L32.64,135.06 L32.22,134.64 L31.74,135.18 L32.22,135.54 Z M30.48,143.4 L30.9,143.4 L30.9,142.98 L30.48,142.98 L30.48,143.4 Z M30.48,140.4 C30.9,140.4 31.02,139.86 31.02,139.56 L30,139.56 L30.48,140.4 Z M30.84,130.62 L31.32,130.2 L30,129.66 C30,129.96 30,130.62 30.6,130.62 L30.84,130.62 Z M30.84,137.34 L31.38,136.8 L30.9,136.26 L30,136.8 L30.84,137.34 Z M30.84,133.68 L31.26,133.32 L30.84,133.32 C30.6197883,133.346171 30.4461705,133.519788 30.42,133.74 L30.84,133.68 Z M52.56,138 C50.64,139.26 47.46,151.38 38.28,151.38 C30.66,151.38 27.66,142.2 27.66,135.9 C27.66,124.98 35.76,108.54 48.36,108.54 C50.28,108.54 52.14,108.96 54.06,108.96 C56.16,107.22 56.22,90 56.7,86.22 L57.54,85.14 C59.52,85.14 62.76,84.48 62.76,87.48 C62.76,92.58 61.56,97.44 61.56,102.54 C61.56,115.32 59.7,128.34 59.7,141.24 C59.7,143.52 58.62,153.24 62.88,153.24 C70.2,153.24 72.96,133.32 75.54,128.58 C75.7452786,128.172595 76.1638118,127.916825 76.62,127.92 L77.7,128.34 C76.92,130.08 69.06,156.96 62.34,156.96 C52.98,156.96 52.98,145.68 52.98,138.54 L52.56,138 Z"/>
    <path fill="#409ECC" fill-rule="nonzero" d="M100.02,115.02 L100.44,115.02 L100.44,114.6 L100.02,114.6 L100.02,115.02 Z M100.02,118.26 L100.56,117.84 L100.08,117.84 L99.66,118.14 L100.02,118.26 Z M100.02,121.98 L100.8,121.44 L100.14,120.66 L99.48,121.32 L100.02,121.98 Z M98.64,113.28 C98.64,113.28 98.64,113.28 99.06,113.28 L98.64,113.28 Z M98.64,120.24 L99.18,119.7 L98.64,119.16 L98.34,119.7 L98.64,120.24 Z M98.64,123.24 L99.24,122.7 L98.64,122.16 L97.98,122.7 L98.64,123.24 Z M97.2,124.98 L97.74,124.44 L97.08,123.9 L96.66,124.44 L97.2,124.98 Z M80.82,134.76 L81.36,133.8 C81.36,133.8 80.52,133.8 80.52,134.22 L80.82,134.76 Z M79.2,129.72 L79.2,129.3 L79.2,129.72 Z M79.2,126.24 C79.3254945,126.330128 79.4945055,126.330128 79.62,126.24 L79.2,126.24 Z M79.2,132.72 L79.2,132.3 C79.0745055,132.209872 78.9054945,132.209872 78.78,132.3 C78.78,132.3 79.02,132.78 79.2,132.78 L79.2,132.72 Z M79.2,116.7 L79.56,116.28 C79.5338295,116.059788 79.3602117,115.886171 79.14,115.86 L79.14,116.28 L79.2,116.7 Z M79.2,113.7 C79.4414299,113.66959 79.6219076,113.46333 79.62,113.22 C79.5938295,112.999788 79.4202117,112.826171 79.2,112.8 L78.78,113.22 L79.2,113.7 Z M79.2,123.18 L79.74,122.76 L79.2,122.34 L78.66,122.76 L79.2,123.18 Z M77.46,138 L78,138 L77.52,138 L77.46,138 Z M77.46,131.4 L77.46,130.92 L76.92,130.92 C77.0030835,131.189636 77.2005752,131.409071 77.46,131.52 L77.46,131.4 Z M77.46,127.92 L78,127.26 L77.16,127.26 L77.46,127.92 Z M77.46,124.68 L77.94,124.26 L77.46,123.78 L77.04,124.26 L77.46,124.68 Z M77.46,118.14 L77.94,117.84 L77.46,117.3 L77.04,117.72 L77.46,118.14 Z M77.16,144.36 L77.46,143.94 L77.16,143.52 L76.8,144 L77.16,144.36 Z M77.16,122.04 L77.82,121.2 L77.16,120.54 L76.68,121.32 L77.16,122.04 Z M76.68,115.32 C77.16,115.32 78,115.32 78,114.72 L77.46,114 C76.92,114 76.8,115.02 76.8,115.44 L76.68,115.32 Z M75.6,126.42 L76.26,125.94 L75.84,125.94 L75.36,126.24 L75.6,126.42 Z M75.3,132.9 L76.14,132.9 C76.0569009,132.568396 75.8671764,132.273269 75.6,132.06 L75.3,132.9 Z M75.3,129.84 L75.72,129.42 L75.3,129.12 L74.88,129.54 C74.88,129.54 75.66,129.96 75.84,129.96 L75.3,129.84 Z M75.3,123.36 L75.84,122.7 L75.3,122.28 L74.76,122.94 L75.3,123.36 Z M75.3,119.88 C75.3,119.88 75.3,119.88 75.66,119.88 C76.02,119.88 75.66,119.88 75.3,119.88 C74.94,119.88 75.3,119.88 75,119.88 C74.7,119.88 75.72,120 75.84,120 L75.3,119.88 Z M75.3,117.06 L75.96,116.46 L75.42,115.8 L74.88,116.46 L75.3,117.06 Z M75.84,113.52 L75.42,112.56 L74.88,113.1 L75.84,113.52 Z M75.18,146.1 L75.96,145.68 L75.3,145.02 L74.64,145.68 L75.18,146.1 Z M75.18,139.38 L75.84,138.84 L75.18,138.3 L74.52,138.96 L75.18,139.38 Z M75.18,149.58 L76.08,148.74 L75.18,148.26 L74.58,148.8 L75.18,149.58 Z M72.6,145.02 C72.6,140.46 73.56,113.1 74.34,110.58 L74.76,110.16 L78.66,110.16 C83.46,110.16 79.74,125.34 81.3,128.16 C81.3,128.16 81.3,128.16 81.72,128.16 C83.4965506,120.064203 88.709463,113.142857 96,109.2 L98.82,109.2 C101.94,110.94 103.98,112.56 103.98,116.46 L103.98,117.66 C101.52,121.74 100.74,126.96 94.8,126.96 C93.9,126.96 92.28,126.96 92.28,125.64 C92.28,122.1 97.5,119.64 97.5,115.56 C97.5,114.36 97.08,113.1 95.64,113.1 C85.68,113.1 80.46,143.1 79.5,151.2 L78.42,152.28 C77.34,152.28 73.02,151.86 73.02,150.54 L73.02,146.04 L72.6,145.02 Z M132,118.5 L132.42,118.5 L132.42,118.08 L132,118.08 L132,118.5 Z M130.8,123.72 L131.22,123.06 L130.38,123.06 L130.8,123.72 Z M120,151.08 C120,150.78 120,150.36 119.46,150.36 L119.46,150.66 C119.4,151.02 120,151.08 120,151.08 Z M119.1,112.02 L120,112.02 L120,111.36 L119.1,112.02 Z M117.84,113.94 L118.38,113.4 L117.9,112.86 L117.48,113.4 L117.84,113.94 Z M117.84,149.94 L118.56,149.28 L117.9,148.86 L117.3,149.4 L117.84,149.94 Z M115.98,147.72 C116.116265,147.765734 116.263735,147.765734 116.4,147.72 C116.320062,147.715552 116.239938,147.715552 116.16,147.72 L115.98,147.72 Z M115.98,115.26 L116.64,115.26 L116.28,114.6 L115.98,115.26 Z M115.98,118.26 L116.28,117.84 L116.28,117.42 C116.059788,117.446171 115.886171,117.619788 115.86,117.84 L115.98,118.26 Z M115.08,132 L115.5,132.42 C123.659794,131.704482 130.092559,125.170014 130.68,117 C130.796118,115.564996 130.314411,114.145749 129.348799,113.077895 C128.383186,112.010041 127.019414,111.388406 125.58,111.36 C117.24,111.36 115.08,124.62 115.08,130.86 L115.08,132 Z M114.42,142.56 L114.84,142.56 C114.84,142.56 114.84,142.14 114.54,142.14 L114.42,142.56 Z M114.42,119.82 C114.42,119.82 114.42,119.82 114.42,119.4 L114,119.4 C114,119.4 114.42,120 114.66,120 L114.42,119.82 Z M114.42,116.58 L115.08,116.58 L115.08,116.16 L114.42,116.16 L114.42,116.58 Z M114.42,146.28 L114.96,145.74 L114.42,145.38 L113.88,145.86 L114.42,146.28 Z M112.98,121.56 L113.46,121.56 L113.46,121.14 C113.209128,121.224691 113.05667,121.478788 113.1,121.74 L112.98,121.56 Z M112.98,137.94 L113.64,137.52 L113.16,137.16 L112.98,137.94 Z M112.98,134.46 C112.98,134.46 113.4,134.16 113.4,133.92 C113.4,133.92 112.92,134.4 112.92,134.64 L112.98,134.46 Z M112.98,144.54 L113.58,144.12 L113.1,144.12 L112.68,144.48 L112.98,144.54 Z M112.98,118.32 L114,118.2 L113.34,117.66 L112.92,118.08 L112.98,118.32 Z M111.48,129.78 L111.78,129.36 L111.78,128.94 C111.54558,128.960463 111.3514,129.130371 111.3,129.36 L111.48,129.78 Z M111.48,142.8 L111.9,142.8 L111.48,142.44 C111.259788,142.466171 111.086171,142.639788 111.06,142.86 L111.48,142.8 Z M111.48,139.56 L111.84,139.14 L111.84,138.66 L111.42,139.32 L111.48,139.56 Z M111.48,136.32 L111.96,135.78 L111.42,135.24 L111.06,135.78 L111.48,136.32 Z M111.48,126.78 L112.02,126.12 C112.022157,125.909585 111.86827,125.73005 111.66,125.7 L111.24,126.48 L111.48,126.78 Z M109.62,124.8 L110.04,125.28 L110.7,124.62 L110.28,124.2 L109.74,124.74 L109.62,124.8 Z M109.62,138.12 C109.98,138.12 110.58,138.12 110.58,137.58 L110.16,137.16 C109.44,137.34 109.32,138 109.32,138.3 L109.62,138.12 Z M109.62,131.4 L110.4,130.98 L110.04,130.68 L109.62,131.4 Z M110.28,134.76 L110.82,134.34 L110.16,133.5 L109.5,134.22 L110.28,134.76 Z M118.2,110.28 C120.12,109.32 122.4,109.2 124.2,108.12 C127.74,108.12 136.56,109.56 136.56,114.12 L136.56,120.42 C136.56,129.42 118.56,130.62 115.5,135.36 C115.5,141.36 117.72,148.8 124.92,148.8 C135.24,148.8 141.72,136.8 146.28,129.3 L146.94,128.88 L148.26,129.66 C142.74,138.9 135.9,150.24 124.26,152.22 L120.78,152.22 C111.78,146.22 107.34,144.3 107.34,132.06 C107.04,124.98 110.76,114 117.9,110.46 L118.2,110.28 Z"/>
    <path fill="#409ECC" fill-rule="nonzero" d="M172.92,122.82 L173.58,122.82 C173.42697,122.753212 173.25303,122.753212 173.1,122.82 L172.92,122.82 Z M171.42,144 L172.14,144 C172.156734,143.840707 172.109084,143.681335 172.007658,143.557371 C171.906233,143.433406 171.759453,143.35514 171.6,143.34 L171.42,144 Z M171.42,137.52 L171.84,137.52 C171.84,137.52 171.84,137.16 171.84,137.1 C171.84,137.04 171.42,137.34 171.42,137.58 L171.42,137.52 Z M170.1,139.44 L170.1,138.96 C170.1,138.96 170.1,138.96 170.1,139.32 C170.1,139.68 169.98,139.38 170.1,139.5 L170.1,139.44 Z M170.1,148.98 L170.1,148.32 L169.8,148.32 C169.750081,148.598072 169.867402,148.879643 170.1,149.04 L170.1,148.98 Z M159.9,112.62 L159.9,113.34 C160.26,113.34 160.68,113.34 160.68,112.8 C160.653829,112.579788 160.480212,112.406171 160.26,112.38 L159.9,112.62 Z M154.8,118.14 C155.16,118.14 155.82,118.14 155.82,117.6 L155.34,117.12 C154.92,117.18 154.8,117.84 154.8,118.2 L154.8,118.14 Z M153.42,120.06 C153.72,120.06 154.26,120.06 154.26,119.52 L153.72,119.1 L153.42,119.1 L153.42,120.06 Z M152.1,121.5 C152.1,121.5 152.52,121.5 152.52,121.14 L152.1,120.72 L152.1,121.14 L152.1,121.5 Z M148.86,144.24 L149.22,143.82 L148.86,143.34 L148.56,143.7 L148.86,144.24 Z M148.86,137.7 L149.4,137.4 L148.86,136.86 L148.32,137.28 L148.86,137.7 Z M148.86,131.22 L149.4,130.92 L148.98,130.38 L148.56,130.92 L148.86,131.22 Z M148.86,127.98 L149.64,127.44 L148.98,126.9 L148.32,127.56 L148.86,127.98 Z M148.2,140.76 L149.04,140.76 L148.62,140.1 L148.2,140.76 Z M148.62,134.76 L148.98,134.1 L148.2,134.1 L148.62,134.76 Z M147.36,146.28 L147.66,145.74 L147.12,145.2 L146.82,145.74 L147.36,146.28 Z M147,142.98 C147.66,142.98 147.9,142.56 147.9,142.02 C147.6,142.02 146.82,142.02 146.82,142.56 L147,142.98 Z M147,139.98 L147.66,139.32 L147,138.66 L146.58,139.32 L147,139.98 Z M147,136.5 L147.54,136.08 L146.88,135.42 L146.46,135.96 L147,136.5 Z M147,133.14 L147.42,133.14 C147.42,132.6 147.42,132.18 146.76,132.18 L146.22,132.6 C146.7,132.78 147.12,132.9 147.48,132.9 L147,133.14 Z M147,130.02 L147.54,129.6 L147,128.94 L146.46,129.6 L147,130.02 Z M145.02,141.36 L146.04,140.94 L145.5,140.4 L145.02,141.36 Z M145.62,138.66 L146.04,137.7 L145.38,137.16 L144.96,137.82 L145.62,138.66 Z M145.26,134.76 L145.8,134.22 L145.26,134.22 L144.96,134.64 L145.26,134.76 Z M166.2,138 C163.8,142.98 160.56,151.68 154.2,151.68 C146.52,151.68 143.28,142.02 143.28,135.66 C144.164901,120.833874 156.158062,109.100305 171,108.54 C173.58,108.54 179.64,108.9 179.64,112.56 L178.68,114 C176.4,114 174.36,112.68 172.08,112.68 C158.1,112.68 151.5,125.88 151.5,138.36 C151.5,141.36 151.14,148.44 155.7,148.44 C164.7,148.44 166.44,118.74 171,116.82 C174.24,116.82 176.16,117.12 176.16,121.02 C176.16,127.02 174,133.02 174,139.02 L174,147.72 C174,149.88 174.9,153.72 177.72,153.72 C184.5,153.72 189.18,132.18 190.68,127.5 L191.7,127.08 L192.66,127.62 C190.5,135.18 185.7,157.32 175.86,157.32 L174.66,157.32 C166.14,152.46 167.64,147.36 167.64,138.48 C167.510111,138.152645 167.327718,137.848658 167.1,137.58 L166.2,138 Z"/>
    <path fill="#409ECC" fill-rule="nonzero" d="M239.64,126 C239.64,126 239.64,126 239.64,125.7 C239.64,125.7 239.64,126 239.64,126 Z M239.64,155.58 L240,155.58 L240,154.92 L239.4,154.92 L239.64,155.58 Z M240,123.06 C240.3,123.06 240.3,122.52 240.3,122.28 C240.3,122.04 239.64,122.28 239.52,122.64 L240,123.06 Z M240,120 L240.36,120 L240,119.16 L239.52,119.58 L240,120 Z M236.88,149.22 C237.11196,149.22 237.3,149.03196 237.3,148.8 L236.88,148.8 L236.88,149.22 Z M236.88,129.54 L236.88,129.06 C236.88,129.06 236.82,129.36 236.94,129.36 L236.88,129.54 Z M236.88,123.54 L236.88,122.94 L236.16,122.58 C236.52,122.64 236.52,123.24 236.94,123.24 L236.88,123.54 Z M236.46,113.94 L237.18,113.58 L236.76,112.98 L236.46,113.94 Z M235.26,147.42 L235.68,147.42 C235.68,147.42 235.68,147.06 235.68,146.94 C235.68,146.82 235.32,146.88 235.32,147.12 L235.26,147.42 Z M235.98,131.88 C235.98,131.46 235.98,130.92 235.44,130.92 L235.44,131.34 C235.32,131.4 235.74,131.58 236.04,131.58 L235.98,131.88 Z M235.68,112.08 L235.68,111.66 L235.2,111.66 L235.68,112.08 Z M235.68,151.08 L236.16,150.78 C236.16,150.3 235.5,150.3 235.14,150.3 C234.78,150.3 235.08,150.78 235.5,150.78 L235.68,151.08 Z M217.92,136.08 L218.4,135.72 L217.86,135.18 L217.26,135.6 L217.92,136.08 Z M217.92,126.54 L217.92,126.06 L216.84,125.52 C217.02,126 217.2,126.54 217.68,126.54 L217.92,126.54 Z M217.92,123.48 L218.34,122.82 L217.92,122.16 L217.26,122.64 L217.92,123.48 Z M216.36,147.48 L216.36,147.06 L216.36,147.48 Z M216.36,115.2 L216.78,114.24 L215.82,114.66 L216.36,115.2 Z M216,144.3 L216,144 C216,144 216,144 215.46,144 C215.591044,144.170053 215.786384,144.278576 216,144.3 Z M216,141.06 L216.54,140.58 L216,140.16 L215.4,140.7 L216,141.06 Z M216,138 C216.36,138 216.66,138 216.66,137.46 L216,136.68 L215.4,137.34 L216,138 Z M216,134.76 L216.48,134.22 L216,133.44 L215.4,133.98 L216,134.76 Z M216.54,131.76 C216.54,131.46 216.54,130.68 216,130.68 L215.4,131.22 C215.4,131.4 216,131.52 216.54,131.52 L216.54,131.76 Z M216,124.98 L216.66,124.38 L216,123.9 L215.4,124.44 L216,124.98 Z M216,121.74 C216.54,121.74 216.72,121.02 216.72,120.54 C216.72,120.06 215.52,120.54 215.46,121.08 L216,121.74 Z M214.38,142.56 L214.8,142.56 C214.683532,142.518823 214.556468,142.518823 214.44,142.56 L214.38,142.56 Z M214.8,136.26 L215.22,135.84 L214.68,135.42 L214.14,135.72 L214.8,136.26 Z M214.8,133.02 L215.34,132.48 L214.5,132 L214.08,132.54 L214.8,133.02 Z M214.26,126.42 C214.26,126.42 215.1,126.42 215.1,125.88 L214.56,125.88 L214.26,126.42 Z M214.68,119.82 L215.1,119.28 L214.68,118.92 L214.26,119.28 L214.68,119.82 Z M214.8,123.24 L214.8,122.82 C214.8,122.4 214.2,122.28 213.84,122.28 C213.48,122.28 214.08,123.24 214.62,123.24 L214.8,123.24 Z M213.84,129.24 C213.84,129.54 214.5,129.54 214.68,129.54 C215.686267,129.547416 216.538052,128.798878 216.66,127.8 L216,127.14 L215.64,127.14 C215.28,127.5 213.66,128.88 213.66,129.24 L213.84,129.24 Z M212.94,144.3 C213.160212,144.273829 213.333829,144.100212 213.36,143.88 L212.94,143.88 L212.52,143.88 L212.94,144.3 Z M212.52,140.82 L212.94,140.82 L212.94,140.4 C212.803567,140.364133 212.658264,140.390097 212.542696,140.470995 C212.427128,140.551892 212.352998,140.679532 212.34,140.82 L212.52,140.82 Z M212.94,111.78 C213.3,111.78 213.48,111.48 213.48,111.12 L212.4,111.12 C212.35021,111.397228 212.49996,111.67177 212.76,111.78 L212.94,111.78 Z M212.94,138 L213.6,137.34 L212.94,136.68 L212.28,137.22 L212.94,138 Z M196.26,140.82 L196.92,140.82 L196.92,140.4 L196.26,140.4 L196.26,140.82 Z M196.26,134.34 L197.04,134.34 L196.5,133.86 L196.26,134.34 Z M197.22,138.12 L196.68,136.92 L196.08,137.34 C195.9,138 196.62,138 197.04,138 L197.22,138.12 Z M195,139.32 L195,138.84 L195,139.32 Z M195,132.9 L195.6,132.48 L195.18,132.48 L195,132.9 Z M195,120.06 L195.42,120.06 C195.23613,119.960376 195.019957,119.938759 194.82,120 L195,120.06 Z M195,136.5 L195.42,135.96 L195,135.66 L194.58,135.96 L195,136.5 Z M195,123.3 L195.42,122.76 L195,122.4 L194.58,122.76 L195,123.3 Z M195,143.22 L195.66,142.68 L195,141.9 L194.34,142.56 L195,143.22 Z M195,117 L195.42,116.46 L195,115.92 L194.52,116.34 L195,117 Z M195,113.52 L195.54,113.22 L195,112.68 L194.46,113.22 L195,113.52 Z M195,146.28 L195.54,145.8 L194.88,145.38 L194.46,145.8 L195,146.28 Z M193.68,144.72 L194.46,144.18 L193.8,143.64 L193.38,144.18 L193.68,144.72 Z M193.68,141.48 L194.1,140.94 L193.68,140.64 L193.26,141.06 L193.68,141.48 Z M194.04,138.12 L193.68,137.16 L193.26,137.7 L194.04,138.12 Z M194.04,118.32 L194.34,118.32 L193.92,117.66 L193.5,118.08 L194.04,118.32 Z M193.38,121.86 C193.74,121.86 194.34,121.86 194.34,121.44 L193.92,121.14 C192.84,120.9 192.72,121.32 192.72,121.62 L193.38,121.86 Z M193.92,147.96 L194.34,147.36 L193.92,146.7 L193.26,147.36 L193.92,147.96 Z M192.66,129.96 L192.66,129.54 C192.66,129.54 192.3,129.54 192.18,129.54 C192.06,129.54 192,129.54 192,129.54 L192.66,129.96 Z M192,149.58 L192.66,149.16 L192.18,148.8 L192,149.58 Z M192.42,146.46 L192.84,145.98 L192.42,145.98 L192,145.98 L192.42,146.46 Z M192.42,139.92 L192.96,139.5 L192,138.66 L191.58,139.08 L192.42,139.92 Z M192.42,143.4 L192.84,142.74 L192.3,142.32 L191.76,142.74 L192.42,143.4 Z M235.32,119.4 C235.32,117.24 235.32,113.4 232.5,113.4 C228.36,113.4 225.36,120.18 224.46,123.54 L217.56,151.5 L216.48,152.58 C215.16,152.58 210.84,152.94 210.84,151.08 C211.238311,140.279532 212.1795,129.505927 213.66,118.8 C213.66,116.64 213.66,113.58 210.84,113.58 C205.98,113.58 203.58,121.74 202.62,125.58 L196.62,150.9 C196.2,152.52 195.24,152.64 193.8,152.64 C192.36,152.64 189.9,152.64 189.9,151.56 L189.9,146.82 C190.221073,146.058408 190.403929,145.245717 190.44,144.42 C190.44,133.5 191.34,122.4 191.88,111.48 L192.3,111.06 L193.92,111.06 C194.76,111.06 198.48,111.06 198.48,112.32 L198.48,130.32 L198.9,129.9 C201,123 203.46,109.56 212.88,109.56 C218.88,109.56 220.14,115.2 220.14,120.06 C220.14,123.42 219.48,126.66 219.48,130.02 C220.38,130.02 224.7,112.02 231.48,110.22 C232.068048,110.079453 232.633533,109.857298 233.16,109.56 C237.06,109.56 241.86,111.06 241.86,116.04 C241.86,119.82 241.08,123.54 241.08,127.2 C241.08,133.2 240,138.78 240,144.78 C240,146.94 239.28,154.8 242.82,154.8 C246.36,154.8 248.82,150.48 249.42,147.9 L256.56,127.5 L257.34,127.08 L258.54,127.86 C256.26,133.86 251.7,158.28 240.54,158.28 C234.06,158.28 233.28,149.94 233.28,145.2 C232.68,136.26 234,127.5 234.66,118.92 L235.32,119.4 Z"/>
    <path fill="#409ECC" fill-rule="nonzero" d="M274.02,115.92 L274.86,115.38 L274.2,114.84 L273.54,115.5 L274.02,115.92 Z M274.02,112.68 L274.56,112.14 L274.02,111.6 L273.42,112.14 L274.02,112.68 Z M272.46,146.7 L272.82,146.28 C272.793137,146.026863 272.593137,145.826863 272.34,145.8 L272.34,146.28 L272.46,146.7 Z M271.8,143.34 C272.16,143.34 272.82,143.34 272.82,142.92 L272.34,142.5 L271.8,143.34 Z M272.16,150 L272.88,149.16 L272.46,148.74 L271.74,149.28 L272.16,150 Z M270.54,148.26 L271.08,147.06 L269.88,147.54 L270.54,148.26 Z M270.54,138.18 L270.54,138 L270,138 L270.54,138.18 Z M270.54,141.54 L271.08,141 C270.968476,140.617581 270.737124,140.281069 270.42,140.04 L270,140.82 L270.54,141.54 Z M268.8,142.86 L270,142.86 C270,142.86 270,142.02 269.46,142.02 C268.92,142.02 268.68,142.68 268.68,142.98 L268.8,142.86 Z M268.8,140.04 L269.34,139.26 L268.8,138.72 L268.26,139.38 L268.8,140.04 Z M268.8,136.8 L269.64,136.02 L268.86,135.48 L268.14,136.14 L268.8,136.8 Z M267.24,159.78 L267.72,159.78 C267.72,159.78 267.72,159.78 267.36,159.78 L267.24,159.78 Z M267.24,135.06 L267.72,134.64 L267.24,134.22 L266.82,134.64 L267.24,135.06 Z M266.1,133.44 C266.1,133.44 266.1,132.78 265.74,132.66 L265.32,133.14 C265.44,133.56 265.86,133.56 266.1,133.56 L266.1,133.44 Z M264.24,135.3 L265.08,134.76 L264,133.86 L263.22,134.76 L264.24,135.3 Z M262.38,133.32 L262.74,132.9 C262.70959,132.65857 262.50333,132.478092 262.26,132.479985 L262.26,132.9 L262.38,133.32 Z M260.76,163.32 L261.18,163.32 L261.18,162.9 C261.006975,162.898451 260.846509,162.990146 260.76,163.14 L260.76,163.32 Z M259.02,126.9 L259.44,126.9 L259.44,126.48 C259.266975,126.478451 259.106509,126.570146 259.02,126.72 L259.02,126.9 Z M259.02,130.38 C259.02,130.38 259.32,130.08 259.32,129.84 C259.32,129.6 258.78,129.84 258.72,130.14 L259.02,130.38 Z M257.4,128.64 L257.82,128.22 L257.52,127.8 L256.98,128.34 L257.4,128.64 Z M257.4,122.34 C257.82,122.34 257.94,121.74 257.94,121.38 C257.94,121.02 256.98,121.38 256.98,121.92 L257.4,122.34 Z M257.4,119.1 L257.7,118.56 L257.28,118.02 L256.86,118.44 L257.4,119.1 Z M256.32,123.78 L255.84,123 L255.3,123.42 L256.32,123.78 Z M268.32,149.1 C268.32,140.76 260.28,137.1 255.96,131.1 C254.64,129.42 254.52,127.14 253.32,125.1 L253.32,122.04 C255.3,120.96 255.42,108.18 268.62,108.18 C271.68,108.18 276.72,110.04 276.72,113.7 C276.72,117.36 272.22,119.7 268.86,119.7 C268.86,117.54 271.14,116.16 271.14,114 C271.14,111.84 269.58,110.94 267.66,110.94 C265.449317,111.122299 263.404219,112.18399 261.983061,113.887124 C260.561903,115.590257 259.883537,117.7924 260.1,120 C260.1,131.52 274.86,135.42 274.86,147.12 C274.86,158.82 269.4,159.78 261.18,165.12 L259.8,165.12 C258.48,165.12 255.36,164.58 255.12,162.96 C260.88,160.98 268.8,155.64 268.8,148.92 L268.32,149.1 Z M105.12,69.78 L105.12,72 C105.12,75.24 105.12,80.04 105.12,86.46 L105.12,87.84 L109.38,87.84 C110.16,88.38 110.58,88.86 110.58,89.4 C110.567355,89.8337885 110.420629,90.2530061 110.16,90.6 C109.95503,90.8654049 109.652718,91.0381546 109.32,91.08 C108.981783,91.1292399 108.638217,91.1292399 108.3,91.08 C107.962827,91.1420005 107.617173,91.1420005 107.28,91.08 L105.48,91.08 C105.127803,91.5107334 104.596208,91.7543814 104.04,91.74 C103.510006,91.7427631 102.997494,91.5505712 102.6,91.2 C102.258333,90.8944125 102.06212,90.4583837 102.06,90 L102.42,87.54 C102.42,83.34 102.42,77.1 101.82,68.7 C101.22,60.3 101.28,54 101.28,49.8 C101.186788,49.5448004 101.213847,49.2611505 101.353631,49.0281784 C101.493414,48.7952063 101.730959,48.6378477 102,48.6 C102.224667,48.2773258 102.571506,48.0605513 102.96,48 C103.370519,48.0054579 103.760859,48.1789424 104.04,48.48 C104.378798,48.7621677 104.576294,49.1791042 104.58,49.62 L105.12,69.54 L105.12,69.78 Z M119.46,70.2 L118.14,70.2 C117.713141,70.1354575 117.282955,70.293947 117,70.62 L117,87.66 L120.06,87.66 C122.16,87.66 123.24,88.14 123.24,89.1 C122.938096,89.6296253 122.475916,90.0497885 121.92,90.3 C121.410071,90.5374536 120.861066,90.6797884 120.3,90.72 L116.76,90.72 C115.38,90.72 114.54,90.72 114.24,89.94 C114.144953,89.6066426 114.144953,89.2533574 114.24,88.92 L114.24,57.06 C114.134617,56.0237057 113.933764,54.9993567 113.64,54 C113.43409,53.0729739 113.313586,52.129025 113.28,51.18 C113.631922,50.4837095 114.075902,49.8379195 114.6,49.26 L118.74,48.72 C119.340877,48.7311196 119.925178,48.9189305 120.42,49.26 C120.925475,49.5075578 121.249825,50.0172515 121.26,50.58 C121.26,51.66 120.42,52.2 118.74,52.2 L116.58,52.2 L117,61.32 C117,62.04 117,63.12 117,64.56 C117,66 117,66.96 117,67.62 L117.78,67.62 C118.368547,67.4604653 118.971525,67.3599689 119.58,67.32 C119.990519,67.3254579 120.380859,67.4989424 120.66,67.8 C120.996303,68.0579704 121.195405,68.4561754 121.2,68.88 C121.205297,69.3169159 121.056605,69.7417498 120.78,70.08 C120.515737,70.4012281 120.115521,70.5791023 119.7,70.56 L119.46,70.2 Z M132.84,58.56 L132.84,65.7 L133.32,78.42 L133.8,88.38 C133.8,90.18 133.26,91.08 132.18,91.08 C131.612994,91.084306 131.096243,90.7554648 130.86,90.24 C130.57226,89.6414853 130.428432,88.9839882 130.44,88.32 L130.86,79.44 C130.86,77.58 130.86,74.7 130.44,70.86 C130.02,67.02 130.08,64.14 130.08,62.22 L130.08,57.42 C130.204354,55.6853124 130.042184,53.9419864 129.6,52.26 L126.6,52.26 C126.147626,52.2481431 125.709013,52.1019387 125.34,51.84 C125.003697,51.5820296 124.804595,51.1838246 124.8,50.76 C124.8,50.28 125.22,49.92 126.12,49.62 C127.176552,49.2845431 128.260812,49.0435963 129.36,48.9 C131.212447,48.682743 133.074994,48.5625787 134.94,48.54 C135.395829,48.5307582 135.840882,48.6791091 136.2,48.96 C136.538798,49.2421677 136.736294,49.6591042 136.74,50.1 C136.750052,50.5137653 136.57386,50.9101955 136.26,51.18 C135.907662,51.4228971 135.487859,51.5488381 135.06,51.54 L132,51.54 C132.247876,53.7913934 132.368069,56.0550166 132.36,58.32 L132.84,58.56 Z M149.22,90 L149.52,79.32 C149.461722,77.7086407 149.281203,76.1040303 148.98,74.52 C148.661151,72.837581 148.480548,71.1318861 148.44,69.42 C148.386705,67.8409986 148.165458,66.2721579 147.78,64.74 C147.412197,63.0495921 146.931111,61.3858371 146.34,59.76 C144.994147,56.6198915 144.202442,53.2703692 144,49.86 C144.014564,49.5497095 144.19918,49.2727864 144.48,49.14 C144.795155,49.0612497 145.124845,49.0612497 145.44,49.14 C145.8,49.14 146.16,49.56 146.52,50.46 C147.005685,51.4939614 147.368171,52.58142 147.6,53.7 C147.96,54.96 148.26,56.28 148.5,57.6 C148.74,58.92 149.04,60.18 149.28,61.44 C149.417356,62.2490014 149.59761,63.0501312 149.82,63.84 C149.82,63.48 149.82,62.76 149.82,61.5 L150.18,57.78 C150.18,56.46 150.18,55.2 150.72,53.88 C151.2,50.94 151.92,49.44 152.88,49.44 C153.84,49.44 154.38,49.44 154.38,50.04 C154.248606,53.1562544 153.806413,56.2516054 153.06,59.28 C152.313113,62.3489707 151.87097,65.4841692 151.74,68.64 L151.74,70.56 L151.74,71.4 L152.04,86.04 L152.04,88.8 L152.04,90 C152.054425,90.4618195 151.855211,90.9045166 151.5,91.2 C151.1495,91.453994 150.732392,91.5999817 150.3,91.62 C149.897069,91.6374176 149.5053,91.485063 149.22,91.2 C148.932514,90.9671131 148.775925,90.609195 148.8,90.24 L149.22,90 Z M166.14,54.24 C165.860023,53.4196793 165.38669,52.6788095 164.76,52.08 C164.349644,51.6090667 163.764047,51.3271129 163.14,51.3 C162.626272,51.2880767 162.129203,51.4825818 161.76,51.84 C161.408277,52.3396797 161.125718,52.8846143 160.92,53.46 C160.92,54.18 160.44,54.9 160.26,55.68 C160.043395,56.5867007 159.902907,57.5099104 159.84,58.44 C159.84,59.46 159.84,60.42 159.54,61.26 C159.24,62.1 159.54,63 159.54,64.02 C159.54,65.04 159.54,67.02 159.54,67.92 C159.552556,70.5886893 159.732911,73.2539483 160.08,75.9 C160.359418,78.2590206 160.759946,80.6021138 161.28,82.92 C161.598786,84.5288656 162.144221,86.0843659 162.9,87.54 C163.56,88.8 164.34,89.46 165.18,89.46 C166.02,89.46 166.56,88.74 167.04,87.36 C167.638532,85.6986853 168.002046,83.9619008 168.12,82.2 C168.48,78.54 168.66,76.2 168.72,74.46 L168.72,71.22 C168.72,70.5 168.72,69.54 168.72,68.22 C168.72,66.9 168.72,65.7 168.72,64.56 C168.72,63.42 168.72,62.16 168.3,60.72 C168.194269,59.4821337 167.973312,58.256827 167.64,57.06 C167.22,55.74 166.92,54.72 166.56,54 L166.14,54.24 Z M171.06,74.52 L170.52,81.48 C170.423028,82.597901 170.423028,83.722099 170.52,84.84 C170.503847,86.0100465 170.280389,87.167964 169.86,88.26 C169.450371,89.3582738 168.816981,90.3594391 168,91.2 C167.268423,91.9327898 166.275464,92.344569 165.24,92.344569 C164.204536,92.344569 163.211577,91.9327898 162.48,91.2 C161.594414,90.4851008 160.877386,89.5836946 160.38,88.56 C159.769165,87.3329517 159.286608,86.0461337 158.94,84.72 C158.58,83.28 158.22,81.84 157.98,80.4 C157.74,78.96 157.62,77.52 157.44,75.9 C157.26,74.28 157.14,71.7 157.14,70.38 L157.14,66.96 C157.14,66 157.14,65.16 157.14,64.38 L157.14,61.68 C157.14,60.6 157.14,59.64 157.14,58.8 C157.14,57.96 157.14,57.06 157.44,56.04 C157.50701,55.1696967 157.64751,54.3066205 157.86,53.46 C158.045293,52.7033615 158.285941,51.9613632 158.58,51.24 C158.88673,50.6096043 159.248112,50.0073005 159.66,49.44 C160.464093,48.4912917 161.656979,47.9611204 162.9,48 C163.937544,47.9854319 164.964368,48.2113331 165.9,48.66 C166.780267,49.1257548 167.508931,49.8335995 168,50.7 C168.54,51.6 169.02,52.56 169.5,53.4 C169.992636,54.5889221 170.315794,55.8411604 170.46,57.12 C170.46,58.68 170.88,59.94 171.06,60.9 C171.24,61.86 171.06,63.3 171.06,65.16 C171.06,67.02 171.06,69.54 171.06,71.16 L171.06,74.52 Z M174.3,61.08 L174.3,51.96 C174.011703,51.6523674 173.860199,51.2411423 173.88,50.82 C173.858985,50.3694157 174.034035,49.9317923 174.36,49.62 C174.61797,49.2836971 175.016175,49.0845946 175.44,49.08 C176.82,49.08 177.48,50.4 177.48,53.04 L177.96,72.3 C178.297347,73.2444725 178.479702,74.237294 178.5,75.24 C178.567747,76.3789935 178.567747,77.5210065 178.5,78.66 C178.515182,79.6932738 178.656221,80.7208474 178.92,81.72 C179.169113,82.950512 179.530629,84.1555656 180,85.32 C180.386788,86.4824035 181.021414,87.5469373 181.86,88.44 C182.368954,89.1860411 183.181468,89.6691578 184.08,89.76 C184.641416,89.7979841 185.197047,89.6270205 185.64,89.28 C186.017775,88.8822208 186.268442,88.3808875 186.36,87.84 C186.554679,86.8315107 186.655112,85.8070964 186.66,84.78 L186.66,73.98 C186.66,72.86 186.54,71.12 186.3,68.76 C186.06,66.4 185.94,64.66 185.94,63.54 L185.94,63.18 L185.94,59.94 L186,50.46 C185.996825,50.0038118 186.252595,49.5852786 186.66,49.38 C187.076924,49.1252021 187.55182,48.9806686 188.04,48.96 L189.42,50.28 L189.42,51.18 L189,54.54 C189,57.66 189,62.28 189.48,68.46 C189.96,74.64 190.02,78.84 190.02,81.06 C190.02,83.28 190.02,84.72 190.02,85.44 C189.957801,86.2319794 189.817111,87.0158252 189.6,87.78 C189.396205,88.4985005 189.093293,89.1851014 188.7,89.82 C187.771342,91.0928876 186.251354,91.7961655 184.68,91.68 C182.455386,91.7893857 180.353236,90.6574589 179.22,88.74 C177.697836,86.4818879 176.675062,83.9249527 176.22,81.24 C175.569039,78.1978184 175.167704,75.1075397 175.02,72 C175.02,68.1 174.72,64.26 174.72,60.42 L174.3,61.08 Z M197.34,51 L197.34,62.28 C197.34,63.42 197.34,64.26 197.34,64.86 C198.018428,64.1924529 198.640544,63.4699956 199.2,62.7 L200.04,57.9 C200.073338,57.6209923 200.073338,57.3390077 200.04,57.06 C199.954555,56.0155574 199.732668,54.9868064 199.38,54 C198.84,52.32 198,51.36 197.34,51.18 L197.34,51 Z M194.28,88.92 L194.28,56.46 L194.28,49.86 C194.159512,49.5513417 194.159512,49.2086583 194.28,48.9 C194.28,48.9 194.94,48.9 195.72,48.9 C196.509886,48.914769 197.287399,49.0989168 198,49.44 C198.79403,49.7628051 199.495138,50.2783263 200.04,50.94 C200.575178,51.5973316 201.019186,52.3238902 201.36,53.1 C202.091148,54.6572455 202.460371,56.3597743 202.44,58.08 C202.360627,60.1426245 201.913612,62.1745081 201.12,64.08 C200.870439,64.6074797 200.650106,65.148298 200.46,65.7 L199.86,67.08 C200.198939,70.8237457 201.067604,74.5004227 202.44,78 L204.42,84 C205.34,86.56 205.88,88.18 206.04,88.86 C206.04,90.06 206.04,90.84 205.62,91.02 C205.352224,91.1986801 205.041429,91.3022784 204.72,91.32 C204,91.32 203.34,90.84 202.68,89.82 C202.109008,84.6484035 200.96189,79.5568094 199.26,74.64 C198.3,71.52 197.58,69.24 197.22,67.74 L197.22,89.52 C197.337285,89.9521842 197.337285,90.4078158 197.22,90.84 C196.977519,91.1886875 196.561307,91.3736708 196.14,91.32 C195.705556,91.3487969 195.283001,91.170879 195,90.84 C194.714937,90.5547001 194.562582,90.1629312 194.58,89.76 L194.28,88.92 Z M98.34,248.22 L98.34,247.56 L97.68,247.92 L98.34,248.22 Z M98.34,244.8 L98.34,244.38 C98.2145055,244.289872 98.0454945,244.289872 97.92,244.38 C97.92,244.38 97.86,244.8 98.04,244.8 L98.34,244.8 Z M98.34,238.8 L98.94,238.14 L98.28,237.66 L97.8,238.02 L98.34,238.8 Z M96,289.8 L96.42,289.8 L96,289.8 Z M96.42,246.6 L96.42,246 L96,246 C95.9831713,246.143388 96.024461,246.287544 96.1146497,246.40028 C96.2048384,246.513016 96.336415,246.584943 96.48,246.6 L96.42,246.6 Z M96.42,293.34 L96.84,292.56 L96.06,293.04 L96.42,293.34 Z M96.42,256.56 C96.42,256.56 96.42,256.2 96.42,256.02 C96.2069139,255.941998 95.9730861,255.941998 95.76,256.02 L96.42,256.56 Z M95.1,284.7 L95.1,284.28 L94.68,284.28 C94.6336848,284.42172 94.6558557,284.576917 94.74,284.7 L95.1,284.7 Z M94.68,278.04 L95.1,278.04 L95.1,277.62 C94.9495862,277.49803 94.740613,277.478391 94.5701085,277.570202 C94.399604,277.662012 94.3009688,277.847286 94.32,278.04 L94.68,278.04 Z M94.68,274.98 L95.1,274.2 L94.38,274.62 L94.68,274.98 Z M95.04,288.6 L95.04,288 L94.2,288 C94.2,288.36 94.38,288.6 94.98,288.6 L95.04,288.6 Z M94.62,282 L94.98,281.64 L94.2,281.22 L94.62,282 Z M92.94,283.56 L93.42,282.9 L92.94,282 L92.52,282.48 L92.94,283.56 Z M92.52,276.66 L92.94,276.66 L92.52,276.66 Z M92.52,273.12 L92.94,273.6 L93.6,273.12 L92.94,272.7 L92.52,272.7 L92.52,273.12 Z M92.94,280.2 L93.42,279.66 L92.4,279.24 C92.4771213,279.557934 92.6695602,279.835902 92.94,280.02 L92.94,280.2 Z M92.94,263.4 L93.36,262.92 C93.36,262.92 92.82,262.92 92.58,262.92 C92.34,262.92 92.4,263.1 92.76,263.22 L92.94,263.4 Z M92.94,286.86 L93.48,286.44 L93,286.02 L92.34,286.44 L92.94,286.86 Z M92.94,270.24 C93.36,270.24 93.48,269.58 93.48,269.28 C93.48,268.98 92.46,269.28 92.46,269.82 L92.94,270.24 Z M91.62,284.64 L92.04,284.64 L91.68,284.64 L91.62,284.64 Z M91.62,275.16 C91.62,275.16 91.92,275.16 92.04,275.16 C92.16,275.16 92.04,275.16 92.04,275.16 L91.62,275.16 Z M92.04,281.64 C92.04,281.64 92.04,281.1 92.04,281.1 L91.68,281.1 C91.6318121,281.213567 91.6112492,281.336944 91.62,281.46 L92.04,281.64 Z M92.04,278.46 L92.04,278.1 L91.26,277.68 L92.04,278.46 Z M93.48,247.86 L92.82,247.2 C90.663834,247.017995 88.496166,247.017995 86.34,247.2 L85.92,247.2 L87.06,246.06 C88.14,246.06 93.6,246.66 93.9,244.98 C94.5146788,240.392176 95.559274,235.872293 97.02,231.48 C99.42,231.48 103.02,231.78 103.02,235.08 C103.02,238.38 101.7,240.42 101.7,243 C101.7,244.08 101.7,244.5 103.02,244.5 C107.82,244.5 111,238.98 115.02,238.98 L115.8,239.76 C115.8,249.54 101.46,245.76 100.92,248.1 C98.3540114,259.618503 97.1656821,271.40109 97.38,283.2 C97.38,286.32 97.38,293.7 101.94,293.7 C110.58,293.7 114.9,268.92 117.36,266.88 C118.017052,266.791785 118.682948,266.791785 119.34,266.88 C115.8,274.5 114,283.62 108,290.04 C105.78,292.44 102.78,294.12 100.68,296.64 L98.04,296.64 C90.72,287.46 89.4,288.6 89.4,275.82 C89.9586747,266.381463 91.080673,256.984727 92.76,247.68 L93.48,247.86 Z"/>
    <path fill="#409ECC" fill-rule="nonzero" d="M141.3,253.8 L141.72,253.8 L141.72,253.32 L141.3,253.32 L141.3,253.8 Z M141.3,257.1 L141.9,256.68 L141.42,256.68 L141,257.04 L141.3,257.1 Z M141.3,260.88 L142.08,260.34 L141.42,259.56 L140.7,260.22 L141.3,260.88 Z M139.74,252 C139.74,252 140.04,252 140.16,252 L139.74,252 Z M139.74,259.08 L140.28,258.54 L139.86,258 L139.5,258.54 L139.74,259.08 Z M139.74,262.2 L140.4,261.66 L139.74,261.12 L139.08,261.66 L139.74,262.2 Z M138.3,264 L138.84,263.4 L138,262.86 L138,263.4 L138.3,264 Z M121.56,273.96 L122.1,272.94 L121.8,272.94 C121.8,272.94 120.9,272.94 120.9,273.42 L121.56,273.96 Z M119.88,274.98 C119.88,274.98 119.88,274.98 119.88,274.98 C119.88,274.98 120,274.98 120,274.98 L119.88,274.98 Z M119.88,268.98 L119.88,268.56 L119.88,268.98 Z M119.88,265.44 C119.88,265.44 120.24,265.44 120.36,265.44 L120,265.44 L119.88,265.44 Z M119.88,272.1 L119.88,271.62 C119.88,271.62 119.52,271.62 119.46,271.62 C119.4,271.62 120,271.98 120,271.98 L119.88,272.1 Z M119.88,255.66 L120.24,255.24 C120.20959,254.99857 120.00333,254.818092 119.76,254.819985 L119.76,255.24 L119.88,255.66 Z M119.88,252.6 C120.12143,252.56959 120.301908,252.36333 120.3,252.12 C120.273829,251.899788 120.100212,251.726171 119.88,251.7 L119.46,252.12 L119.88,252.6 Z M119.52,262.32 L120.12,261.9 L119.52,261.42 L118.98,261.9 L119.52,262.32 Z M118.08,277.2 L118.56,277.2 L118.08,277.2 Z M118.08,270.78 L118.08,270.3 L117.54,270.3 C117.706139,270.499656 117.942188,270.628411 118.2,270.66 L118.08,270.78 Z M118.08,267.18 L118.68,266.52 L117.78,266.52 L118.08,267.18 Z M118.08,263.88 L118.56,263.46 L118.08,262.98 L117.66,263.46 L118.08,263.88 Z M118.08,257.22 L118.56,256.92 L118.08,256.32 L117.66,256.8 L118.08,257.22 Z M117.78,284.04 L118.08,283.62 L117.78,283.14 L117.42,283.62 L117.78,284.04 Z M117.78,261.24 L118.44,260.34 L117.78,259.68 L117.3,260.46 L117.78,261.24 Z M117.3,254.34 C117.78,254.34 118.62,254.34 118.62,253.68 L117.96,253.02 C117.66,252.9 117.54,253.8 117.54,254.22 L117.3,254.34 Z M116.22,265.68 L116.88,265.2 L116.4,265.2 L115.98,265.56 L116.22,265.68 Z M115.86,272.28 L116.76,272.28 C116.676901,271.948396 116.487176,271.653269 116.22,271.44 L115.86,272.28 Z M115.86,269.22 L116.28,268.74 L115.86,268.74 L115.38,269.16 C115.38,269.16 116.34,269.1 116.58,269.1 L115.86,269.22 Z M115.86,262.56 L116.46,261.9 L115.86,261.42 L115.32,262.08 L115.86,262.56 Z M115.86,259.02 C115.86,259.02 115.86,259.02 116.16,259.02 C116.46,259.02 116.16,259.02 115.86,259.02 C115.56,259.02 115.86,259.02 115.5,259.02 C115.14,259.02 116.46,258.9 116.58,258.9 L115.86,259.02 Z M115.86,256.14 L116.52,255.48 L115.92,254.82 L115.38,255.48 L115.86,256.14 Z M116.4,252.48 L115.92,251.46 L115.38,252 L116.4,252.48 Z M115.74,285.84 L116.52,285.36 L115.86,284.7 L115.14,285.36 L115.74,285.84 Z M115.74,278.94 L116.4,278.4 L115.74,277.86 L115.02,278.52 L115.74,278.94 Z M115.74,289.38 L116.64,288.48 L116.46,288 L115.8,288.54 L115.74,289.38 Z M114,284.58 C114,279.96 114.96,251.88 115.74,249.36 L116.16,248.94 L120,248.94 C124.86,248.94 121.08,264.42 122.64,267.3 C122.64,267.3 123,267.3 123.12,267.3 C124.75154,259.217693 129.748638,252.213027 136.86,248.04 L139.74,248.04 C142.92,249.84 145.02,251.46 145.02,255.48 L145.02,256.68 C142.5,260.88 141.72,266.22 135.6,266.22 C134.76,266.22 133.08,266.22 133.08,264.9 C133.08,261.24 138.42,258.9 138.42,254.58 C138.42,253.38 137.94,252.06 136.5,252.06 C126.3,252.06 121.02,283.08 120,291.06 L118.86,292.14 C117.78,292.14 113.34,291.72 113.34,290.4 L113.34,285.72 L114,284.58 Z M180.9,287.58 L181.32,287.58 C181.32,287.58 181.32,287.58 181.32,287.16 C181.32,286.74 180.72,287.34 180.72,287.58 L180.9,287.58 Z M180.9,291.3 L181.44,290.82 L180.9,290.4 L180.54,290.82 L180.9,291.3 Z M180.54,284.4 L181.02,284.4 C181.110128,284.274506 181.110128,284.105494 181.02,283.98 L180.54,284.4 Z M181.02,251.4 L181.44,251.4 L181.08,250.98 L180.54,251.34 L181.02,251.4 Z M179.58,252.6 C179.58,252.6 179.58,252.6 179.58,252.6 C179.58,252.6 179.52,252.66 179.52,252.66 L179.58,252.6 Z M179.22,286.2 L179.64,286.2 C179.64,286.2 179.64,285.84 179.64,285.78 C179.64,285.72 179.16,286.02 179.16,286.26 L179.22,286.2 Z M179.64,279.54 L179.64,279.12 L179.22,279.12 C179.212896,279.344528 179.362464,279.543952 179.58,279.6 L179.64,279.54 Z M179.64,266.46 L179.64,266.16 L179.22,265.56 L179.22,266.04 L179.64,266.46 Z M179.64,289.5 L180.06,289.5 L179.64,288.96 L179.16,289.5 L179.64,289.5 Z M177.72,274.56 C177.987131,274.560935 178.236161,274.425101 178.38,274.2 L178.02,274.2 C178.02,274.2 177.18,274.38 177.18,274.62 L177.72,274.56 Z M176.16,262.56 C176.39196,262.56 176.58,262.37196 176.58,262.14 L176.16,262.14 L176.16,262.56 Z M157.2,288 L157.92,288 L157.92,287.1 L157.2,287.1 L157.2,288 Z M157.2,264.42 C157.56,264.42 158.1,264.42 158.1,263.94 L157.56,264 L157.2,264 L157.2,264.42 Z M157.8,261.18 L158.1,260.64 L157.56,260.1 L157.02,260.64 L157.8,261.18 Z M157.8,258.12 L158.58,257.4 L157.8,256.74 L157.02,257.34 L157.8,258.12 Z M157.8,254.76 L158.22,254.1 L157.8,253.44 L157.14,254.1 C157.063869,254.291271 157.081349,254.507112 157.187266,254.68364 C157.293183,254.860169 157.475405,254.977164 157.68,255 L157.8,254.76 Z M157.8,251.46 L158.7,250.8 L158.04,250.32 L157.38,250.98 L157.8,251.46 Z M156,286.5 L156.42,286.5 L156,285.6 L156,286.02 L156,286.5 Z M156,276.3 L156.66,276.3 L156.66,275.64 L156,275.64 L156,276.3 Z M156.42,272.94 L156.42,272.52 L156,272.1 L155.7,272.52 C155.692031,272.712178 155.815626,272.88521 156,272.94 L156.42,272.94 Z M156,262.74 L156.66,262.74 L156.66,262.08 L156,262.08 L156,262.74 Z M156,289.38 L156.48,289.02 L156,288.72 L155.58,289.14 L156,289.38 Z M156,283.38 L156.42,282.72 L156,282 L155.34,282.42 L156,283.38 Z M156,280.26 L156.9,279.6 L156,278.7 L155.34,279.48 L156,280.26 Z M156,269.64 C156.48,269.64 156.6,268.98 156.6,268.62 C156.6,268.26 155.58,268.62 155.58,269.22 L156,269.64 Z M156,266.28 L156,265.86 L156,265.44 L155.58,265.44 L156,266.28 Z M156,259.68 L156.54,259.2 L156,258.54 L155.34,259.08 L156,259.68 Z M156,256.32 L156.66,256.32 L156,255.24 L155.46,255.78 L156,256.32 Z M156,253.02 L156.54,252.66 L156,252 L155.46,252.54 L156,253.02 Z M156,249.9 C156.48,249.9 156.48,249.24 156.48,248.94 C156.072703,248.94455 155.69273,249.145713 155.46,249.48 L156,249.9 Z M154.26,281.46 C154.74,281.46 154.98,280.8 155.04,280.44 C154.68,280.44 154.02,280.44 154.02,280.98 L154.26,281.46 Z M154.62,277.98 C154.62,277.98 154.62,277.32 154.26,277.2 L153.84,277.68 C153.84,277.68 154.44,277.92 154.68,277.92 L154.62,277.98 Z M154.62,274.68 L154.26,273.66 L153.84,274.26 L154.62,274.68 Z M154.62,271.68 L155.22,271.14 L154.62,270.6 L154.2,271.02 L154.62,271.68 Z M154.62,264.72 C154.62,264.72 154.62,264.06 154.26,263.94 L153.84,264.36 C154.02,264.66 154.44,264.66 154.68,264.66 L154.62,264.72 Z M154.62,261.48 L155.22,260.94 L154.5,260.4 L154.08,260.82 L154.62,261.48 Z M154.62,251.28 L154.98,251.28 C154.98,251.28 154.98,250.44 154.32,250.44 L154.32,250.86 L154.62,251.28 Z M153.96,257.28 C153.96,257.28 153.96,258.06 154.5,258.06 L154.98,257.52 C154.98,256.86 154.5,256.86 153.96,256.86 L153.96,257.28 Z M154.44,284.88 L155.4,284.1 L154.74,283.56 L153.84,284.34 L154.44,284.88 Z M154.44,254.88 L155.22,254.22 L154.74,253.56 L153.84,254.46 L154.44,254.88 Z M153,272.88 L153.42,272.88 L153.42,272.4 L153,272.4 L153,272.88 Z M153,276.42 L153,276 L153,276.42 Z M153,283.26 L153.78,282.6 L153,281.7 L152.4,282.48 L153,283.26 Z M174.84,270.42 C172.8,276.96 169.8,292.56 160.08,292.56 C153.78,292.56 152.64,285.6 150.9,281.04 L150.9,275.76 C151.383199,274.703812 151.648484,273.561043 151.68,272.4 C151.68,264.78 153.12,256.92 153.12,249.12 L153.12,247.8 C153.196622,247.369912 153.432223,246.984383 153.78,246.72 L156.84,246.72 C160.86,248.58 160.2,248.7 160.2,253.14 C160.2,262.02 158.76,270.78 158.76,279.6 C158.76,281.94 158.4,289.02 162.3,289.02 C171.18,289.02 174.9,251.04 177.72,249.36 C180.48,249.36 183,248.28 184.14,251.34 C184.14,262.08 183,272.88 183,283.62 C183,285.84 183,291.48 186.36,291.48 C188.58,291.48 190.2,289.26 190.98,287.46 L200.52,266.22 L201.18,265.74 L202.26,266.52 C200.16,270.54 193.62,295.26 184.26,295.26 C172.98,295.26 175.62,275.82 175.62,270.42 L174.96,270 L174.84,270.42 Z"/>
    <path fill="#409ECC" fill-rule="nonzero" d="M223.92,260.22 L224.4,259.32 L223.26,259.32 L223.92,260.22 Z M223.92,256.8 C223.92,256.8 223.92,256.14 223.92,256.02 L223.44,256.44 C223.26,256.8 223.68,256.8 223.92,256.8 Z M222,252 L222,251.52 L222,251.1 L221.58,251.52 L222,252 Z M207,256.86 C207.090049,256.649214 207.090049,256.410786 207,256.2 L207,256.62 L207,256.86 Z M206.46,253.5 C206.69196,253.5 206.88,253.31196 206.88,253.08 L206.46,253.08 L206.46,253.5 Z M206.46,271.92 C214.682243,271.007595 221.005002,264.225926 221.34,255.96 C221.34,252.66 220.2,250.44 216.36,250.44 C208.14,250.44 205.8,263.04 205.8,269.4 L205.8,271.68 C206.033478,271.748456 206.278411,271.768867 206.52,271.74 L206.46,271.92 Z M204.9,261.72 L205.38,261.72 C205.38,261.72 205.38,261.42 205.38,261.3 C205.38,261.18 204.96,261.3 204.96,261.54 L204.9,261.72 Z M204.9,254.76 C204.9,254.76 204.9,254.76 205.38,254.76 L205.8,254.76 L205.38,254.22 L204.9,254.64 L204.9,254.76 Z M205.38,258.6 C205.539293,258.616734 205.698665,258.569084 205.822629,258.467658 C205.946594,258.366233 206.02486,258.219453 206.04,258.06 L205.38,257.64 L204.72,258.18 L205.38,258.6 Z M203.52,279.96 L204,279.96 L204,279.48 L203.52,279.48 L203.52,279.96 Z M203.52,276.84 L203.88,276.42 C203.88,275.94 203.4,275.82 203.1,275.82 C202.8,275.82 203.34,276.84 204,276.84 L203.52,276.84 Z M203.52,283.26 L204.18,282.84 L204,282.36 L203.46,282.96 L203.52,283.26 Z M203.52,266.88 L204,266.28 L203.52,265.98 L203.1,266.28 L203.52,266.88 Z M204,264 L204.54,263.34 L203.88,262.68 L203.46,263.34 L204,264 Z M204,260.46 L204.6,259.92 L204.12,259.32 L203.7,259.92 L204,260.46 Z M202.38,268.74 L203.04,268.2 L202.56,268.2 L202.38,268.74 Z M202.38,261.78 L202.8,261.78 L202.8,261.36 C202.750294,261.111472 202.508528,260.950294 202.26,261 C202.011472,261.049706 201.850294,261.291472 201.9,261.54 L202.38,261.78 Z M202.38,275.22 C203.28,275.22 204.72,274.62 204.72,273.66 L204.12,273.3 C203.580911,273.154837 203.005127,273.259504 202.551613,273.585104 C202.0981,273.910703 201.814826,274.422796 201.78,274.98 L202.38,275.22 Z M202.8,271.98 L203.28,271.32 L202.38,271.32 L202.8,271.98 Z M202.8,282.18 L202.8,281.52 L202.32,281.04 L201.96,281.64 C201.96,281.64 201.78,282 202.08,282 L202.8,282.18 Z M202.8,278.82 C202.94847,278.840079 203.097801,278.789682 203.203742,278.683742 C203.309682,278.577801 203.360079,278.42847 203.34,278.28 L202.86,277.74 L202.2,278.4 L202.8,278.82 Z M202.8,265.32 L203.34,265.32 L202.8,264.72 L202.32,265.2 L202.8,265.32 Z M201.12,270.18 L201.12,269.76 L201.12,270.18 Z M201.12,280.62 L201.78,279.84 L201.12,279.3 L200.64,279.84 L201.12,280.62 Z M201.12,273.3 L201.54,273.3 C201.54,273.3 201.54,273.3 201.24,273.3 L200.88,273.3 L201.12,273.3 Z M201.66,277.32 L202.02,276.84 L200.58,276 L199.86,276.48 L201.66,277.32 Z M197.46,270 C198.9,268.2 198.36,264.66 199.02,262.44 C200.449359,257.168568 203.757072,252.601791 208.32,249.6 C210.3,248.46 212.94,248.4 214.74,247.14 L218.7,247.14 C222.6,250.62 227.58,250.26 227.58,256.8 C227.58,269.52 205.62,269.76 205.62,276.06 C205.162997,282.499201 209.882004,288.146103 216.3,288.84 C221.965096,287.979974 227.147363,285.155213 230.94,280.86 L232.2,282.18 C232.2,288.18 218.46,289.8 215.1,292.56 L211.38,292.56 C209.675322,291.666233 207.886669,290.942733 206.04,290.4 C200.326661,286.226078 197.083013,279.468478 197.4,272.4 L197.46,270 Z M114,188.58 L113.4,193.26 L113.4,194.88 C113.326173,198.344007 113.446361,201.809431 113.76,205.26 C113.76,206.94 114.24,208.44 114.48,209.82 C114.67863,210.984295 114.979802,212.12875 115.38,213.24 C115.780045,214.150062 116.241094,215.032069 116.76,215.88 C117.634208,217.472654 119.323744,218.444715 121.14,218.4 C122.194574,218.281984 123.193632,217.86571 124.02,217.2 C124.743037,216.554618 125.640579,216.137156 126.6,216 C127.352598,216.062991 128.046508,216.431631 128.52,217.02 C128.476781,219.305734 126.900497,221.276089 124.68,221.82 C123.334165,222.308643 121.911743,222.552486 120.48,222.54 C119.162815,222.577272 117.859059,222.266854 116.7,221.64 C115.662125,221.058699 114.76169,220.260587 114.06,219.3 C113.261746,218.1791 112.634871,216.94557 112.2,215.64 C111.70483,214.182371 111.284284,212.700448 110.94,211.2 C110.94,209.7 110.46,207.96 110.28,206.04 C110.28,202.8 109.92,199.26 109.86,195.36 L109.86,187.32 C109.845806,185.309868 110.006411,183.302309 110.34,181.32 C110.280715,180.621255 110.280715,179.918745 110.34,179.22 C110.259118,176.659931 111.393859,174.21245 113.4,172.62 C115.599565,170.938597 118.312869,170.069492 121.08,170.16 C122.188736,170.185503 123.268709,170.517802 124.2,171.12 C125.117245,171.546235 125.719338,172.449376 125.76,173.46 C125.784963,173.906985 125.581671,174.336158 125.22,174.6 C124.628228,174.906845 123.965838,175.051743 123.3,175.02 C122.588202,175.11064 121.887745,174.78376 121.5,174.18 L120.54,174.18 C118.467653,173.916443 116.424069,174.845345 115.26,176.58 C114.26519,178.906598 113.83349,181.435128 114,183.96 L114,188.58 Z M144,176.58 C143.664078,175.558553 143.087948,174.63263 142.32,173.88 C141.799312,173.337927 141.090781,173.015868 140.34,172.98 C139.732429,172.969011 139.146912,173.207555 138.72,173.64 C138.238075,174.225796 137.871601,174.897664 137.64,175.62 C137.34,176.46 137.1,177.36 136.86,178.32 C136.597846,179.425242 136.417359,180.548273 136.32,181.68 C136.32,182.94 136.32,184.08 136.02,185.1 C135.72,186.12 136.02,187.26 136.02,188.46 C136.02,189.66 136.02,192.12 136.02,193.26 C136.036145,196.532626 136.276709,199.800293 136.74,203.04 C137.22,206.46 137.7,209.04 138.18,211.56 C138.572384,213.523512 139.238909,215.422098 140.16,217.2 C141,218.76 141.9,219.54 142.98,219.54 C144.06,219.54 144.6,218.64 145.2,216.96 C145.89911,215.02593 146.342856,213.008902 146.52,210.96 C147,206.46 147.18,203.34 147.24,201.54 L147.24,197.4 C147.24,196.56 147.24,195.36 147.24,193.74 C147.24,192.12 147.24,190.68 146.94,189.3 C146.64,187.92 146.64,186.36 146.46,184.68 C146.276185,183.143846 145.995627,181.62082 145.62,180.12 C145.155241,178.868065 144.614228,177.645776 144,176.46 L144,176.58 Z M150,201.24 L149.4,209.76 L149.4,210 C149.102678,211.318866 148.961707,212.668159 148.98,214.02 C148.994387,215.457297 148.729482,216.883707 148.2,218.22 C147.723043,219.577475 146.943347,220.808573 145.92,221.82 C145.043723,222.789125 143.80628,223.353573 142.5,223.38 C141.266292,223.370265 140.075907,222.923871 139.14,222.12 C138.13127,221.22044 137.297292,220.142371 136.68,218.94 C135.943537,217.442723 135.360564,215.874727 134.94,214.26 C134.439082,212.524467 134.03842,210.761555 133.74,208.98 C133.74,207.24 133.26,205.44 133.08,203.52 C133.08,200.58 132.72,198.3 132.72,196.74 C132.72,195.18 132.72,193.74 132.72,192.54 C132.72,191.34 132.72,190.38 132.72,189.48 L132.72,186 C132.72,184.74 132.72,183.54 132.72,182.52 C132.72,181.5 132.72,180.36 133.02,179.16 C133.32,177.96 133.38,176.94 133.56,176.04 C133.806325,175.122989 134.106854,174.221404 134.46,173.34 C134.810125,172.550127 135.253258,171.804857 135.78,171.12 C136.686068,169.950648 138.080702,169.264399 139.56,169.26 C140.818374,169.224702 142.068764,169.470681 143.22,169.98 C144.282991,170.562679 145.157321,171.437009 145.74,172.5 C146.415111,173.568015 147.0359,174.669415 147.6,175.8 C148.190018,177.242772 148.593282,178.755015 148.8,180.3 L149.52,184.98 C149.739499,186.691609 149.859701,188.414493 149.88,190.14 C149.88,193.14 149.88,195.48 149.88,197.16 L150,201.24 Z M156.3,206.28 L156,180 C156,177.12 156,174 156,171.3 L157.86,170.28 C159.24,170.28 160.74,173.94 162.42,180.96 C163.8,186.96 164.94,191.94 165.78,196.5 C166.62,201.06 167.16,203.64 167.22,204 C167.52,202.56 168.12,199.98 168.9,196.26 C169.68,192.54 170.4,189.6 170.82,187.56 C171.925997,182.254781 172.687588,176.883563 173.1,171.48 L173.1,171.06 C173.175712,170.517771 173.454504,170.024524 173.88,169.68 C174.287772,169.346917 174.793761,169.157171 175.32,169.14 C175.800824,169.115935 176.265824,169.315221 176.58,169.68 C176.86583,170.017404 177.034288,170.438549 177.06,170.88 C177.06,176.28 177.06,184.32 177.66,194.88 C178.26,205.44 178.26,213.66 178.26,218.88 C178.266737,219.882628 177.97427,220.86448 177.42,221.7 C176.82,222.48 176.28,222.84 175.8,222.84 C175.32,222.84 174.12,222 174.12,220.2 L174,192 L174,188.58 C173.7,190.32 172.98,193.38 171.9,197.7 C171.036418,200.979739 170.355372,204.304844 169.86,207.66 L169.86,208.08 C169.86,208.08 169.86,208.68 169.86,209.34 C169.86,210 169.86,210.54 169.86,210.96 C169.736419,211.451382 169.575964,211.932746 169.38,212.4 C169.116519,213.311671 168.288857,213.944589 167.34,213.96 C165.72,213.96 164.94,211.86 164.94,207.96 C164.648611,202.055198 163.62065,196.209932 161.88,190.56 C160.86,186.84 160.26,184.56 159.96,183 C159.96,186.6 159.96,189.3 159.96,191.1 L160.5,218.82 C160.496152,219.759803 160.130931,220.662112 159.48,221.34 C158.558746,221.450079 157.653924,221.032469 157.14,220.26 C156.68674,219.306394 156.480421,218.254163 156.54,217.2 L156,206.16 L156.3,206.28 Z M191.4,196.74 L189.72,196.74 C189.19841,196.676082 188.679689,196.87906 188.34,197.28 L188.34,218.04 L192.06,218.04 C194.64,218.04 195.9,218.64 195.9,219.78 C195.568509,220.430786 195.015184,220.941548 194.34,221.22 C193.710018,221.496025 193.04289,221.677969 192.36,221.76 L188.04,221.76 C186.36,221.76 185.34,221.76 184.98,220.8 C184.774176,220.434149 184.670555,220.019668 184.68,219.6 L184.68,180.48 C184.64752,179.329354 184.506901,178.184313 184.26,177.06 C183.995625,175.916804 183.834974,174.752079 183.78,173.58 C184.239879,172.714389 184.804083,171.908384 185.46,171.18 L190.44,170.58 C191.177524,170.611579 191.897117,170.817177 192.54,171.18 C193.14416,171.499903 193.532651,172.11692 193.56,172.8 C193.56,174.12 192.54,174.78 190.5,174.78 L187.8,174.78 L188.58,186 C188.58,186.92 188.58,188.24 188.58,189.96 C188.58,191.64 188.58,192.9 188.58,193.68 L189.54,193.68 C190.244364,193.48001 190.968848,193.359262 191.7,193.32 C192.212557,193.314586 192.707239,193.508158 193.08,193.86 C193.469355,194.186602 193.689944,194.671898 193.68,195.18 C193.705137,195.703058 193.533945,196.216636 193.2,196.62 C192.904276,197.015098 192.433129,197.239453 191.94,197.22 L191.4,196.74 Z M94.74,77.22 C94.74,77.22 92.4,50.52 82.08,46.2 C71.76,41.88 78.72,67.86 94.74,77.22 Z M86.28,81.06 C86.28,81.06 63.24,66 53.58,72 C43.92,78 68.88,87.72 85.98,80.58 L86.28,81.06 Z M82.92,73.74 C82.92,73.74 72.3,48.9 61.14,48 C49.98,47.1 64.8,69.66 82.92,73.5 L82.92,73.74 Z M216.96,76.5 C216.96,76.5 219.3,49.8 229.62,45.48 C239.94,41.16 232.98,67.14 216.96,76.5 Z M225.42,80.34 C225.42,80.34 248.1,66 258,72 C267.9,78 242.7,87.72 225.6,80.58 L225.42,80.34 Z M228.6,73.74 C228.6,73.74 239.04,48.9 250.26,48 C261.48,47.1 246.6,69.66 228.42,73.5 L228.6,73.74 Z M158.52,18.78 C163.923615,13.3431723 170.401455,9.09272813 177.54,6.3 C186.06,4.2 180.42,12.9 180.24,14.88 C180.06,16.86 179.34,23.34 175.38,22.92 C171.42,22.5 165.9,21.42 165.72,22.32 C165.54,23.22 172.38,24.84 173.76,26.58 C176.227165,29.5136004 175.963394,33.8658274 173.16,36.48 C171.621311,38.118705 169.446221,39.0075311 167.20024,38.9153884 C164.95426,38.8232456 162.859286,37.7592373 161.46,36 C159.903166,33.8222213 158.538055,31.5135787 157.38,29.1 C157.38,29.1 156.72,30 156.24,29.94 C156.184738,25.947679 156.425397,21.9567512 156.96,18 C156.96,18 157.26,17.64 158.52,18.54 L158.52,18.78 Z"/>
    <path fill="#409ECC" fill-rule="nonzero" d="M155.46,18.54 C150.729599,12.4278837 144.784793,7.36151967 138,3.66 C129.84,0.54 134.28,9.66 134.22,11.82 C134.16,13.98 134.22,20.4 137.94,20.52 C141.66,20.64 147.54,20.52 147.66,21.12 C147.78,21.72 140.64,22.8 139.08,24.3 C136.312577,26.947187 136.101652,31.2975029 138.6,34.2 C139.975243,36.0669219 142.10465,37.2313449 144.418536,37.3817475 C146.732422,37.5321501 148.994651,36.6531834 150.6,34.98 C152.417626,33.0035565 154.063576,30.8758639 155.52,28.62 C155.52,28.62 156.06,29.64 156.54,29.64 C157.001722,25.7782031 157.182197,21.8879581 157.08,18 C157.08,18 156.78,17.58 155.46,18"/>
    <polyline fill="#409ECC" fill-rule="nonzero" points="250.32 104.46 246.18 100.98 240.96 102.36 243.06 97.32 240.06 92.76 245.46 93.24 248.94 88.98 250.2 94.26 255.24 96.24 250.62 99.06 250.32 104.46"/>
    <polyline fill="#409ECC" fill-rule="nonzero" points="86.76 247.5 81.54 246.12 77.4 249.66 77.1 244.2 72.48 241.38 77.52 239.46 78.78 234.12 82.2 238.38 87.6 237.9 84.66 242.46 86.76 247.5"/>
    <polyline fill="#409ECC" fill-rule="nonzero" points="119.28 34.8 113.88 34.08 110.22 38.1 109.26 32.76 104.34 30.48 109.14 27.9 109.74 22.5 113.64 26.28 118.98 25.2 116.58 30.06 119.28 34.8"/>
    <path fill="#409ECC" fill-rule="nonzero" d="M219,213.96 C218.668368,213.964896 218.355063,213.808243 218.16,213.54 L213.12,206.1 C212.788629,205.636081 212.896081,204.991371 213.36,204.66 C213.823919,204.328629 214.468629,204.436081 214.8,204.9 L219.84,212.4 C220.026973,212.580864 220.132542,212.829864 220.132542,213.09 C220.132542,213.350136 220.026973,213.599136 219.84,213.78 C219.644523,213.840154 219.435477,213.840154 219.24,213.78 M214.5,193.5 C214.323708,193.551668 214.136292,193.551668 213.96,193.5 C213.601599,193.109811 213.601599,192.510189 213.96,192.12 L218.7,185.16 C219.098047,184.763328 219.741953,184.763328 220.14,185.16 C220.344193,185.331001 220.462159,185.583662 220.462159,185.85 C220.462159,186.116338 220.344193,186.368999 220.14,186.54 L215.4,193.5 C215.221032,193.786573 214.896639,193.948769 214.56,193.92 M85.62,213.96 C85.423588,214.013576 85.216412,214.013576 85.02,213.96 C84.6615987,213.569811 84.6615987,212.970189 85.02,212.58 L90,204.9 C90.4099689,204.533313 91.0300311,204.533313 91.44,204.9 C91.6466404,205.08224 91.7650197,205.344479 91.7650197,205.62 C91.7650197,205.895521 91.6466404,206.15776 91.44,206.34 L86.4,213.78 C86.2122664,214.056752 85.8940414,214.215864 85.56,214.2 M90.3,193.92 C89.9659586,193.935864 89.6477336,193.776752 89.46,193.5 L84.72,186.54 C84.3615987,186.149811 84.3615987,185.550189 84.72,185.16 C84.9022397,184.95336 85.1644794,184.83498 85.44,184.83498 C85.7155206,184.83498 85.9777603,184.95336 86.16,185.16 L91.2,192 C91.5584013,192.390189 91.5584013,192.989811 91.2,193.38 C91.003588,193.433576 90.796412,193.433576 90.6,193.38"/>
    <path fill="#FFFFFE" fill-rule="nonzero" d="M92.22,75.42 C92.22,75.42 90,48.72 79.56,44.4 C69.12,40.08 76.2,66 92.22,75.42 M84,79.26 C84,79.26 61.26,65.04 51.6,70.68 C41.94,76.32 66.9,86.46 84,79.26 M80.94,72.42 C80.94,72.42 70.08,48 58.92,46.92 C47.76,45.84 62.58,68.58 80.7,72.42 M214.74,75.42 C214.74,75.42 217.08,48.72 227.4,44.4 C237.72,40.08 230.76,66.06 214.74,75.42 M223.2,79.26 C223.2,79.26 245.88,65.04 255.6,70.68 C265.32,76.32 240.3,86.46 223.2,79.26 M226.26,72.42 C226.26,72.42 236.82,48 248.04,46.92 C259.26,45.84 244.38,68.58 226.26,72.42 M156.36,18 C161.722274,12.4397636 168.205666,8.08341493 175.38,5.22 C183.84,3.12 178.2,11.82 178.02,13.8 C177.84,15.78 177.18,22.26 173.16,21.9 C169.14,21.54 163.68,20.4 163.5,21.24 C163.32,22.08 170.16,23.82 171.54,25.5 C173.976563,28.4436536 173.71423,32.772152 170.94,35.4 C169.359451,37.0044238 167.158455,37.8408426 164.911265,37.6910299 C162.664074,37.5412171 160.593585,36.4200328 159.24,34.62 C157.683166,32.4422213 156.318055,30.1335787 155.16,27.72 C155.16,27.72 154.5,28.62 154.02,28.56 C153.990827,24.7477746 154.231427,20.9382624 154.74,17.16 C154.74,17.16 155.1,16.8 156.36,17.7"/>
    <polyline fill="#0E0F2A" fill-rule="nonzero" points="248.1 103.44 243.96 99.9 238.74 101.28 240.84 96.3 237.84 91.74 243.3 92.16 246.72 87.9 247.98 93.18 253.02 95.16 248.4 97.98 248.1 103.44"/>
    <polyline fill="#0E0F2A" fill-rule="nonzero" points="84.54 246.42 79.32 245.04 75.18 248.58 74.88 243.12 70.26 240.3 75.3 238.38 76.56 233.04 79.98 237.3 85.44 236.82 82.44 241.38 84.54 246.42"/>
    <polyline fill="#0E0F2A" fill-rule="nonzero" points="117.06 33.72 111.72 33 108.06 37.02 107.04 31.68 102.12 29.4 106.92 26.82 107.52 21.48 111.42 25.2 116.76 24.12 114.42 28.98 117.06 33.72"/>
    <path fill="#0E0F2A" fill-rule="nonzero" d="M211.08,205.32 L216,212.76 C216.429523,213.221283 217.133824,213.294216 217.648754,212.930735 C218.163685,212.567255 218.330814,211.879195 218.04,211.32 L213.12,204 C212.893478,203.564431 212.434585,203.300099 211.944154,203.322691 C211.453723,203.345282 211.021074,203.650681 210.835555,204.105231 C210.650036,204.559781 210.745435,205.080697 211.08,205.44 M213.42,192.6 L218.16,185.64 C218.398477,185.413447 218.533501,185.098934 218.533501,184.77 C218.533501,184.441066 218.398477,184.126553 218.16,183.9 C217.579704,183.521013 216.80227,183.681861 216.42,184.26 L211.68,191.16 C211.345435,191.519303 211.250036,192.040219 211.435555,192.494769 C211.621074,192.949319 212.053723,193.254718 212.544154,193.277309 C213.034585,193.299901 213.493478,193.035569 213.72,192.6 M87.78,204 L82.74,211.44 C82.4491858,211.999195 82.6163147,212.687255 83.1312456,213.050735 C83.6461764,213.414216 84.3504768,213.341283 84.78,212.88 L90,205.32 C90.3345651,204.960697 90.4299637,204.439781 90.2444448,203.985231 C90.0589258,203.530681 89.6262766,203.225282 89.1358458,203.202691 C88.645415,203.180099 88.1865216,203.444431 87.96,203.88 M89.7,191.04 L84.96,184.14 C84.7683258,183.662224 84.3052829,183.3491 83.7904927,183.349142 C83.2757026,183.349184 82.8127109,183.662384 82.6211149,184.140191 C82.4295189,184.617999 82.5478564,185.164306 82.92,185.52 L87.66,192.48 C88.0895232,192.941283 88.7938236,193.014216 89.3087544,192.650735 C89.8236853,192.287255 89.9908142,191.599195 89.7,191.04"/>
    <rect width="300" height="300"/>
  </g>
</svg>
