<?xml version="1.0" encoding="UTF-8" standalone="no"?>
<!DOCTYPE svg PUBLIC "-//W3C//DTD SVG 1.1//EN" "http://www.w3.org/Graphics/SVG/1.1/DTD/svg11.dtd">
<svg width="100%" height="100%" viewBox="0 0 50 50" version="1.1" xmlns="http://www.w3.org/2000/svg" xmlns:xlink="http://www.w3.org/1999/xlink" xml:space="preserve" xmlns:serif="http://www.serif.com/" style="fill-rule:evenodd;clip-rule:evenodd;stroke-linejoin:round;stroke-miterlimit:1.41421;">
    <g transform="matrix(0.330197,0,0,0.330197,0.47784,6.34605)">
        <path d="M71.331,123.53C70.419,123.53 69.52,123.238 68.774,122.679C67.727,121.899 67.096,120.682 67.06,119.376L67.058,119.312L120.199,105.177C121.461,104.842 122.5,103.947 123.02,102.748C123.54,101.551 123.483,100.181 122.866,99.03L98.31,53.227L111.571,49.521C111.872,49.437 112.164,49.32 112.44,49.172C117.115,46.666 125.372,36.976 128.706,31.891L132.344,30.874C134.832,30.18 136.902,28.558 138.169,26.307C139.437,24.055 139.752,21.444 139.056,18.955C138.657,17.525 137.943,16.243 137.002,15.176C137.495,15.099 137.993,15.061 138.492,15.061C142.814,15.061 146.644,17.968 147.806,22.13C148.501,24.619 148.187,27.231 146.92,29.481C145.651,31.733 143.582,33.356 141.094,34.049L137.456,35.067C134.122,40.152 125.865,49.841 121.189,52.348C120.914,52.495 120.622,52.612 120.321,52.697L107.059,56.401L131.615,102.205C132.232,103.355 132.29,104.727 131.77,105.924C131.249,107.123 130.21,108.018 128.948,108.352L72.429,123.387C72.066,123.483 71.698,123.53 71.331,123.53ZM46.68,72.985C42.798,72.985 34.863,70.643 29.124,68.113C32.584,69.133 35.842,69.81 37.93,69.81C38.241,69.81 38.541,69.798 38.823,69.772C39.085,69.75 39.345,69.703 39.599,69.632L56.882,64.802L57.037,70.378L48.349,72.806C48.095,72.877 47.835,72.925 47.573,72.949C47.291,72.973 46.99,72.985 46.68,72.985ZM18.783,67.864C15.945,67.864 13.32,66.609 11.524,64.572C11.899,64.513 12.272,64.432 12.64,64.329L16.799,63.165C18.817,64.319 21.612,65.539 24.57,66.614L21.39,67.503C20.539,67.741 19.662,67.864 18.783,67.864ZM109.272,10.216C106.813,9.706 104.45,9.331 102.535,9.204C99.431,5.56 95.522,2.567 91.073,0.352C98.133,2.063 104.448,5.467 109.272,10.216Z" style="fill:rgb(14,18,19);"/>
    </g>
    <g transform="matrix(0.330197,0,0,0.330197,0.47784,3.8349)">
        <path d="M139.056,26.56C137.894,22.398 134.064,19.49 129.742,19.49C128.863,19.49 127.985,19.612 127.133,19.85L121.705,21.367C117.132,19.56 108.005,17.17 102.535,16.809C95.422,8.456 84.07,3.529 71.704,3.528C68.235,3.528 64.727,3.916 61.277,4.68C61.147,4.71 61,4.742 60.853,4.776C60.034,4.966 59.318,5.145 58.658,5.331C41.914,10.007 29.498,22.924 27.095,37.88C26.25,38.475 25.317,39.222 24.282,40.128L24.263,40.143L24.057,40.326C23.33,40.97 22.589,41.662 21.842,42.39L21.79,42.441L21.569,42.656C21.346,42.876 21.122,43.099 20.899,43.326L20.701,43.526L20.588,43.641C20.227,44.01 19.882,44.369 19.541,44.731L19.458,44.819C19.338,44.945 19.219,45.072 19.101,45.2C18.941,45.372 18.775,45.552 18.608,45.736C18.446,45.914 18.277,46.102 18.11,46.289C17.966,46.45 17.821,46.613 17.679,46.774C17.4,47.091 17.118,47.418 16.846,47.738L16.716,47.896L16.632,47.997C16.406,48.269 16.186,48.537 15.974,48.802L15.72,49.12C15.49,49.412 15.282,49.682 15.085,49.946L15.048,49.995L14.957,50.114C14.688,50.478 14.459,50.802 14.25,51.111L14.117,51.313L14.023,51.454L7.433,53.296C2.289,54.744 -0.717,60.096 0.723,65.226C1.883,69.384 5.712,72.292 10.033,72.292C10.912,72.292 11.789,72.172 12.64,71.934L16.799,70.771C22.195,73.855 33.143,77.416 37.93,77.416C38.241,77.416 38.541,77.403 38.823,77.378C39.085,77.355 39.345,77.308 39.599,77.237L56.882,72.408L58.31,123.805C58.346,125.112 58.978,126.329 60.024,127.11C60.77,127.668 61.669,127.96 62.581,127.96C62.948,127.96 63.317,127.912 63.679,127.816L120.199,112.783C121.461,112.447 122.5,111.552 123.02,110.354C123.54,109.156 123.483,107.786 122.866,106.635L98.31,60.832L111.571,57.126C111.872,57.042 112.164,56.926 112.44,56.777C117.115,54.271 125.372,44.581 128.706,39.496L132.344,38.48C134.832,37.786 136.902,36.164 138.169,33.912C139.437,31.661 139.752,29.049 139.056,26.56Z" style="fill:rgb(255,255,254);"/>
    </g>
    <g transform="matrix(0.330197,0,0,0.330197,0.47784,4.98663)">
        <clipPath id="_clip1">
            <path d="M85.45,42.4L73.026,45.702L60.603,49.007L62.581,120.199L119.1,105.165L85.45,42.4Z"/>
        </clipPath>
        <g clip-path="url(#_clip1)">
            <g transform="matrix(1,0,0,-1,60.6032,120.198)">
                <rect x="0" y="0" width="58.497" height="77.798" style="fill:url(#_Linear2);"/>
            </g>
            <g transform="matrix(1,0,0,-1,60.6032,120.198)">
                <rect x="0" y="0" width="58.497" height="77.798" style="fill:url(#_Linear3);"/>
            </g>
        </g>
    </g>
    <g transform="matrix(0.330197,0,0,0.330197,0.47784,-23.6495)">
        <path d="M59.808,92.682C43.598,97.21 32.361,109.995 31.072,123.693L100.463,104.3C92.26,93.256 76.025,88.149 59.808,92.682Z" style="fill:rgb(218,223,62);"/>
    </g>
    <g transform="matrix(0.330197,0,0,0.330197,0.47784,-33.3572)">
        <path d="M59.871,122.064C59.875,122.063 59.879,122.062 59.883,122.061C59.879,122.062 59.875,122.063 59.871,122.064Z" style="fill:rgb(185,185,180);"/>
    </g>
    <g transform="matrix(0.330197,0,0,0.330197,0.47784,-23.4308)">
        <path d="M31.072,123.031C32.361,109.333 43.598,96.548 59.808,92.02C59.829,92.014 59.85,92.008 59.871,92.002C59.875,92.001 59.879,92 59.883,91.999C61.315,91.601 62.745,91.282 64.172,91.032C50.244,96.442 40.809,108.159 39.632,120.639L31.072,123.031Z" style="fill:rgb(116,118,40);"/>
    </g>
    <g transform="matrix(0.330197,0,0,0.330197,0.47784,-9.27558)">
        <path d="M134.941,67.416C135.745,70.29 134.068,73.269 131.194,74.07L11.489,107.524C8.618,108.328 5.637,106.648 4.837,103.777C4.031,100.909 5.709,97.926 8.583,97.117L128.284,63.67C131.156,62.867 134.139,64.541 134.941,67.416Z" style="fill:rgb(172,173,169);"/>
    </g>
    <g transform="matrix(-0.124511,-0.305822,0.305822,-0.124511,3.3924,49.0988)">
        <path d="M72.899,38.35C75.477,41.003 80.916,52.957 81.104,57.039L72.899,128.62C71.556,132.906 63.667,143.465 60.537,146.185C60.879,143.211 72.899,38.35 72.899,38.35Z" style="fill:rgb(77,43,121);"/>
    </g>
    <g transform="matrix(-0.046186,-0.326951,0.326951,-0.046186,2.23957,48.8984)">
        <path d="M67.944,21.893C64.849,24.752 58.322,37.4 58.099,41.65L67.944,115.727C69.558,120.126 79.026,130.783 82.779,133.484C82.371,130.405 67.944,21.893 67.944,21.893Z" style="fill:rgb(77,43,121);"/>
    </g>
    <g transform="matrix(0.330197,0,0,0.330197,0.47784,4.04623)">
        <path d="M10.033,67.38C10.031,67.38 10.03,67.38 10.028,67.38C10.03,67.38 10.031,67.38 10.033,67.38ZM10.034,67.38C10.505,67.38 10.984,67.318 11.459,67.188C10.983,67.318 10.505,67.38 10.034,67.38ZM4.85,63.478C4.849,63.475 4.848,63.472 4.847,63.469C4.848,63.472 4.849,63.475 4.85,63.478Z" style="fill:rgb(185,185,180);"/>
    </g>
    <g transform="matrix(0.330197,0,0,0.330197,0.47784,-7.97229)">
        <path d="M10.033,103.778C10.031,103.778 10.03,103.778 10.028,103.778C7.684,103.776 5.529,102.234 4.85,99.876C4.849,99.873 4.848,99.87 4.847,99.867C4.843,99.855 4.84,99.842 4.837,99.83L134.941,63.469C135.078,63.958 135.143,64.448 135.142,64.932C135.14,67.293 133.579,69.458 131.194,70.123L11.489,103.577C11.479,103.58 11.469,103.583 11.459,103.586C10.984,103.716 10.505,103.778 10.034,103.778L10.033,103.778Z" style="fill:rgb(126,127,124);"/>
    </g>
    <g transform="matrix(0.0888064,0.318031,-0.318031,0.0888064,55.9064,-25.7744)">
        <ellipse cx="76.083" cy="116.537" rx="4.365" ry="4.365" style="fill:rgb(255,255,254);"/>
    </g>
    <g transform="matrix(0.0888684,0.318013,-0.318013,0.0888684,38.0549,-2.2664)">
        <ellipse cx="39.633" cy="88.087" rx="2.488" ry="2.487" style="fill:rgb(24,25,23);"/>
    </g>
    <g transform="matrix(0.0889645,0.317987,-0.317987,0.0889645,42.8731,-8.63204)">
        <ellipse cx="54.246" cy="92.17" rx="2.489" ry="2.487" style="fill:rgb(24,25,23);"/>
    </g>
    <g transform="matrix(0.0889128,0.318001,-0.318001,0.0889128,47.5594,-14.8)">
        <ellipse cx="68.431" cy="96.134" rx="2.488" ry="2.487" style="fill:rgb(24,25,23);"/>
    </g>
    <g transform="matrix(0.0888168,0.318028,-0.318028,0.0888168,52.2904,-21.0131)">
        <ellipse cx="82.727" cy="100.129" rx="2.487" ry="2.488" style="fill:rgb(24,25,23);"/>
    </g>
    <g transform="matrix(0.0890015,0.317976,-0.317976,0.0890015,56.7082,-26.8792)">
        <ellipse cx="96.177" cy="103.884" rx="2.487" ry="2.488" style="fill:rgb(24,25,23);"/>
    </g>
    <g transform="matrix(0.330197,0,0,0.330197,0.47784,3.70513)">
        <path d="M37.93,73.536C33.208,73.535 20.65,69.095 17.509,66.53C20.65,69.095 33.208,73.535 37.93,73.536C38.116,73.536 38.288,73.529 38.449,73.515L61.001,67.214L38.449,73.515C38.288,73.529 38.116,73.536 37.93,73.536ZM92.025,58.545L92.739,58.346L92.025,58.545Z" style="fill:rgb(185,185,180);"/>
    </g>
    <g transform="matrix(0.330197,0,0,0.330197,0.47784,1.68334)">
        <path d="M61.001,73.337L92.025,64.668L61.001,73.337Z" style="fill:rgb(162,184,59);"/>
    </g>
    <g transform="matrix(0.330197,0,0,0.330197,0.47784,-4.2546)">
        <path d="M17.509,90.635C17.51,90.635 17.51,90.635 17.511,90.635C17.51,90.635 17.51,90.635 17.509,90.635ZM17.513,90.635L17.514,90.635L17.513,90.635ZM17.515,90.635C17.516,90.634 17.516,90.634 17.517,90.634C17.516,90.634 17.516,90.634 17.515,90.635ZM17.523,90.632L17.524,90.632L17.523,90.632ZM17.527,90.631L17.528,90.631L17.527,90.631ZM107.423,65.509C107.612,65.455 107.799,65.403 107.985,65.352C107.8,65.403 107.61,65.456 107.423,65.509Z" style="fill:rgb(185,185,180);"/>
    </g>
    <g transform="matrix(0.330197,0,0,0.330197,0.47784,-1.94124)">
        <path d="M37.93,90.635C33.208,90.635 20.65,86.194 17.509,83.629C17.51,83.629 17.51,83.629 17.511,83.629C17.511,83.629 17.512,83.629 17.513,83.629L17.515,83.629C17.516,83.628 17.516,83.628 17.517,83.628C17.518,83.628 17.521,83.626 17.523,83.626L17.524,83.626C17.525,83.626 17.526,83.626 17.527,83.625L17.528,83.625C18.743,83.286 76.751,67.076 107.423,58.503C107.61,58.45 107.8,58.397 107.985,58.346C96.848,63.628 84.39,70.786 92.739,75.446L92.025,75.644L38.449,90.614C38.288,90.629 38.116,90.635 37.93,90.635Z" style="fill:rgb(57,39,89);"/>
    </g>
    <g transform="matrix(0.330197,0,0,0.330197,0.47784,-4.2787)">
        <path d="M16.858,79.672C17.213,78.863 17.995,77.706 19.032,76.389C17.996,77.706 17.214,78.864 16.858,79.672Z" style="fill:rgb(185,185,180);"/>
    </g>
    <g transform="matrix(0.330197,0,0,0.330197,0.47784,-5.0682)">
        <path d="M16.857,82.065C16.857,82.064 16.858,82.063 16.858,82.062C16.858,82.063 16.857,82.064 16.857,82.065L16.858,82.065L16.857,82.065ZM16.858,82.065C16.859,82.065 16.86,82.064 16.861,82.064C16.86,82.064 16.859,82.065 16.858,82.065ZM16.862,82.064C17.089,82 25.368,79.687 37.181,76.385C25.369,79.687 17.088,82.001 16.862,82.064Z" style="fill:rgb(126,127,124);"/>
    </g>
    <g transform="matrix(0.330197,0,0,0.330197,0.47784,-7.05698)">
        <path d="M16.857,88.089C16.857,88.087 16.858,88.086 16.858,88.086C17.214,87.277 17.996,86.119 19.032,84.803C21.136,82.129 24.286,78.797 27.028,76.385C27.247,77.896 31.533,80.427 39.026,80.427C41.829,80.427 45.082,80.072 48.737,79.177C44.646,80.322 40.752,81.41 37.181,82.408C25.368,85.71 17.089,88.023 16.862,88.087L16.861,88.087C16.86,88.087 16.859,88.089 16.858,88.089L16.857,88.089Z" style="fill:rgb(57,39,89);"/>
    </g>
    <g transform="matrix(0.330197,0,0,0.330197,0.47784,26.596)">
        <path d="M94.836,41.096C94.692,40.736 94.686,40.303 94.676,39.702C94.665,38.931 94.65,37.97 94.334,36.68C93.584,33.761 91.479,32.376 90.101,31.674C89.894,30.209 89.467,28.787 89.002,27.514C90.836,26.671 93.102,24.876 93.499,21.1C93.563,20.502 93.128,19.964 92.528,19.902C91.94,19.838 91.391,20.273 91.329,20.872C91.056,23.459 89.67,24.797 88.203,25.49C88.163,25.393 88.12,25.289 88.081,25.195C88.019,25.047 87.963,24.909 87.906,24.773C88.554,24.093 88.956,23.18 88.956,22.169C88.956,20.083 87.265,18.393 85.181,18.393C83.096,18.393 81.404,20.083 81.404,22.169C81.404,24.135 82.912,25.73 84.831,25.909C84.903,26.083 84.978,26.263 85.058,26.453L85.087,26.525C83.325,26.683 81.19,26.21 79.673,23.684C79.361,23.166 78.692,23 78.174,23.309C77.657,23.619 77.489,24.289 77.8,24.808C79.333,27.362 81.72,28.737 84.512,28.737C84.967,28.737 85.435,28.688 85.908,28.616C86.331,29.769 86.719,31.02 86.879,32.25L86.918,32.374C86.885,33.651 86.632,35.404 85.257,37.066C83.781,38.892 82.819,40.299 82.9,43.103C82.917,43.696 83.401,44.164 83.991,44.164L84.022,44.164C84.625,44.146 85.1,43.644 85.083,43.042C85.026,41.033 85.58,40.139 86.948,38.446C88.094,37.062 88.769,35.46 89.007,33.596L89.045,33.585C90.129,34.135 91.684,35.144 92.215,37.212C92.471,38.251 92.482,39.039 92.493,39.735C92.504,40.474 92.515,41.173 92.808,41.906C92.98,42.334 93.39,42.592 93.822,42.592C93.958,42.592 94.096,42.569 94.227,42.515C94.788,42.291 95.061,41.655 94.836,41.096Z" style="fill:rgb(22,23,21);"/>
    </g>
    <defs>
        <linearGradient id="_Linear2" x1="0" y1="0" x2="1" y2="0" gradientUnits="userSpaceOnUse" gradientTransform="matrix(6.27019e-14,-1024,-1024,-6.27019e-14,0,77.798)"><stop offset="0" style="stop-color:rgb(114,240,241);stop-opacity:0"/><stop offset="1" style="stop-color:rgb(62,220,223);stop-opacity:0"/></linearGradient>
        <linearGradient id="_Linear3" x1="0" y1="0" x2="1" y2="0" gradientUnits="userSpaceOnUse" gradientTransform="matrix(-16.3662,61.4419,61.4419,16.3662,29.2485,3.57225)"><stop offset="0" style="stop-color:rgb(114,240,241);stop-opacity:1"/><stop offset="1" style="stop-color:rgb(62,220,223);stop-opacity:1"/></linearGradient>
    </defs>
</svg>
