<?xml version="1.0" encoding="UTF-8" standalone="no"?>
<!DOCTYPE svg PUBLIC "-//W3C//DTD SVG 1.1//EN" "http://www.w3.org/Graphics/SVG/1.1/DTD/svg11.dtd">
<svg width="100%" height="100%" viewBox="0 0 50 50" version="1.1" xmlns="http://www.w3.org/2000/svg" xmlns:xlink="http://www.w3.org/1999/xlink" xml:space="preserve" xmlns:serif="http://www.serif.com/" style="fill-rule:evenodd;clip-rule:evenodd;stroke-linejoin:round;stroke-miterlimit:1.41421;">
    <g transform="matrix(0.624286,0,0,0.624286,4.56471,2.83786)">
        <rect x="0" y="0" width="50" height="50" style="fill:none;"/>
    </g>
    <g transform="matrix(0.366887,0,0,0.366887,1.87852,1.80025)">
        <path d="M74.313,130.012C73.9,130.012 73.482,129.952 73.074,129.828C71.519,129.355 70.365,128.041 70.1,126.437L69.808,124.67L86.66,106.696L112.1,110.551C112.314,110.583 112.529,110.599 112.741,110.599C114.124,110.599 115.439,109.926 116.245,108.77C117.175,107.436 117.267,105.69 116.482,104.265L104.068,81.728L115.532,58.852C115.864,58.245 116.052,57.549 116.052,56.808C116.052,56.684 116.047,56.561 116.037,56.44L119.289,55.817C119.405,55.793 119.52,55.774 119.639,55.76L119.786,55.745L119.86,55.74C119.961,55.733 120.061,55.729 120.161,55.729C122.354,55.729 124.218,57.41 124.409,59.636C124.484,60.498 124.296,61.322 123.913,62.03L112.441,84.922L124.855,107.46C125.639,108.884 125.548,110.63 124.617,111.964C123.882,113.019 122.725,113.67 121.478,113.777C121.357,113.787 121.235,113.793 121.113,113.793C120.9,113.793 120.686,113.777 120.472,113.745L95.032,109.889L77.432,128.662C76.697,129.445 75.712,129.908 74.68,129.996C74.558,130.007 74.436,130.012 74.313,130.012ZM92.88,56.078C83.536,39.655 62.224,13.126 31.931,0C64.015,10.598 87.277,36.91 98.669,54.969L92.88,56.078Z" style="fill:rgb(14,18,19);"/>
    </g>
    <g transform="matrix(0.366887,0,0,0.366887,1.87852,-0.671471)">
        <path d="M116.482,111.002L104.068,88.465L115.532,65.589C115.864,64.982 116.052,64.286 116.052,63.545C116.052,61.218 114.195,59.326 111.881,59.274L111.778,59.273L111.558,59.278C111.33,59.29 111.106,59.319 110.889,59.366L92.88,62.815C82.656,44.846 58.101,14.776 23.134,3.403C22.697,3.261 22.252,3.193 21.813,3.193C20.26,3.193 18.784,4.043 18.03,5.48C17.679,6.149 16.987,7.576 15.04,12.229L15.017,12.285L14.448,13.652L14.411,13.743C14.011,14.707 13.593,15.722 13.16,16.78L13.107,16.909L13.071,16.998L12.824,17.602L12.422,18.59C10.838,22.484 8.968,27.144 6.865,32.435C5.516,35.832 4.271,38.988 3.269,41.527C2.405,43.724 1.732,45.441 1.34,46.439L1.076,47.113L1.045,47.194L0.962,47.405C0.1,49.567 1.127,52.022 3.272,52.925C4.548,53.463 6.008,54.047 7.699,54.723C18.046,58.865 36.461,66.236 48.933,78.306L34.091,85.995C32.647,86.743 31.753,88.246 31.785,89.872C31.816,91.498 32.768,92.964 34.24,93.656L57.532,104.592L61.727,129.98C61.993,131.584 63.146,132.899 64.701,133.371C65.11,133.495 65.528,133.556 65.942,133.556C67.105,133.556 68.239,133.08 69.059,132.205L86.66,113.433L112.1,117.288C112.314,117.32 112.529,117.336 112.741,117.336C114.124,117.336 115.439,116.663 116.245,115.507C117.175,114.173 117.267,112.427 116.482,111.002Z" style="fill:rgb(255,255,254);"/>
    </g>
    <g transform="matrix(0.262124,-0.256705,0.256705,0.262124,-14.3914,9.63335)">
        <path d="M35.278,42.843C27.263,46.401 20.581,49.41 20.581,49.41C25.143,60.281 38.649,86.865 35.278,110.486C38.003,111.783 41.949,113.639 46.158,115.61C51.983,91.276 42.148,57.423 35.278,42.843Z" style="fill:rgb(63,94,156);"/>
    </g>
    <g transform="matrix(0.366887,0,0,0.366887,1.87852,-17.0589)">
        <path d="M4.93,93.654L4.93,93.653L4.93,93.654ZM4.93,93.653C4.93,93.653 4.931,93.653 4.931,93.652C4.931,93.653 4.93,93.653 4.93,93.653ZM4.931,93.652L4.931,93.651L4.931,93.652ZM4.932,93.649C4.932,93.649 4.932,93.648 4.933,93.648C4.932,93.648 4.932,93.649 4.932,93.649ZM4.934,93.645L4.934,93.644L4.934,93.645ZM4.934,93.643L4.935,93.642L4.934,93.643ZM4.935,93.641C4.935,93.64 4.936,93.64 4.936,93.639C4.936,93.64 4.935,93.64 4.935,93.641ZM4.937,93.637C4.937,93.635 4.938,93.633 4.939,93.631C4.938,93.633 4.937,93.635 4.937,93.637ZM4.942,93.624C4.942,93.623 4.943,93.622 4.943,93.621C4.943,93.622 4.942,93.623 4.942,93.624ZM4.944,93.618C4.944,93.617 4.945,93.616 4.945,93.615C4.945,93.616 4.944,93.617 4.944,93.618ZM4.946,93.614L4.946,93.613L4.946,93.614ZM4.947,93.61C4.947,93.61 4.948,93.609 4.948,93.608C4.948,93.609 4.947,93.61 4.947,93.61ZM4.948,93.607C4.949,93.606 4.949,93.606 4.949,93.605C4.949,93.606 4.949,93.606 4.948,93.607ZM4.95,93.602L4.951,93.602L4.95,93.602ZM4.952,93.598L4.952,93.597L4.952,93.598ZM4.957,93.586C4.957,93.585 4.957,93.584 4.957,93.584C4.957,93.584 4.957,93.585 4.957,93.586ZM4.959,93.581C4.96,93.578 4.961,93.576 4.962,93.573C4.961,93.576 4.96,93.578 4.959,93.581ZM4.963,93.569L4.964,93.568L4.963,93.569ZM4.964,93.567C4.965,93.565 4.965,93.564 4.966,93.562C4.965,93.564 4.965,93.565 4.964,93.567ZM4.968,93.557C4.968,93.556 4.969,93.555 4.969,93.554C4.969,93.555 4.968,93.556 4.968,93.557ZM4.973,93.544C4.973,93.543 4.974,93.542 4.974,93.541C4.974,93.542 4.973,93.543 4.973,93.544ZM4.975,93.539C4.976,93.538 4.976,93.536 4.977,93.535C4.976,93.536 4.975,93.538 4.975,93.539ZM4.977,93.534C4.979,93.529 4.981,93.524 4.983,93.519C4.981,93.524 4.979,93.529 4.977,93.534ZM4.984,93.516C4.985,93.514 4.985,93.513 4.986,93.511C4.985,93.513 4.985,93.514 4.984,93.516ZM4.987,93.51C4.987,93.507 4.988,93.505 4.989,93.503C4.988,93.505 4.987,93.507 4.987,93.51ZM4.989,93.503C4.991,93.498 4.993,93.494 4.994,93.49C4.993,93.494 4.991,93.498 4.989,93.503ZM4.996,93.486C5.228,92.892 6.063,90.761 7.244,87.761C6.061,90.765 5.228,92.893 4.996,93.486Z" style="fill:rgb(185,185,180);"/>
    </g>
    <g transform="matrix(0.366887,0,0,0.366887,1.87852,-5.86513)">
        <path d="M55.919,93.654C41.234,76.31 15.247,67.488 4.93,63.144L4.93,63.143C4.93,63.143 4.931,63.143 4.931,63.142L4.931,63.141C4.931,63.14 4.932,63.14 4.932,63.139C4.932,63.139 4.932,63.138 4.933,63.138C4.933,63.137 4.933,63.136 4.934,63.135L4.934,63.133L4.935,63.132L4.935,63.131C4.935,63.13 4.936,63.13 4.936,63.129C4.936,63.128 4.936,63.128 4.937,63.127C4.937,63.125 4.938,63.123 4.939,63.121C4.939,63.12 4.94,63.12 4.94,63.119L4.945,63.105L4.946,63.104L4.946,63.103C4.946,63.102 4.947,63.101 4.947,63.1C4.947,63.1 4.948,63.099 4.948,63.098L4.948,63.097C4.949,63.096 4.949,63.096 4.949,63.095C4.95,63.094 4.95,63.093 4.95,63.092L4.951,63.092C4.951,63.09 4.951,63.089 4.952,63.088L4.952,63.087C4.954,63.084 4.955,63.08 4.957,63.076C4.957,63.075 4.957,63.074 4.957,63.074C4.958,63.073 4.958,63.072 4.959,63.071C4.96,63.068 4.961,63.066 4.962,63.063C4.962,63.062 4.963,63.061 4.963,63.059L4.964,63.058L4.964,63.057L4.969,63.044C4.97,63.041 4.972,63.037 4.973,63.034C4.973,63.033 4.974,63.032 4.974,63.031C4.974,63.031 4.975,63.03 4.975,63.029C4.975,63.028 4.976,63.026 4.977,63.025L4.977,63.024C4.979,63.019 4.981,63.014 4.983,63.009L4.986,63.001C4.986,63.001 4.986,63 4.987,63C4.987,62.997 4.988,62.995 4.989,62.993C4.991,62.988 4.993,62.984 4.994,62.98C4.995,62.978 4.995,62.977 4.996,62.976C5.228,62.383 6.061,60.255 7.244,57.251C18.166,61.838 46.312,71.381 60.398,90.57C60.589,90.504 60.786,90.437 60.988,90.367L60.899,91.075L55.919,93.654Z" style="fill:rgb(38,68,132);"/>
    </g>
    <g transform="matrix(-0.202984,0.305621,-0.305621,-0.202984,62.0297,17.241)">
        <path d="M57.797,47.924C47.35,65.121 34.049,104.906 44.189,141.284C46.003,141.095 51.392,140.063 57.797,138.765C54.707,124.97 50.987,83.014 67.719,55.392C62.193,51.227 57.797,47.924 57.797,47.924Z" style="fill:rgb(212,40,42);"/>
    </g>
    <g transform="matrix(0.366887,0,0,0.366887,1.87852,-40.5723)">
        <path d="M18.882,122.871C18.915,122.791 18.949,122.712 18.981,122.633C18.949,122.711 18.915,122.791 18.882,122.871Z" style="fill:rgb(185,185,180);"/>
    </g>
    <g transform="matrix(0.366887,0,0,0.366887,1.87852,-20.968)">
        <path d="M83.021,122.871L64.383,104.479L64.028,107.304C47.448,90.455 25.824,79.135 16.381,75.516C17.275,73.319 18.124,71.255 18.882,69.437C18.915,69.357 18.949,69.277 18.982,69.199C32.145,74.437 68.203,95.605 83.021,122.871Z" style="fill:rgb(154,37,40);"/>
    </g>
    <g transform="matrix(0.270924,-0.2474,0.2474,0.270924,-15.3835,4.99741)">
        <path d="M43.641,46.275C39.358,48.315 34.596,50.617 30.228,52.739C37.603,67.071 48.613,100.56 43.641,125.082C47.16,126.582 50.854,128.152 54.194,129.571C63.743,98.72 49.978,58.913 43.641,46.275Z" style="fill:rgb(86,178,83);"/>
    </g>
    <g transform="matrix(-0.233863,0.282691,-0.282691,-0.233863,49.0825,27.2875)">
        <path d="M36.404,56.423C33.047,78.527 38.148,104.936 42.595,117.681C40.585,118.331 38.495,119.003 36.404,119.674C32.098,107.144 27.25,82 30.082,60.442L36.404,56.423Z" style="fill:rgb(59,139,66);"/>
    </g>
    <g transform="matrix(0.366887,0,0,0.366887,1.87852,14.6248)">
        <path d="M64.383,7.466L84.298,27.118L111.778,21.853L99.242,46.867L112.74,71.372L85.079,67.18L65.942,87.591L61.38,59.987L36.056,48.096L60.899,35.227L64.383,7.466Z" style="fill:rgb(248,196,46);"/>
    </g>
    <g transform="matrix(0.366887,0,0,0.366887,1.87852,28.0841)">
        <path d="M65.942,50.906L61.38,23.302L36.056,11.411L43.672,7.466L68.763,19.246L72.787,43.605L65.942,50.906Z" style="fill:rgb(179,144,52);"/>
    </g>
    <g transform="matrix(-0.362745,-0.0549737,0.0549737,-0.362745,72.5008,54.821)">
        <path d="M84.572,25.807L112.549,25.807L109.484,30.973L88.493,30.924L84.572,25.807Z" style="fill:rgb(179,144,52);"/>
    </g>
    <g transform="matrix(0.366887,0,0,0.366887,1.87852,13.0213)">
        <path d="M67.277,53.905C66.898,54.045 66.456,53.947 66.176,53.621C65.818,53.207 65.865,52.58 66.281,52.22L71.243,47.946L64.428,47.447C63.88,47.407 63.468,46.93 63.508,46.383C63.549,45.837 64.026,45.425 64.572,45.464L73.785,46.139C74.186,46.169 74.529,46.436 74.655,46.819C74.782,47.2 74.665,47.621 74.361,47.884L67.579,53.726C67.486,53.806 67.385,53.864 67.277,53.905Z" style="fill:rgb(22,23,21);"/>
    </g>
    <g transform="matrix(0.366887,0,0,0.366887,1.87852,6.51727)">
        <path d="M91.084,62.756C90.977,62.796 90.86,62.817 90.739,62.817L81.786,62.842C81.385,62.843 81.022,62.602 80.867,62.23C80.712,61.859 80.796,61.431 81.08,61.146L87.602,54.605C87.992,54.216 88.621,54.216 89.008,54.602C89.398,54.99 89.398,55.62 89.01,56.008L84.184,60.848L90.735,60.831C91.283,60.829 91.729,61.273 91.731,61.822C91.733,62.25 91.462,62.615 91.084,62.756Z" style="fill:rgb(22,23,21);"/>
    </g>
    <g transform="matrix(0.366887,0,0,0.366887,1.87852,15.7256)">
        <path d="M82.874,49.697C85.978,48.54 87.557,45.086 86.4,41.981L75.159,46.172C76.316,49.276 79.771,50.854 82.874,49.697Z" style="fill:rgb(24,25,23);"/>
    </g>
</svg>
