<svg xmlns="http://www.w3.org/2000/svg" width="50" height="50" viewBox="0 0 50 50">
  <g fill="none" fill-rule="evenodd">
    <g transform="translate(3 .5)">
      <path fill="#F7EE6D" d="M32.8313881,32.6063768 C32.8313881,38.4727734 28.0758895,43.2279943 22.2096317,43.2279943 C16.3433739,43.2279943 11.5878754,38.4727734 11.5878754,32.6063768 C11.5878754,26.740119 16.3433739,21.9846204 22.2096317,21.9846204 C28.0758895,21.9846204 32.8313881,26.740119 32.8313881,32.6063768"/>
      <path fill="#409ECC" d="M6.93454108,17.9321955 C6.93454108,17.9321955 6.91649575,17.9321955 6.91649575,17.9502408 C6.91649575,17.9684249 6.93454108,17.9684249 6.93454108,17.9684249 C6.93454108,17.9684249 6.95244759,17.9684249 6.95244759,17.9502408 C6.95244759,17.9321955 6.93454108,17.9321955 6.93454108,17.9321955 Z M6.98867705,16.3615581 L7.02476771,16.3615581 C7.00672238,16.3435127 6.98867705,16.3253286 6.95244759,16.3253286 L6.91649575,16.3253286 C6.93454108,16.3435127 6.95244759,16.3615581 6.98867705,16.3615581 Z M6.91649575,15.8740567 C6.97063173,15.8740567 7.02476771,15.8560113 7.02476771,15.7836912 L6.91649575,15.7836912 L6.91649575,15.8740567 Z M6.91649575,14.7727365 L6.98867705,14.7727365 L6.98867705,14.6643258 L6.91649575,14.6643258 L6.91649575,14.7727365 Z M6.98867705,16.9753768 L7.02476771,16.9392861 L7.04281303,16.8308754 L6.89831161,16.8308754 C6.89831161,16.8851501 6.91649575,16.9753768 6.98867705,16.9753768 Z M6.95244759,17.4809235 L7.02476771,17.4266487 L6.93454108,17.3364221 L6.88026629,17.3906969 L6.95244759,17.4809235 Z M6.71785836,14.9892805 C6.71785836,14.9892805 6.71785836,15.0074646 6.73590368,15.0074646 C6.75394901,15.0074646 6.75394901,14.9892805 6.75394901,14.9892805 C6.75394901,14.9892805 6.75394901,14.9712351 6.73590368,14.9712351 C6.71785836,14.9712351 6.71785836,14.9892805 6.71785836,14.9892805 Z M6.69981303,14.4476431 C6.73590368,14.4476431 6.77199433,14.4115524 6.77199433,14.3754618 L6.69981303,14.3754618 L6.69981303,14.4476431 Z M6.68176771,15.5128725 C6.68176771,15.5128725 6.68176771,15.5310567 6.69981303,15.5310567 C6.71785836,15.5310567 6.71785836,15.5128725 6.71785836,15.5128725 C6.71785836,15.5128725 6.71785836,15.4948272 6.69981303,15.4948272 C6.68176771,15.4948272 6.68176771,15.5128725 6.68176771,15.5128725 Z M6.68176771,14.9533286 C6.68176771,14.9533286 6.68176771,14.9712351 6.69981303,14.9712351 C6.71785836,14.9712351 6.71785836,14.9533286 6.71785836,14.9533286 C6.71785836,14.9533286 6.71785836,14.9351445 6.69981303,14.9351445 C6.68176771,14.9351445 6.68176771,14.9533286 6.68176771,14.9533286 Z M6.66358357,17.1919207 L6.73590368,17.1919207 L6.73590368,17.1197394 C6.69981303,17.1197394 6.66358357,17.1559688 6.66358357,17.1919207 Z M6.79003966,16.6683286 L6.71785836,16.5420113 L6.66358357,16.5961473 L6.79003966,16.6683286 Z M6.73590368,16.1087847 L6.77199433,16.0364646 L6.71785836,16.0003739 L6.66358357,16.0546487 L6.73590368,16.1087847 Z M6.80808499,17.7878329 C6.80808499,17.7155127 6.79003966,17.5891955 6.69981303,17.5891955 L6.62763173,17.7155127 L6.80808499,17.7878329 Z M6.60944759,18.8711076 C6.66358357,18.8711076 6.77199433,18.8711076 6.77199433,18.7989263 L6.71785836,18.7446516 C6.64553824,18.7446516 6.60944759,18.7989263 6.60944759,18.8711076 Z M6.66358357,18.3114249 L6.73590368,18.2391048 L6.66358357,18.1669235 L6.59140227,18.2391048 L6.66358357,18.3114249 Z M6.41094901,16.8671048 L6.44703966,16.8671048 L6.44703966,16.8308754 L6.41094901,16.8308754 L6.41094901,16.8671048 Z M6.39290368,23.9443428 C6.39290368,23.9443428 6.39290368,23.9625269 6.41094901,23.9625269 C6.42885552,23.9625269 6.42885552,23.9443428 6.42885552,23.9443428 C6.42885552,23.9443428 6.42885552,23.9264363 6.41094901,23.9264363 C6.39290368,23.9264363 6.39290368,23.9443428 6.39290368,23.9443428 Z M6.39290368,23.3666147 C6.39290368,23.3666147 6.39290368,23.3847989 6.41094901,23.3847989 C6.42885552,23.3847989 6.42885552,23.3666147 6.42885552,23.3666147 C6.42885552,23.3666147 6.42885552,23.3485694 6.41094901,23.3485694 C6.39290368,23.3485694 6.39290368,23.3666147 6.39290368,23.3666147 Z M6.44703966,18.5641983 C6.51922096,18.5641983 6.53726629,18.4557875 6.53726629,18.4016516 C6.48313031,18.4016516 6.37471955,18.4196969 6.37471955,18.4918782 L6.44703966,18.5641983 Z M6.57335694,18.0586516 C6.57335694,18.0043768 6.55531161,17.8780595 6.48313031,17.8780595 L6.37471955,17.9502408 C6.37471955,18.0406062 6.50117564,18.0586516 6.57335694,18.0586516 Z M6.41094901,20.1891105 C6.44703966,20.1710652 6.46508499,20.1167904 6.46508499,20.0806997 L6.3386289,20.1167904 L6.41094901,20.1891105 Z M6.37471955,17.5170142 L6.39290368,17.5170142 L6.48313031,17.4628782 L6.41094901,17.3725127 L6.3386289,17.4448329 L6.37471955,17.5170142 Z M6.17622096,22.5723428 C6.17622096,22.5723428 6.17622096,22.5903881 6.19426629,22.5903881 C6.21231161,22.5903881 6.21231161,22.5723428 6.21231161,22.5723428 C6.21231161,22.5723428 6.21231161,22.5541586 6.19426629,22.5541586 C6.17622096,22.5541586 6.17622096,22.5723428 6.17622096,22.5723428 Z M6.1399915,21.9946147 C6.1399915,21.9946147 6.1399915,22.0125212 6.15817564,22.0125212 C6.17622096,22.0125212 6.17622096,21.9946147 6.17622096,21.9946147 C6.17622096,21.9946147 6.17622096,21.9764306 6.15817564,21.9764306 C6.1399915,21.9764306 6.1399915,21.9946147 6.1399915,21.9946147 Z M3.95553541,18.2753343 C3.99162606,18.2753343 4.00967139,18.2753343 4.02771671,18.2391048 L3.95553541,18.2391048 L3.95553541,18.2753343 Z M3.16098584,19.069745 C3.1972153,19.069745 3.21526062,19.069745 3.23330595,19.0336544 L3.16098584,18.9974249 L3.16098584,19.069745 Z M3.17916997,24.5222096 L3.23330595,24.4679348 L3.17916997,24.4137989 L3.12489518,24.4679348 L3.17916997,24.5222096 Z M3.72080737,24.2333456 C5.30949008,24.2333456 6.01367422,20.2432465 6.01367422,19.0336544 L6.01367422,18.3475156 C5.83308215,18.1488782 5.59849292,18.1308329 5.34571955,18.1308329 C3.37766856,18.1308329 2.90835127,20.9474306 2.90835127,22.4458867 C2.90835127,22.9875241 2.94444193,24.2333456 3.72080737,24.2333456 Z M2.87212181,20.4056544 L2.90835127,20.4056544 L2.87212181,20.3697025 L2.87212181,20.4056544 Z M2.87212181,19.9002465 L2.94444193,19.9002465 C2.94444193,19.864017 2.94444193,19.8461105 2.90835127,19.8279263 C2.87212181,19.8461105 2.87212181,19.864017 2.87212181,19.9002465 Z M2.87212181,19.3586091 L2.90835127,19.3586091 C2.9263966,19.3586091 2.96248725,19.3404249 2.98053258,19.3225184 L2.96248725,19.3225184 C2.94444193,19.3225184 2.90835127,19.3586091 2.87212181,19.3586091 Z M2.94444193,24.2513909 L2.94444193,24.1068895 L2.83603116,24.1611643 L2.94444193,24.2513909 Z M2.61948725,20.2252011 L2.69166856,20.2252011 L2.69166856,20.1167904 L2.61948725,20.1167904 L2.61948725,20.2252011 Z M2.58325779,23.9443428 C2.60144193,23.9443428 2.63739377,23.9264363 2.6555779,23.9082521 L2.61948725,23.8721615 C2.60144193,23.8902068 2.58325779,23.9264363 2.58325779,23.9443428 Z M2.58325779,23.4028442 L2.6555779,23.4028442 C2.6555779,23.3666147 2.6555779,23.3485694 2.61948725,23.3305241 C2.58325779,23.3485694 2.58325779,23.3666147 2.58325779,23.4028442 Z M2.60144193,22.8612068 L2.67362323,22.7347507 L2.54716714,22.7888867 L2.60144193,22.8612068 Z M2.54716714,22.3194306 L2.6555779,22.3194306 L2.6555779,22.2111586 L2.54716714,22.2111586 L2.54716714,22.3194306 Z M2.60144193,21.886204 L2.72775921,21.7598867 L2.61948725,21.7057507 L2.51107649,21.832068 L2.60144193,21.886204 Z M2.61948725,21.2722465 L2.69166856,21.2000652 L2.58325779,21.0917932 L2.51107649,21.1639745 L2.61948725,21.2722465 Z M2.34852975,23.6375722 C2.34852975,23.6375722 2.34852975,23.6554788 2.36671388,23.6554788 C2.38475921,23.6554788 2.38475921,23.6375722 2.38475921,23.6375722 C2.38475921,23.6375722 2.38475921,23.6193881 2.36671388,23.6193881 C2.34852975,23.6193881 2.34852975,23.6375722 2.34852975,23.6375722 Z M2.38475921,21.5612493 L2.43889518,21.489068 L2.38475921,21.4167479 L2.33062323,21.489068 L2.38475921,21.5612493 Z M2.33062323,20.9833824 C2.38475921,20.9833824 2.40280453,20.9654759 2.40280453,20.9112011 C2.34852975,20.9112011 2.33062323,20.9292465 2.33062323,20.9833824 Z M2.36671388,22.6806147 L2.43889518,22.5903881 L2.38475921,22.5000227 L2.29439377,22.6264788 L2.36671388,22.6806147 Z M2.36671388,22.066796 L2.43889518,21.9946147 L2.36671388,21.9222946 L2.29439377,22.0125212 L2.36671388,22.066796 Z M2.07784986,23.4028442 L2.15003116,23.4028442 L2.15003116,23.3305241 L2.07784986,23.3305241 L2.07784986,23.4028442 Z M2.0416204,22.8972975 L2.07784986,22.9333881 C2.15003116,22.9333881 2.16807649,22.8430227 2.16807649,22.7888867 L2.02357507,22.7888867 L2.0416204,22.8972975 Z M2.09589518,21.2722465 L2.11394051,21.2722465 L2.18612181,21.2000652 L2.18612181,21.1821586 L2.02357507,21.1098385 C2.02357507,21.1639745 2.02357507,21.2722465 2.09589518,21.2722465 Z M2.09589518,22.3917507 L2.18612181,22.3015241 L2.11394051,22.2111586 L2.00552975,22.3015241 L2.09589518,22.3917507 Z M2.07784986,21.777932 L2.15003116,21.7236572 L2.07784986,21.6695212 C2.0416204,21.6695212 2.00552975,21.7057507 2.00552975,21.7417025 L2.07784986,21.777932 Z M5.76090085,22.5361133 C5.43594618,22.752796 4.91235411,24.774983 3.37766856,24.774983 C2.11394051,24.774983 1.60839377,23.2402975 1.60839377,22.1931133 C1.60839377,20.3697025 2.96248725,17.6252861 5.05685552,17.6252861 C5.3818102,17.6252861 5.68871955,17.6976062 6.01367422,17.6976062 C6.35667422,17.4086034 6.37471955,14.5380085 6.44703966,13.9061445 L6.59140227,13.7255524 C6.91649575,13.7255524 7.45813314,13.6172805 7.45813314,14.1226884 C7.45813314,14.9712351 7.25949575,15.7836912 7.25949575,16.6323768 C7.25949575,18.7626969 6.95244759,20.9292465 6.95244759,23.0777507 C6.95244759,23.4569802 6.77199433,25.063847 7.47603966,25.063847 C8.70381586,25.063847 9.15522663,21.7417025 9.58845326,20.9474306 C9.62454391,20.8751105 9.69686402,20.8390198 9.76904533,20.8390198 L9.94963739,20.9112011 C9.8231813,21.2000652 8.50517847,25.6776657 7.38581303,25.6776657 C5.83308215,25.6776657 5.83308215,23.7999802 5.83308215,22.6082946 L5.76090085,22.5361133 Z"/>
      <path fill="#409ECC" d="M13.9212748 18.889153L13.9573654 18.889153 13.9573654 18.8530623 13.9212748 18.8530623 13.9212748 18.889153zM13.6685014 18.6724703L13.7406827 18.6724703 13.7406827 18.600289 13.6685014 18.600289 13.6685014 18.6724703zM13.6865467 19.2141076L13.7767734 19.1419263 13.7045921 19.1058357 13.632272 19.1599717 13.6865467 19.2141076zM13.6503173 19.8279263L13.7767734 19.7376997 13.6685014 19.6113824 13.5600907 19.7196544 13.6503173 19.8279263zM13.4155892 18.3836062C13.4518187 18.3836062 13.469864 18.3836062 13.4879093 18.3475156L13.4155892 18.3475156 13.4155892 18.3836062zM13.4337734 19.5390623L13.524 19.4488357 13.4337734 19.3586091 13.3796374 19.4488357 13.4337734 19.5390623zM13.4155892 20.0446091L13.524 19.9543824 13.4155892 19.864017 13.3073173 19.9543824 13.4155892 20.0446091zM13.181 20.3334731L13.2712266 20.2432465 13.1629547 20.1530198 13.0907734 20.2432465 13.181 20.3334731zM10.4547677 21.9583853L10.5449943 21.7958385 10.4908584 21.7958385C10.4547677 21.7958385 10.3463569 21.7958385 10.3463569 21.8681586L10.4547677 21.9583853zM10.183949 22.120932C10.183949 22.120932 10.1657649 22.120932 10.1657649 22.1389773 10.1657649 22.1570227 10.183949 22.1570227 10.183949 22.1570227 10.183949 22.1570227 10.2019943 22.1570227 10.2019943 22.1389773 10.2019943 22.120932 10.183949 22.120932 10.183949 22.120932zM10.2019943 21.1278839L10.2019943 21.0557025 10.1657649 21.0917932 10.2019943 21.1278839zM10.1657649 20.5501558C10.2019943 20.5501558 10.2200397 20.5501558 10.238085 20.5140652L10.1657649 20.5140652 10.1657649 20.5501558zM10.2019943 21.6334306L10.2019943 21.5612493C10.1657649 21.5612493 10.1477195 21.5612493 10.129813 21.5973399 10.1477195 21.6334306 10.1657649 21.6334306 10.2019943 21.6334306zM10.183949 18.9613343L10.238085 18.889153C10.238085 18.8530623 10.2019943 18.8169717 10.1657649 18.8169717L10.129813 18.889153 10.183949 18.9613343zM10.2019943 18.4557875C10.238085 18.4557875 10.2741756 18.4196969 10.2741756 18.3836062 10.2741756 18.3475156 10.238085 18.3114249 10.2019943 18.3114249L10.129813 18.3836062 10.2019943 18.4557875zM10.1477195 20.0446091L10.238085 19.9724278 10.1477195 19.9002465 10.0574929 19.9724278 10.1477195 20.0446091zM9.91313031 22.463932L9.98531161 22.463932 9.91313031 22.4278414 9.91313031 22.463932zM9.85885552 24.5222096C9.85885552 24.5222096 9.85885552 24.540255 9.87690085 24.540255 9.89508499 24.540255 9.89508499 24.5222096 9.89508499 24.5222096 9.89508499 24.5222096 9.89508499 24.5041643 9.87690085 24.5041643 9.85885552 24.5041643 9.85885552 24.5222096 9.85885552 24.5222096zM9.91313031 21.4167479L9.94922096 21.3445666 9.85885552 21.3084759C9.85885552 21.3445666 9.87690085 21.3987025 9.91313031 21.4167479zM9.91313031 20.8390198L10.0033569 20.7307479 9.85885552 20.7307479 9.91313031 20.8390198zM9.91313031 20.2973824L9.98531161 20.2252011 9.91313031 20.1530198 9.84094901 20.2252011 9.91313031 20.2973824zM9.91313031 19.2141076L9.98531161 19.1599717 9.91313031 19.069745 9.84094901 19.1419263 9.91313031 19.2141076zM9.85885552 23.5832975L9.91313031 23.5111161 9.85885552 23.4389348 9.80471955 23.5111161 9.85885552 23.5832975zM9.87690085 19.864017L9.98531161 19.7196544 9.87690085 19.6113824 9.80471955 19.7376997 9.87690085 19.864017zM9.80471955 18.7446516C9.87690085 18.7446516 10.0214023 18.7266062 10.0214023 18.6363796L9.91313031 18.5279688C9.82276487 18.5279688 9.80471955 18.6724703 9.80471955 18.7446516zM9.62412748 22.175068L9.66035694 22.175068 9.66035694 22.1389773 9.62412748 22.175068zM9.66035694 20.5862465L9.7686289 20.5140652 9.69644759 20.4779745 9.62412748 20.5321105 9.66035694 20.5862465zM9.60622096 21.6695212L9.75058357 21.6695212C9.73253824 21.6153853 9.71449292 21.5612493 9.66035694 21.5251586L9.60622096 21.6695212zM9.64231161 21.1639745L9.66035694 21.1639745 9.73253824 21.0917932 9.73253824 21.0737479 9.66035694 21.0196119 9.58803683 21.0917932C9.58803683 21.1278839 9.60622096 21.1639745 9.64231161 21.1639745zM9.67840227 20.0806997L9.7686289 19.9724278 9.67840227 19.9002465 9.58803683 20.0085184 9.67840227 20.0806997zM9.64231161 19.5029717C9.66035694 19.5029717 9.67840227 19.4849263 9.69644759 19.466881 9.67840227 19.4488357 9.66035694 19.4307904 9.64231161 19.4307904 9.62412748 19.4307904 9.60622096 19.4488357 9.58803683 19.466881 9.60622096 19.4849263 9.62412748 19.5029717 9.64231161 19.5029717zM9.66035694 19.0336544L9.7686289 18.9252436 9.67840227 18.8169717 9.58803683 18.9252436 9.66035694 19.0336544zM9.75058357 18.4377422L9.67840227 18.2753343 9.58803683 18.3655609 9.75058357 18.4377422zM9.64231161 23.8721615L9.7686289 23.7999802 9.66035694 23.6917082 9.55194618 23.7999802 9.64231161 23.8721615zM9.66035694 22.752796L9.7686289 22.6625694 9.66035694 22.5723428 9.55194618 22.6806147 9.66035694 22.752796zM9.62412748 24.4500283L9.7686289 24.3055269 9.62412748 24.2333456 9.51585552 24.3235722 9.62412748 24.4500283zM9.37149292 24.0527535L9.40758357 24.0527535 9.40758357 24.0166629 9.37149292 24.0166629 9.37149292 24.0527535zM9.19090085 23.6917082C9.2269915 22.9333881 9.35344759 18.3655609 9.47976487 17.9502408L9.55194618 17.8780595 10.2019943 17.8780595C10.9964051 17.8780595 10.3824476 20.4056544 10.635221 20.8751105 10.6534051 20.8932946 10.6893569 20.8570652 10.7075411 20.8390198 11.212949 19.3586091 11.5560878 18.546153 12.946272 17.6976062L13.4155892 17.6976062C13.9391813 17.9864703 14.2823201 18.257289 14.2823201 18.9071983L14.2823201 19.1058357C13.867 19.7918357 13.7406827 20.6585666 12.7476346 20.6585666 12.6031331 20.6585666 12.3324533 20.6403824 12.3324533 20.4418839 12.3324533 19.8461105 13.1990453 19.466881 13.1990453 18.7626969 13.1990453 18.5641983 13.1267252 18.3475156 12.8919972 18.3475156 11.2311331 18.3475156 10.3645411 23.4028442 10.2019943 24.7026629L10.0214023 24.883255C9.84094901 24.883255 9.11871955 24.8110737 9.11871955 24.5943909L9.11871955 23.8360708 9.19090085 23.6917082zM19.0304618 19.2501983L19.1027819 19.2501983 19.1027819 19.178017 19.0304618 19.178017 19.0304618 19.2501983zM18.8319632 20.1167904L18.9041445 20.0085184 18.7596431 20.0085184 18.8319632 20.1167904zM17.0264589 24.6846176C17.0264589 24.6304816 17.0084136 24.5583003 16.9362323 24.5583003L16.9001416 24.6124363C16.9001416 24.6665722 16.9903683 24.6846176 17.0264589 24.6846176zM16.8820963 18.1669235L16.9903683 18.1669235 16.9362323 18.0586516 16.8820963 18.1669235zM16.6654136 18.4918782L16.7556402 18.4016516 16.6833201 18.3114249 16.6111388 18.4016516 16.6654136 18.4918782zM16.6654136 24.486119L16.7917309 24.3777082 16.6833201 24.3055269 16.5750482 24.3957535 16.6654136 24.486119zM16.3585042 24.1249348C16.3765496 24.1249348 16.4126402 24.1068895 16.4306856 24.0888442L16.3944561 24.0527535C16.3765496 24.0707989 16.3585042 24.1068895 16.3585042 24.1249348zM16.3403201 18.7085609L16.4487309 18.7085609 16.3944561 18.600289 16.3403201 18.7085609zM16.3403201 19.2141076L16.3944561 19.1419263 16.3585042 19.069745C16.3222748 19.069745 16.2861841 19.1058357 16.2861841 19.1419263L16.3403201 19.2141076zM16.1779122 21.5251586L16.2500935 21.5973399C17.495915 21.5973399 18.7776884 20.2793371 18.7776884 19.0336544 18.7776884 18.5279688 18.470779 18.0947422 17.9291416 18.0947422 16.5389575 18.0947422 16.1779122 20.2973824 16.1779122 21.3445666L16.1779122 21.5251586zM16.0696402 23.2944334L16.1418215 23.2944334C16.1418215 23.2583428 16.1237762 23.2222521 16.0875467 23.2222521L16.0696402 23.2222521 16.0696402 23.2944334zM16.1055921 19.5029717C16.1418215 19.4849263 16.1418215 19.466881 16.1418215 19.4307904L16.0696402 19.4307904C16.0696402 19.466881 16.0696402 19.4849263 16.1055921 19.5029717zM16.0696402 18.9613343L16.1779122 18.9613343 16.1779122 18.889153 16.0696402 18.889153 16.0696402 18.9613343zM16.0875467 23.9082521L16.1779122 23.8180255 16.0875467 23.7638895 15.9973201 23.8360708 16.0875467 23.9082521zM15.8529575 19.7918357L15.9251388 19.7918357 15.9251388 19.7196544C15.8890482 19.7196544 15.8529575 19.755745 15.8529575 19.7918357zM15.816728 22.518068L15.9251388 22.4458867 15.8529575 22.3917507 15.816728 22.3917507 15.816728 22.518068zM15.816728 21.9403399C15.8529575 21.9222946 15.8890482 21.886204 15.8890482 21.8501133L15.8710028 21.8501133C15.8349122 21.8501133 15.816728 21.9042493 15.816728 21.9403399zM15.8349122 23.6193881L15.9251388 23.5472068 15.8529575 23.5111161 15.7807762 23.5652521 15.8349122 23.6193881zM15.8710028 19.2501983L15.9612295 19.1960623 15.8529575 19.1058357 15.7807762 19.178017 15.8710028 19.2501983zM15.6182295 21.1639745L15.6723654 21.0917932 15.6362748 21.0196119C15.6001841 21.0196119 15.5640935 21.0557025 15.5640935 21.0917932L15.6182295 21.1639745zM15.6001841 23.3305241L15.6723654 23.2763881 15.6001841 23.2222521C15.5640935 23.2222521 15.527864 23.2583428 15.527864 23.2944334L15.6001841 23.3305241zM15.5821388 22.7888867L15.6362748 22.7167054 15.6001841 22.6445241 15.527864 22.752796 15.5821388 22.7888867zM15.5640935 22.2472493L15.6362748 22.1570227 15.5460482 22.066796 15.4917734 22.1570227 15.5640935 22.2472493zM15.5460482 20.6585666L15.6362748 20.5501558 15.6362748 20.5140652C15.6362748 20.4779745 15.6182295 20.4418839 15.5821388 20.4418839L15.5640935 20.4418839 15.4917734 20.5682011 15.5460482 20.6585666zM15.239 20.3334731L15.3113201 20.4056544 15.4195921 20.2973824 15.3474108 20.2252011 15.3293654 20.2252011 15.239 20.3154278 15.239 20.3334731zM15.2209547 22.5541586C15.2750907 22.5541586 15.3835014 22.5361133 15.3835014 22.463932L15.3113201 22.3917507C15.239 22.3917507 15.2209547 22.5000227 15.2209547 22.5541586zM15.2209547 21.4347932L15.3474108 21.3626119 15.2932748 21.3084759 15.2209547 21.4347932zM15.3293654 21.9946147L15.4195921 21.9222946 15.3113201 21.777932 15.2029093 21.9042493 15.3293654 21.9946147zM16.6473683 17.9141501C16.9723229 17.7517422 17.3514136 17.7336969 17.6583229 17.5531048 18.2540963 17.5531048 19.7166006 17.7878329 19.7166006 18.5641983L19.7166006 19.6113824C19.7166006 21.1098385 16.7375949 21.3084759 16.2140028 22.1028867 16.2140028 23.095796 16.5750482 24.3416176 17.784779 24.3416176 19.4999178 24.3416176 20.5831926 22.3737054 21.3415127 21.0917932L21.4497847 21.0196119 21.6664674 21.1459292 21.6664674 21.1639745C20.7457394 22.6986601 19.6083286 24.5943909 17.6945524 24.9193456L17.6583229 24.9554363 17.0805949 24.9554363C15.5821388 23.9264363 14.841864 23.6375722 14.841864 21.5973399 14.841864 20.3334731 15.4556827 18.5279688 16.6473683 17.9141501z"/>
      <path fill="#409ECC" d="M25.8186969,19.9724278 L25.9269688,19.9724278 C25.9090623,19.9543824 25.891017,19.9363371 25.8547875,19.9363371 L25.8186969,19.9363371 L25.8186969,19.9724278 Z M25.5659235,23.5111161 L25.6923796,23.5111161 C25.6923796,23.4569802 25.6561501,23.4028442 25.6020142,23.4028442 L25.5659235,23.4028442 L25.5659235,23.5111161 Z M25.5659235,22.4278414 L25.6381048,22.4278414 C25.6381048,22.3917507 25.6381048,22.3737054 25.6020142,22.3556601 C25.5659235,22.3737054 25.5659235,22.3917507 25.5659235,22.4278414 Z M25.3492408,22.752796 L25.3854703,22.7167054 L25.3492408,22.6445241 C25.3311955,22.6625694 25.3131501,22.6806147 25.3131501,22.6986601 C25.3131501,22.7167054 25.3311955,22.7347507 25.3492408,22.752796 Z M25.3311955,21.0376572 C25.3311955,21.0376572 25.3131501,21.0376572 25.3131501,21.0557025 C25.3131501,21.0737479 25.3311955,21.0737479 25.3311955,21.0737479 C25.3311955,21.0737479 25.3492408,21.0737479 25.3492408,21.0557025 C25.3492408,21.0376572 25.3311955,21.0376572 25.3311955,21.0376572 Z M25.3492408,17.8058782 L25.3492408,17.7697875 L25.3131501,17.7697875 L25.3492408,17.8058782 Z M25.3492408,24.3416176 L25.3492408,24.2333456 L25.2951048,24.2333456 C25.2951048,24.2694363 25.3131501,24.3235722 25.3492408,24.3416176 Z M25.259153,23.2222521 C25.259153,23.2222521 25.259153,23.2402975 25.2770595,23.2402975 C25.2951048,23.2402975 25.2951048,23.2222521 25.2951048,23.2222521 C25.2951048,23.2222521 25.2951048,23.2042068 25.2770595,23.2042068 C25.259153,23.2042068 25.259153,23.2222521 25.259153,23.2222521 Z M23.6522861,18.2753343 L23.634102,18.4016516 C23.688238,18.4016516 23.7605581,18.3836062 23.7605581,18.3114249 C23.7605581,18.2753343 23.7243286,18.2391048 23.688238,18.2391048 L23.6522861,18.2753343 Z M22.8036006,19.1960623 C22.8577365,19.1960623 22.9660085,19.178017 22.9660085,19.1058357 L22.893966,19.0336544 C22.8216459,19.0336544 22.8036006,19.1419263 22.8036006,19.1960623 Z M22.5688725,19.521017 C22.6230085,19.521017 22.7133739,19.5029717 22.7133739,19.4307904 L22.6230085,19.3586091 L22.5688725,19.3586091 L22.5688725,19.521017 Z M22.3521898,20.2252011 L22.3521898,20.1891105 L22.3160992,20.1891105 L22.3521898,20.2252011 Z M22.3521898,19.755745 C22.3882805,19.755745 22.4245099,19.7376997 22.4245099,19.7016091 L22.4245099,19.6835637 L22.3521898,19.6113824 L22.3341445,19.6113824 L22.2800085,19.6835637 L22.3521898,19.755745 Z M21.8105524,20.2252011 L21.8466431,20.2252011 L21.8105524,20.1891105 L21.8105524,20.2252011 Z M21.7744618,23.9805722 L21.8105524,23.9805722 L21.8105524,23.9443428 L21.7744618,23.9805722 Z M21.7925071,23.5472068 L21.8466431,23.4750255 L21.7925071,23.4028442 L21.7383711,23.4569802 L21.7925071,23.5472068 Z M21.8285977,22.463932 L21.9189632,22.409796 L21.8285977,22.3194306 L21.7383711,22.3917507 L21.8285977,22.463932 Z M21.7925071,21.3806572 L21.8828725,21.3265212 L21.8105524,21.2362946 L21.7383711,21.3265212 L21.7925071,21.3806572 Z M21.8285977,20.8390198 L21.9550538,20.7487932 L21.8466431,20.6585666 L21.7383711,20.7668385 L21.8285977,20.8390198 Z M21.7203258,22.9694788 L21.8648272,22.9694788 L21.7925071,22.8612068 L21.7203258,22.9694788 Z M21.7925071,21.9222946 L21.8466431,21.8140227 L21.7203258,21.8140227 L21.7925071,21.9222946 Z M21.5759632,23.8360708 L21.6300992,23.7458442 L21.5397337,23.6554788 L21.4855977,23.7458442 L21.5759632,23.8360708 Z M21.5216884,23.2944334 C21.6300992,23.2944334 21.6661898,23.2222521 21.6661898,23.1318867 L21.6300992,23.1318867 C21.5759632,23.1318867 21.4495071,23.1318867 21.4495071,23.2222521 L21.5216884,23.2944334 Z M21.5216884,22.7888867 L21.6300992,22.6806147 L21.5216884,22.5723428 L21.4495071,22.6806147 L21.5216884,22.7888867 Z M21.5397337,22.2111586 L21.6300992,22.1389773 L21.5216884,22.0305666 L21.4495071,22.120932 L21.5397337,22.2111586 Z M21.5759632,21.6514759 L21.6481445,21.6514759 C21.6481445,21.5612493 21.6481445,21.489068 21.5397337,21.489068 L21.4495071,21.5612493 C21.4495071,21.6334306 21.5216884,21.6514759 21.5759632,21.6514759 Z M21.5397337,21.1278839 L21.6300992,21.0557025 L21.5397337,20.9474306 L21.4495071,21.0557025 L21.5397337,21.1278839 Z M21.214779,23.0236147 L21.3773258,22.9514334 L21.2870992,22.8612068 L21.214779,23.0236147 Z M21.3050057,22.5723428 L21.3773258,22.409796 L21.268915,22.3194306 L21.1967337,22.4278414 L21.3050057,22.5723428 Z M21.2508697,21.9222946 L21.3412351,21.832068 L21.2508697,21.777932 L21.1967337,21.8501133 L21.2508697,21.9222946 Z M24.6993314,22.463932 C24.3020567,23.2944334 23.7605581,24.7388924 22.659238,24.7388924 C21.3773258,24.7388924 20.8356884,23.1318867 20.8356884,22.066796 C20.8356884,19.7016091 23.1285552,17.5531048 25.4575127,17.5531048 C25.891017,17.5531048 26.9019717,17.6072408 26.9019717,18.2211983 L26.7394249,18.4557875 C26.3603343,18.4377422 26.0173343,18.2391048 25.6381048,18.2391048 C23.3091473,18.2391048 22.2078272,20.4418839 22.2078272,22.518068 C22.2078272,23.0236147 22.1536912,24.1971161 22.9118725,24.1971161 C24.4103286,24.1971161 24.6993314,19.2501983 25.4575127,18.9252436 C25.999289,18.9252436 26.3242436,18.9793796 26.3242436,19.6294278 C26.3242436,20.6223371 25.9631983,21.6514759 25.9631983,22.6445241 L25.9631983,24.0888442 C25.9631983,24.4500283 26.1075609,25.0999377 26.577017,25.0999377 C27.7144278,25.0999377 28.4907932,21.5069745 28.7435666,20.7307479 L28.9059745,20.6585666 L29.0685212,20.7487932 C28.7074759,22.0125212 27.9130652,25.695711 26.2701076,25.695711 L26.0714703,25.6776657 C24.6450567,24.8652096 24.8979688,24.0166629 24.8979688,22.5361133 C24.8797847,22.4819773 24.8438329,22.4278414 24.8077422,22.3917507 L24.6993314,22.463932 Z"/>
      <path fill="#409ECC" d="M36.9400312,20.5321105 L36.9400312,20.5501558 C36.9582153,20.5321105 36.9763994,20.5140652 36.9763994,20.4960198 L36.9763994,20.4779745 C36.9582153,20.4960198 36.9400312,20.5140652 36.9400312,20.5321105 Z M36.9040793,25.4611218 L37.0123513,25.4611218 L37.0123513,25.3525722 L36.9040793,25.3525722 L36.9040793,25.4611218 Z M36.9763994,20.0085184 C37.0305354,19.9904731 37.0305354,19.9182918 37.0305354,19.8820623 C36.9943059,19.8820623 36.9219858,19.8820623 36.9040793,19.9363371 L36.9763994,20.0085184 Z M36.9943059,19.466881 L37.0484419,19.466881 L36.9763994,19.3586091 L36.9040793,19.4307904 L36.9943059,19.466881 Z M36.7595779,18.6363796 L36.7956686,18.6363796 L36.7956686,18.600289 L36.7595779,18.600289 L36.7595779,18.6363796 Z M36.4707139,24.3416176 C36.5068045,24.3416176 36.543034,24.3055269 36.543034,24.2694363 L36.4707139,24.2694363 L36.4707139,24.3416176 Z M36.4707139,19.3946997 L36.5068045,19.3946997 L36.5068045,19.3586091 L36.4707139,19.3586091 L36.4707139,19.3946997 Z M36.4887592,21.0557025 L36.5068045,21.0557025 L36.4707139,20.9833824 L36.4346232,21.0196119 C36.4526686,21.0376572 36.4707139,21.0557025 36.4887592,21.0557025 Z M36.4887592,20.0446091 L36.5068045,20.0446091 L36.543034,19.9363371 L36.4165779,19.8820623 C36.4165779,19.9363371 36.4165779,20.0446091 36.4887592,20.0446091 Z M36.4165779,18.4377422 L36.543034,18.3836062 L36.4707139,18.2753343 L36.4165779,18.4377422 Z M36.2179405,24.0166629 L36.2901218,24.0166629 C36.2901218,23.9805722 36.2901218,23.9625269 36.25417,23.9443428 C36.2179405,23.9625269 36.2179405,23.9805722 36.2179405,24.0166629 Z M36.2179405,23.5111161 L36.25417,23.4750255 L36.2179405,23.4750255 L36.2179405,23.5111161 Z M36.3442578,21.4347932 C36.3442578,21.3626119 36.3442578,21.2722465 36.25417,21.2722465 L36.2179405,21.3445666 C36.2179405,21.3987025 36.2901218,21.4347932 36.3442578,21.4347932 Z M36.2901218,18.1308329 L36.2901218,18.0586516 L36.1998952,18.0586516 L36.2901218,18.1308329 Z M36.25417,24.6304816 L36.3263513,24.5763456 C36.3263513,24.5041643 36.2179405,24.5041643 36.1638045,24.5041643 C36.1638045,24.5583003 36.1818499,24.6304816 36.25417,24.6304816 Z M35.9653059,23.7638895 L36.0374873,23.7638895 L36.0374873,23.7277989 L35.9653059,23.7277989 L35.9653059,23.7638895 Z M33.2932096,22.175068 L33.3653909,22.120932 L33.2750255,22.0305666 L33.1846601,22.1028867 L33.2932096,22.175068 Z M33.2750255,20.5862465 L33.2932096,20.5862465 L33.3290227,20.5140652 L33.148847,20.4238385 C33.1667535,20.4960198 33.2028442,20.5862465 33.2750255,20.5862465 Z M33.2569802,20.0806997 L33.3290227,19.9724278 L33.2569802,19.864017 L33.148847,19.9363371 L33.2569802,20.0806997 Z M33.0043456,24.0527535 L33.0401586,24.0527535 L33.0401586,23.9805722 L33.0043456,23.9805722 L33.0043456,24.0527535 Z M33.0223909,18.6724703 L33.0945722,18.5100623 L32.9320255,18.5822436 L33.0223909,18.6724703 Z M32.9681161,23.5472068 L33.0043456,23.4930708 C33.0043456,23.4569802 32.9500708,23.4389348 32.9139802,23.4389348 C32.9139802,23.4750255 32.9320255,23.5291615 32.9681161,23.5472068 Z M32.9861615,23.0055694 L33.0765269,22.9333881 L33.0043456,22.8612068 L32.895796,22.9514334 L32.9861615,23.0055694 Z M33.0043456,22.463932 C33.0583428,22.463932 33.1124788,22.4278414 33.1124788,22.3737054 L33.1124788,22.3556601 L33.0043456,22.2834788 L32.895796,22.3917507 L33.0043456,22.463932 Z M33.0043456,21.9222946 L33.0765269,21.832068 L33.0043456,21.7417025 L32.895796,21.832068 L33.0043456,21.9222946 Z M33.0945722,21.4167479 L33.0945722,21.3806572 C33.0945722,21.3265212 33.0945722,21.2000652 33.0043456,21.2000652 L32.895796,21.2904306 C32.895796,21.3987025 33.0043456,21.4167479 33.0945722,21.4167479 Z M33.0043456,20.3334731 L33.1124788,20.2252011 L33.0043456,20.1530198 L32.895796,20.2432465 L33.0043456,20.3334731 Z M32.9861615,19.7918357 C33.0765269,19.7918357 33.1124788,19.6655184 33.1124788,19.5931983 C33.0401586,19.5931983 32.9139802,19.6113824 32.895796,19.6835637 L32.9861615,19.7918357 Z M32.7154816,23.2583428 L32.7876629,23.2222521 C32.7694788,23.2042068 32.7512946,23.1861615 32.7333881,23.1861615 C32.7154816,23.1861615 32.6972975,23.2042068 32.6792521,23.2222521 L32.7154816,23.2583428 Z M32.7876629,22.2111586 L32.859983,22.1389773 L32.7694788,22.066796 L32.6792521,22.120932 L32.7876629,22.2111586 Z M32.7694788,21.6695212 L32.859983,21.5792946 L32.7512946,21.489068 L32.6792521,21.5792946 L32.7694788,21.6695212 Z M32.6792521,20.5682011 C32.7333881,20.5682011 32.8236147,20.5501558 32.8236147,20.4779745 L32.7333881,20.4418839 L32.6792521,20.4418839 L32.6792521,20.5682011 Z M32.7512946,19.466881 L32.8236147,19.3766544 L32.7512946,19.3225184 L32.6792521,19.3766544 L32.7512946,19.466881 Z M32.6612068,24.3055269 C32.6612068,24.3055269 32.6612068,24.3235722 32.6792521,24.3235722 C32.6972975,24.3235722 32.6972975,24.3055269 32.6972975,24.3055269 C32.6972975,24.3055269 32.6972975,24.2874816 32.6792521,24.2874816 C32.6612068,24.2874816 32.6612068,24.3055269 32.6612068,24.3055269 Z M32.7694788,20.0446091 L32.8236147,19.9724278 C32.8236147,19.9002465 32.7154816,19.8820623 32.6612068,19.8820623 C32.6612068,19.9543824 32.6792521,20.0446091 32.7694788,20.0446091 Z M32.606932,21.0376572 C32.606932,21.0917932 32.7154816,21.0917932 32.7512946,21.0917932 C32.895796,21.0917932 33.0765269,20.9654759 33.0765269,20.8029292 L32.9861615,20.6945184 L32.9320255,20.6945184 C32.8777507,20.7487932 32.606932,20.9833824 32.606932,21.0376572 Z M32.4624306,23.5472068 C32.4987989,23.5472068 32.5347507,23.5111161 32.5347507,23.4750255 L32.4624306,23.4389348 L32.3903881,23.4930708 L32.4624306,23.5472068 Z M32.3903881,22.9694788 L32.4624306,22.9694788 L32.4624306,22.8972975 C32.4266176,22.8972975 32.3903881,22.9333881 32.3903881,22.9694788 Z M32.4624306,18.1308329 C32.5168442,18.1308329 32.5529348,18.0766969 32.5529348,18.0225609 L32.3723428,18.0225609 C32.3723428,18.0766969 32.4084334,18.1308329 32.4624306,18.1308329 Z M32.4624306,22.5000227 L32.571119,22.3917507 L32.4624306,22.2834788 L32.3542975,22.3737054 L32.4624306,22.5000227 Z M29.6822011,22.9694788 L29.7904731,22.9694788 L29.7904731,22.8972975 L29.6822011,22.8972975 L29.6822011,22.9694788 Z M29.6822011,21.886204 L29.8085184,21.886204 L29.7182918,21.8140227 L29.6822011,21.886204 Z M29.8447479,22.518068 L29.7545212,22.3194306 L29.6459717,22.3917507 C29.6459717,22.4819773 29.7724278,22.518068 29.8447479,22.518068 Z M29.4655184,22.7167054 L29.5016091,22.7167054 L29.5016091,22.6445241 L29.4655184,22.6445241 L29.4655184,22.7167054 Z M29.4655184,21.6514759 L29.5737904,21.5792946 L29.5016091,21.5251586 L29.4655184,21.5251586 L29.4655184,21.6514759 Z M29.4655184,20.5140652 L29.5016091,20.4779745 L29.4655184,20.4779745 L29.4655184,20.5140652 Z M29.4655184,19.466881 C29.4835637,19.466881 29.5196544,19.4488357 29.5378385,19.4307904 L29.5016091,19.3946997 C29.4835637,19.412745 29.4655184,19.4488357 29.4655184,19.466881 Z M29.5016091,22.2111586 L29.5737904,22.120932 L29.5016091,22.066796 L29.4294278,22.120932 L29.5016091,22.2111586 Z M29.5016091,20.0085184 L29.5737904,19.9182918 L29.5016091,19.864017 L29.4294278,19.9182918 L29.5016091,20.0085184 Z M29.5016091,23.3305241 L29.6100198,23.2402975 L29.5016091,23.1139802 L29.3933371,23.2222521 L29.5016091,23.3305241 Z M29.4655184,18.9613343 L29.5378385,18.8711076 L29.4655184,18.7807422 L29.3933371,18.8530623 L29.3933371,18.8711076 L29.4655184,18.9613343 Z M29.4835637,18.3836062 L29.5737904,18.3294703 L29.4835637,18.2391048 L29.3933371,18.3294703 L29.4835637,18.3836062 Z M29.4476119,23.8360708 L29.5378385,23.7638895 L29.4294278,23.6917082 L29.3571076,23.7638895 L29.4476119,23.8360708 Z M29.2307904,23.5832975 L29.3571076,23.4930708 L29.2489745,23.4028442 L29.1766544,23.4930708 L29.2307904,23.5832975 Z M29.212745,23.0416601 L29.2849263,22.9514334 L29.212745,22.8972975 L29.1405637,22.9694788 L29.212745,23.0416601 Z M29.2670198,22.4819773 L29.212745,22.3194306 L29.1405637,22.409796 L29.2670198,22.4819773 Z M29.2307904,19.178017 L29.2849263,19.178017 L29.212745,19.069745 L29.1405637,19.1419263 L29.2307904,19.178017 Z M29.1225184,19.7737904 C29.1766544,19.7737904 29.2849263,19.7737904 29.2849263,19.7016091 L29.212745,19.6474731 C29.1405637,19.6474731 29.1225184,19.7196544 29.1225184,19.7737904 Z M29.212745,24.1249348 L29.2849263,24.0166629 L29.212745,23.9082521 L29.1044731,24.0166629 L29.212745,24.1249348 Z M28.9960623,21.0917932 L28.9960623,21.0196119 C28.9601105,21.0196119 28.9419263,21.0196119 28.923881,21.0557025 C28.9419263,21.0917932 28.9601105,21.0917932 28.9960623,21.0917932 Z M28.8877904,24.3596629 L28.9960623,24.2874816 L28.923881,24.2333456 L28.8877904,24.2333456 L28.8877904,24.3596629 Z M28.9601105,23.8360708 L29.0322918,23.7638895 L28.9601105,23.7277989 L28.8877904,23.7638895 L28.9601105,23.8360708 Z M28.9419263,22.752796 L29.0322918,22.6806147 L28.9601105,22.6082946 L28.8877904,22.6806147 L28.9419263,22.752796 Z M28.9601105,23.3305241 L29.0322918,23.2222521 L28.9419263,23.1500708 L28.8516997,23.2222521 L28.9601105,23.3305241 Z M36.1096686,19.3225184 C36.1456204,18.9613343 36.1456204,18.2753343 35.6402125,18.2753343 C34.9542125,18.2753343 34.4486657,19.412745 34.3043031,19.9724278 L33.148847,24.6304816 L32.9681161,24.8110737 C32.7512946,24.8110737 32.029204,24.8652096 32.029204,24.5583003 C32.029204,22.7708414 32.318068,20.9474306 32.4987989,19.178017 C32.5347507,18.8169717 32.4987989,18.3114249 32.029204,18.3114249 C31.2168867,18.3114249 30.8196119,19.6655184 30.6570652,20.2973824 L29.6100198,24.5222096 C29.5378385,24.7930283 29.3752918,24.8110737 29.1405637,24.8110737 C29.0322918,24.8110737 28.4905156,24.7930283 28.4905156,24.6304816 L28.4905156,23.8360708 C28.5447904,23.7097535 28.5807422,23.5652521 28.5807422,23.4389348 C28.5807422,21.6153853 28.7252436,19.7737904 28.8156091,17.9502408 L28.8877904,17.8780595 L29.1586091,17.8780595 C29.3031105,17.8780595 29.9167904,17.8780595 29.9167904,18.0947422 L29.9167904,21.1278839 L29.9710652,21.1639745 L30.0433853,21.0917932 C30.3862465,19.9363371 30.8014278,17.6976062 32.3723428,17.6976062 C33.3653909,17.6976062 33.5820737,18.6363796 33.5820737,19.4488357 C33.5820737,20.0085184 33.4735241,20.5501558 33.4735241,21.1098385 C33.6181643,21.0737479 34.340255,18.1488782 35.495711,17.8058782 C35.6041218,17.7697875 35.6764419,17.7697875 35.7845751,17.6976062 C36.4346232,17.6976062 37.2288952,17.9502408 37.2288952,18.7807422 C37.2288952,19.412745 37.1025779,20.0265637 37.1025779,20.6403824 C37.1025779,21.5973399 36.9219858,22.5723428 36.9219858,23.5652521 C36.9219858,23.9264363 36.7956686,25.2443003 37.3914419,25.2443003 C37.9151728,25.2443003 38.3485382,24.5222096 38.4929008,24.0888442 L39.6844476,20.6945184 L39.8109037,20.6223371 L40.0094023,20.7487932 C39.6303116,21.7057507 38.8719915,25.8221671 36.9943059,25.8221671 C35.9110312,25.8221671 35.7845751,24.4318442 35.7845751,23.6375722 C35.7845751,22.2111586 35.9833513,20.7487932 36.1096686,19.3225184 Z"/>
      <path fill="#409ECC" d="M42.8976261 18.4557875C42.8976261 18.4557875 42.8976261 18.4738329 42.9158102 18.4738329 42.9339943 18.4738329 42.9339943 18.4557875 42.9339943 18.4557875 42.9339943 18.4557875 42.9339943 18.4377422 42.9158102 18.4377422 42.8976261 18.4377422 42.8976261 18.4557875 42.8976261 18.4557875zM42.8616742 18.3836062C42.8616742 18.3836062 42.8616742 18.4016516 42.8797195 18.4016516 42.8976261 18.4016516 42.8976261 18.3836062 42.8976261 18.3836062 42.8976261 18.3836062 42.8976261 18.3655609 42.8797195 18.3655609 42.8616742 18.3655609 42.8616742 18.3836062 42.8616742 18.3836062zM42.6269462 18.7807422L42.7714476 18.6905156 42.6630368 18.600289 42.5546261 18.7085609 42.6269462 18.7807422zM42.6451303 18.2391048L42.7352181 18.1488782 42.6451303 18.0586516 42.5546261 18.1488782 42.6451303 18.2391048zM42.3920793 23.9082521L42.4463541 23.8360708C42.4463541 23.7999802 42.4102635 23.7638895 42.3741728 23.7638895L42.3380822 23.8360708 42.3920793 23.9082521zM42.2839462 23.3485694C42.3380822 23.3485694 42.4463541 23.3485694 42.4463541 23.2763881L42.4463541 23.2583428 42.3741728 23.1861615 42.3562663 23.1861615 42.2839462 23.3485694zM42.3562663 24.5222096L42.4825836 24.3777082 42.4102635 24.3055269 42.3920793 24.3055269 42.265762 24.3957535 42.3562663 24.5222096zM42.0853088 24.6665722L42.1213994 24.6665722 42.1213994 24.6304816 42.0853088 24.6304816 42.0853088 24.6665722zM42.1213994 24.2333456L42.2117649 24.0347082 42.0131275 24.1068895 42.1213994 24.2333456zM42.1213994 22.5541586L42.1213994 22.4458867 42.0131275 22.5000227 42.1213994 22.5541586zM42.0674023 23.1139802L42.1574901 23.0236147C42.1394448 22.9514334 42.1032153 22.8972975 42.0492181 22.8612068L41.976898 22.9875241 42.0674023 23.1139802zM41.7785382 23.3305241L41.9588527 23.3305241C41.9588527 23.2763881 41.9409462 23.1861615 41.8686261 23.1861615 41.7963059 23.1861615 41.7785382 23.2763881 41.7785382 23.3305241zM41.8143513 22.8612068L41.9047167 22.7347507 41.8143513 22.6445241 41.7242635 22.752796 41.8143513 22.8612068zM41.7963059 22.3194306L41.9409462 22.1931133 41.8143513 22.1028867 41.688034 22.2111586 41.7963059 22.3194306zM41.5436714 26.146983L41.6158527 26.146983C41.5978074 26.1290765 41.579762 26.1110312 41.5617167 26.1110312L41.5436714 26.1110312 41.5436714 26.146983zM41.5436714 22.0305666L41.6158527 21.9583853 41.5436714 21.886204 41.4714901 21.9583853 41.5436714 22.0305666zM41.3451728 21.7598867C41.3451728 21.7236572 41.3451728 21.6514759 41.290898 21.6334306L41.2185779 21.7057507C41.2366232 21.7598867 41.3089433 21.7598867 41.3451728 21.7598867zM41.0381246 22.066796L41.1826261 21.9764306 41.0200793 21.8140227 40.893762 21.9583853 41.0381246 22.066796zM40.7312153 21.7417025L40.7853513 21.6695212C40.7853513 21.6334306 40.7492606 21.5973399 40.71317 21.5973399L40.6770793 21.6695212 40.7312153 21.7417025zM40.4602578 26.6887592L40.5325779 26.6887592 40.5325779 26.6165779C40.4964873 26.6165779 40.4602578 26.6525297 40.4602578 26.6887592zM40.1713938 20.6223371L40.2437139 20.6223371 40.2437139 20.5501558C40.2076232 20.5501558 40.1713938 20.5862465 40.1713938 20.6223371zM40.1895779 21.2000652C40.2256686 21.2000652 40.2437139 21.1459292 40.2437139 21.1098385 40.2076232 21.1098385 40.1534873 21.1278839 40.1354419 21.1639745L40.1895779 21.2000652zM39.9187592 20.9112011L39.9910793 20.8390198 39.9366657 20.7668385 39.8465779 20.8570652 39.9187592 20.9112011zM39.9187592 19.864017C39.9910793 19.864017 40.0089858 19.755745 40.0089858 19.7016091 39.9548499 19.7016091 39.8465779 19.7196544 39.8465779 19.7918357L39.9187592 19.864017zM39.9366657 19.3225184L39.9910793 19.232153 39.9187592 19.1419263 39.8465779 19.2141076 39.8465779 19.232153 39.9366657 19.3225184zM39.7563513 20.098745L39.68417 19.9724278 39.5936657 20.0446091 39.7563513 20.098745zM41.7963059 24.3235722C41.7963059 22.9333881 40.4602578 22.3194306 39.7381671 21.3445666 39.5216232 21.0557025 39.5034391 20.6764731 39.3048017 20.3697025L39.3048017 19.864017C39.6298952 19.6835637 39.6478017 17.5531048 41.8505807 17.5531048 42.3562663 17.5531048 43.2046742 17.8600142 43.2046742 18.4738329 43.2046742 19.1058357 42.4463541 19.4849263 41.8866714 19.4849263 41.9047167 19.123881 42.265762 18.889153 42.265762 18.5279688 42.265762 18.1669235 42.0131275 18.0225609 41.688034 18.0225609 40.8755779 18.0225609 40.3519858 18.7085609 40.3519858 19.4849263 40.3519858 21.3987025 42.8075382 22.0487507 42.8075382 23.9986176 42.8075382 25.9123938 41.9047167 26.1110312 40.5325779 27.0135751L40.2978499 27.0317592C40.0811671 27.0317592 39.5577139 26.9413938 39.5216232 26.6707139 40.4784419 26.3277139 41.7963059 25.4429377 41.7963059 24.3235722zM14.5199632 11.1282748L14.5289858 11.4208867 14.5289858 11.4614193C14.553 11.9955609 14.5649377 12.7969122 14.5649377 13.8653343L14.5649377 14.0993683 15.2673173 14.0993683C15.3993258 14.1894561 15.4653994 14.2749632 15.4653994 14.3560283 15.4653994 14.4369547 15.4427734 14.5038612 15.3977989 14.5563314 15.3528244 14.6089405 15.3061841 14.6351756 15.2582946 14.6351756 15.2102663 14.6351756 15.1547422 14.6246261 15.0917224 14.6035269 15.0406402 14.6156034 14.9820623 14.6215722 14.9161275 14.6215722L14.6190737 14.6081076C14.5560538 14.6830652 14.4772096 14.7206827 14.3826799 14.7206827 14.2881501 14.7206827 14.2086119 14.6913938 14.1440652 14.6328159 14.0795184 14.5743768 14.0473144 14.5060822 14.0473144 14.4280708L14.1058924 14.0228839C14.1058924 13.3235581 14.0749377 12.2755411 14.0135836 10.8784164 13.9519518 9.48143059 13.9212748 8.43327479 13.9212748 7.73408782 13.9212748 7.67703683 13.943762 7.63122946 13.9887365 7.59666572 14.0338499 7.56224079 14.090068 7.54488952 14.1576686 7.54488952 14.2251303 7.54488952 14.2866232 7.57043059 14.3421473 7.62151275 14.3976714 7.67245609 14.4254334 7.73547592 14.4254334 7.81043343L14.5199632 11.1282748M16.9148555 11.2408499L16.6852635 11.2318272C16.5953144 11.2318272 16.5322946 11.2543144 16.496204 11.299289L16.496204 14.1443428C16.8113031 14.1264363 16.9824561 14.1174136 17.0093853 14.1174136 17.3605751 14.1174136 17.53617 14.1984788 17.53617 14.3606091L17.53617 14.392119C17.4939717 14.4760992 17.422068 14.5405071 17.3200425 14.5856204 17.218017 14.6305949 17.1279292 14.656136 17.0499178 14.6621048 16.9719065 14.6680737 16.8712691 14.6711275 16.7482833 14.6711275L16.4602521 14.6711275C16.232187 14.6711275 16.091017 14.626153 16.0370198 14.5360652 16.0130057 14.4940057 16.0009292 14.4386204 16.0009292 14.3694929L16.0009292 9.01252975C16.0009292 8.90745042 15.9799688 8.75142776 15.9380482 8.54432295 15.8959887 8.33721813 15.8750283 8.17966856 15.8750283 8.07167422L15.8750283 8.04016431C15.9770538 7.87206516 16.0533994 7.76407082 16.1046204 7.71590368L16.7888159 7.63497734C16.8818187 7.63497734 16.9756544 7.66273938 17.0701841 7.71826346 17.1647139 7.77378754 17.2120482 7.84652408 17.2120482 7.9366119 17.2120482 8.11970255 17.0724051 8.21117847 16.7932578 8.21117847L16.5277139 8.20215581C16.4827394 8.20215581 16.4495637 8.20368272 16.4287422 8.20659773L16.5007847 9.72823513C16.5007847 9.85135977 16.4931501 10.0307025 16.4781586 10.2661246 16.4631671 10.5018244 16.4556714 10.6735326 16.4556714 10.7816657 16.4887082 10.7756969 16.5336827 10.7651473 16.5907337 10.7501558 16.7167734 10.717119 16.815051 10.7006006 16.8857054 10.7006006 16.9560822 10.7006006 17.019102 10.7261416 17.0747649 10.7772238 17.1301501 10.8281671 17.1579122 10.8897989 17.1579122 10.9617025 17.1579122 11.033745 17.1354249 11.0982918 17.0904504 11.1553428 17.0454759 11.212255 16.986898 11.2408499 16.9148555 11.2408499M19.0982011 9.26460907L19.0802946 10.453102 19.161221 12.573289 19.2377054 14.2299887C19.2377054 14.5300963 19.1492833 14.6801501 18.9721615 14.6801501 18.870136 14.6801501 18.7950397 14.6321218 18.7471501 14.5360652 18.698983 14.4400085 18.6751076 14.3335411 18.6751076 14.2163853L18.7471501 12.7444419C18.7471501 12.426289 18.726051 11.9475326 18.6841303 11.3084504 18.641932 10.6690907 18.6209717 10.1904731 18.6209717 9.87232011L18.6345751 9.06652691C18.6345751 8.6253881 18.6059802 8.33874504 18.5489292 8.20659773L18.0493513 8.25615297C17.9712011 8.25615297 17.9015184 8.23297167 17.8400255 8.18647025 17.7783938 8.13996884 17.7477167 8.08000283 17.7477167 8.00643343 17.7477167 7.93286402 17.8212861 7.87067705 17.9682861 7.81945609 18.1183399 7.76559773 18.2983768 7.72659207 18.5085354 7.7025779 18.8776317 7.66051841 19.188289 7.63955807 19.4403683 7.63955807 19.5153258 7.63955807 19.5836204 7.66426629 19.6451133 7.71368272 19.706745 7.76323796 19.7374221 7.82556374 19.7374221 7.90052125 19.7374221 7.97561756 19.7104929 8.03488952 19.6563569 8.07833711 19.6023598 8.12192351 19.5364249 8.1435779 19.4584136 8.1435779L19.129711 8.12567139C19.0876516 8.12567139 19.0561416 8.1271983 19.0351813 8.13025212 19.0772408 8.48421813 19.0982011 8.86247592 19.0982011 9.26460907M21.8713513 14.5045552L21.9163258 12.7218159C21.9163258 12.541779 21.8870368 12.2755411 21.8284589 11.9228244 21.7700198 11.5702465 21.7407309 11.2865184 21.7407309 11.0720567 21.7407309 10.8574561 21.7039462 10.5963541 21.6305156 10.2887507 21.5568074 9.98114731 21.4750482 9.70435977 21.3850992 9.45811048 21.1480113 8.81292068 21.0294674 8.26226062 21.0294674 7.8059915 21.0294674 7.761017 21.0557025 7.72270538 21.1081728 7.69119547 21.1606431 7.65968555 21.2154731 7.644 21.2726629 7.644 21.3295751 7.644 21.3902351 7.71451558 21.4549207 7.85554674 21.5193286 7.9965779 21.5786006 8.17675354 21.6327365 8.39579603 21.6867337 8.61483853 21.736983 8.83401983 21.7834844 9.05306232 21.8299858 9.27210482 21.8727394 9.48448442 21.911745 9.69006232 21.9507507 9.89550142 21.9793456 10.0284816 21.9972521 10.0884476 22.0093286 10.0343116 22.0236261 9.90605099 22.0401445 9.70352691 22.0565241 9.50086402 22.0752635 9.29320397 22.0963626 9.0799915 22.1203768 8.86386402 22.1503598 8.64787535 22.1864504 8.43188669 22.2673768 7.9366119 22.3896686 7.6889745 22.5533258 7.6889745 22.7168442 7.6889745 22.7986034 7.72201133 22.7986034 7.78794618 22.7986034 8.13316714 22.725034 8.64787535 22.578034 9.33207082 22.4308952 10.0164051 22.3574646 10.5355552 22.3574646 10.8897989L22.3305354 11.2093399 22.3305354 11.3488442 22.3799518 13.7932918 22.4114618 14.2524759 22.4114618 14.4594419C22.4114618 14.5405071 22.3805071 14.6058867 22.3192918 14.6554419 22.2576601 14.7048584 22.1908924 14.7295666 22.1188499 14.7295666 22.0469462 14.7295666 21.9875354 14.7077734 21.941034 14.6643258 21.8945326 14.6208782 21.8713513 14.5675751 21.8713513 14.5045552M24.7590198 8.46103683C24.6975269 8.30348725 24.6209037 8.18188952 24.5294278 8.09638244 24.4379518 8.01087535 24.34717 7.96812181 24.2570822 7.96812181 24.1671331 7.96812181 24.0927309 7.99963173 24.0342918 8.06265156 23.9757139 8.12567139 23.9261586 8.21506516 23.8857649 8.33055524 23.8450935 8.44604533 23.8091416 8.56986402 23.7777705 8.70187252 23.7461218 8.83401983 23.7221076 8.98629462 23.7055892 9.15869688 23.6890708 9.33137677 23.6749122 9.48823229 23.6629745 9.62926346 23.653813 9.7673796 23.6464561 9.92034844 23.6403484 10.0884476 23.6343796 10.3674561 23.6297989 10.5851105 23.6268839 10.7411331L23.6268839 10.7816657C23.6268839 11.1928215 23.6583938 11.6363201 23.7214136 12.1118839 23.7844334 12.5877252 23.8495354 12.9770878 23.9172748 13.2801105 23.9847365 13.583272 24.0753796 13.8404873 24.1896204 14.0521728 24.3035836 14.2637195 24.4311501 14.3694929 24.5723201 14.3694929 24.6951671 14.3694929 24.7987195 14.2540028 24.8829773 14.0228839 24.9668187 13.788711 25.0269235 13.5006799 25.0630142 13.1585127 25.1228414 12.5463598 25.1536572 12.1164646 25.1553229 11.8688272 25.1565722 11.6211898 25.1565722 11.4404589 25.1553229 11.3263569 25.1536572 11.212255 25.1492153 11.0465156 25.1417195 10.829 25.1342238 10.6113456 25.1215921 10.4072946 25.1034079 10.2167082 25.0853626 10.0261218 25.0621813 9.81540793 25.0337252 9.58415014 25.0051303 9.35316997 24.9675127 9.14759207 24.9210113 8.96741643 24.8745099 8.7873796 24.8205127 8.6185864 24.7590198 8.46103683zM25.5760567 11.8350963L25.4949915 13.0009632 25.4949915 13.0414958C25.4561246 13.2125099 25.4364136 13.3971275 25.4364136 13.5952096 25.4364136 13.7932918 25.4019887 13.9845722 25.333 14.1691898 25.2640113 14.3538074 25.158932 14.5173258 25.017762 14.6598839 24.8767309 14.8024419 24.7223739 14.8736516 24.5542748 14.8736516 24.3861756 14.8736516 24.233068 14.8166006 24.0950907 14.7026374 23.9569745 14.5886742 23.8430113 14.4423683 23.7527847 14.2637195 23.6629745 14.0852096 23.5832975 13.8719972 23.51417 13.6244986 23.4451813 13.377 23.3921558 13.1353314 23.3545382 12.8997705 23.3170595 12.6640708 23.2862436 12.4157394 23.2622295 12.1546374 23.2261388 11.7555581 23.2087875 11.4455949 23.2104533 11.2250255 23.2119802 11.0044561 23.2111473 10.8153966 23.2082323 10.657847 23.2051785 10.5002975 23.2021246 10.3584334 23.1992096 10.2323938 23.1992096 10.1695127 23.1992096 10.0996912 23.1992096 10.023068 23.1992096 9.94658357 23.1992096 9.86482436 23.1992096 9.77779037 23.2021246 9.60066856 23.2073994 9.44159207 23.2148952 9.30056091 23.2223909 9.15952975 23.2359943 9.00739377 23.2554278 8.84373654 23.275 8.68021813 23.299847 8.53613314 23.32983 8.41148159 23.3596742 8.28710765 23.4002068 8.16467705 23.451289 8.04460623 23.5054249 7.9216204 23.5653909 7.82112181 23.6313258 7.74311048 23.7813796 7.56904249 23.9537819 7.48186969 24.1490878 7.48186969 24.3441161 7.48186969 24.5105496 7.51726629 24.6488045 7.58778187 24.7867819 7.65829745 24.9031048 7.77156657 24.9976346 7.92758924 25.0923031 8.0836119 25.1746176 8.23519263 25.2451331 8.38219263 25.3156487 8.52933144 25.3711728 8.73407649 25.4117054 8.99670538 25.452238 9.25933428 25.4845807 9.47171388 25.5085949 9.63370538 25.5324703 9.79888952 25.5491275 10.0343116 25.5580113 10.3405269 25.5700878 10.7516827 25.5760567 11.0727507 25.5760567 11.3038697L25.5760567 11.8350963zM26.1164448 9.59775354L26.1253286 8.1571813C26.0803541 8.10609915 26.0578669 8.04307932 26.0578669 7.96812181 26.0578669 7.89316431 26.084102 7.82709065 26.1365722 7.77003966 26.1891813 7.71298867 26.2513683 7.68439377 26.3235496 7.68439377 26.5455071 7.68439377 26.6565552 7.90357507 26.6565552 8.34179887L26.7420623 11.5469263C26.778153 11.6279915 26.8089688 11.7916487 26.8343711 12.0376204 26.8597734 12.2837309 26.8725439 12.4750113 26.8725439 12.6116006 26.8725439 12.7481898 26.8943371 12.916289 26.9379235 13.1157592 26.9813711 13.3153683 27.0414759 13.5171983 27.1179603 13.7212493 27.1945836 13.9254391 27.2979972 14.0993683 27.4287564 14.2434533 27.5590992 14.3875382 27.6830567 14.4594419 27.7999348 14.4594419 27.9169518 14.4594419 28.0039858 14.4318187 28.0610368 14.3762946 28.117949 14.3207705 28.1572323 14.2419263 28.1781926 14.1399008 28.2110907 13.9779093 28.2276091 13.8082833 28.2276091 13.6313003L28.2276091 11.8305156C28.2276091 11.6354873 28.2080368 11.3459292 28.16917 10.9617025 28.1300255 10.5776147 28.1107309 10.2880567 28.1107309 10.0928895L28.1107309 10.0298697 28.0925467 9.49420113 28.025085 7.91412465C28.025085 7.83916714 28.0625637 7.77836827 28.1375212 7.73172805 28.2124788 7.68522663 28.2907677 7.66190652 28.3716941 7.66190652L28.5968442 7.87803399 28.5968442 8.03114164 28.5292436 8.59387819C28.5292436 9.10705949 28.5570057 9.87981586 28.6125297 10.9122861 28.6680538 11.9446176 28.6958159 12.6431105 28.6958159 13.0077649 28.6958159 13.3724193 28.6904023 13.6154759 28.6799915 13.7370737 28.6694419 13.8585326 28.6462606 13.9884589 28.61017 14.1264363 28.5743569 14.2645524 28.5248017 14.3785156 28.4617819 14.4684646 28.3146431 14.6786232 28.0894929 14.7837025 27.7864703 14.7837025 27.4114051 14.7866176 27.1097705 14.6230992 26.8815666 14.2930085 26.6415637 13.9448725 26.4734646 13.5277479 26.3774079 13.0414958 26.2633059 12.4683484 26.1943173 11.9655779 26.1703031 11.5334618 26.1343513 10.8821643 26.1164448 10.2368357 26.1164448 9.59775354M29.8886119 8.03114164L29.8391955 9.91285269C29.8391955 10.1019122 29.8421105 10.2429433 29.8482181 10.3359462 29.9531586 10.2368357 30.056711 10.1184306 30.1588754 9.98031445L30.3028215 9.18354391C30.3118442 9.14162323 30.3162861 9.09345609 30.3162861 9.03945892 30.3162861 8.89245892 30.2863031 8.71394901 30.2263371 8.50379037 30.1422181 8.2156204 30.0296431 8.05807082 29.8886119 8.03114164zM29.3800113 14.3470057L29.4159632 8.94048725 29.4159632 7.8059915C29.4159632 7.73408782 29.4309547 7.68300567 29.4609377 7.65302266 29.4909207 7.62303966 29.5696261 7.60804816 29.6973314 7.60804816 29.8247592 7.60804816 29.9539915 7.63872521 30.0844731 7.70021813 30.2150935 7.76184986 30.3254476 7.84360907 30.4152578 7.94563456 30.5024306 8.0536289 30.5775269 8.17369972 30.6405467 8.30570822 30.7606176 8.56084136 30.8205836 8.83846176 30.8205836 9.13856941 30.8205836 9.43867705 30.7454873 9.78223229 30.5954334 10.1695127 30.5775269 10.2114334 30.5412975 10.2999943 30.4874391 10.4350567 30.4334419 10.5699802 30.4020708 10.6496572 30.3929093 10.6735326 30.3959632 11.1298017 30.5114533 11.7225212 30.7395184 12.45183 30.8175297 12.6979405 30.9287167 13.0346941 31.0726629 13.4623683 31.2167479 13.8900425 31.3066969 14.161 31.3427875 14.2749632L31.3427875 14.2974504C31.3427875 14.5045552 31.3187734 14.6253201 31.2706062 14.6598839 31.2228555 14.6943088 31.1716346 14.7116601 31.1177762 14.7116601 31.0036742 14.7116601 30.8926261 14.629068 30.7844929 14.4640227L30.7844929 14.4325127C30.7545099 13.8743569 30.5623966 13.0295581 30.2082918 11.8981161 30.0461615 11.381881 29.9337252 10.9993201 29.8705666 10.7501558L29.8705666 14.3829575C29.8705666 14.4760992 29.8540482 14.5481416 29.8211501 14.599085 29.7881133 14.6500283 29.7280085 14.6755694 29.6411133 14.6755694 29.5539405 14.6755694 29.4886997 14.6508612 29.4452521 14.6013059 29.4018045 14.5517507 29.3800113 14.4909518 29.3800113 14.4190482L29.3800113 14.3470057zM14.9866431 40.2655071C14.9866431 40.2655071 14.9866431 40.28383 15.0052436 40.28383 15.0235666 40.28383 15.0235666 40.2655071 15.0235666 40.2655071 15.0235666 40.2655071 15.0235666 40.2469065 15.0052436 40.2469065 14.9866431 40.2469065 14.9866431 40.2655071 14.9866431 40.2655071zM13.3062068 48.5755184L13.3431303 48.5755184 13.3062068 48.5385949 13.3062068 48.5755184zM13.3800538 40.874745L13.3800538 40.7639745 13.2692833 40.8194986 13.3800538 40.874745zM13.3431303 40.3022918L13.3431303 40.2285836C13.3062068 40.2285836 13.287745 40.2285836 13.2692833 40.2655071 13.287745 40.3022918 13.3062068 40.3022918 13.3431303 40.3022918zM13.3246686 39.2681558L13.4169773 39.1573853 13.3062068 39.0835382 13.2323598 39.1389235 13.3246686 39.2681558zM13.0106799 47.7999858L13.0845269 47.7999858C13.0660652 47.7815241 13.0477422 47.7629235 13.0291416 47.7629235L13.0106799 47.7629235 13.0106799 47.7999858zM13.0845269 40.5978187L13.0845269 40.5239717 13.0106799 40.5239717C13.0106799 40.5608952 13.0477422 40.5978187 13.0845269 40.5978187zM13.0291416 48.3909008L13.1031275 48.2615297 12.9737564 48.3355156 13.0291416 48.3909008zM13.0291416 42.259932C13.0660652 42.259932 13.0845269 42.2044079 13.0845269 42.1676232 13.0477422 42.1676232 12.9922181 42.186085 12.9737564 42.2228697L13.0291416 42.259932zM12.7522153 48.0216657L12.7891388 48.0216657 12.7891388 47.9846034 12.7522153 47.9846034 12.7522153 48.0216657zM12.7522153 44.1435864L12.7891388 44.1435864 12.7891388 44.1065241 12.7522153 44.1065241 12.7522153 44.1435864zM12.7337535 43.0354646C12.7337535 43.0354646 12.7337535 43.0539263 12.7522153 43.0539263 12.7706771 43.0539263 12.7706771 43.0354646 12.7706771 43.0354646 12.7706771 43.0354646 12.7706771 43.0170028 12.7522153 43.0170028 12.7337535 43.0170028 12.7337535 43.0354646 12.7337535 43.0354646zM12.7891388 46.9504674L12.7891388 46.8766204 12.7152918 46.8766204C12.7152918 46.9135439 12.7522153 46.9504674 12.7891388 46.9504674zM12.7152918 45.8423456L12.7891388 45.8423456 12.7891388 45.7686374C12.7522153 45.7686374 12.7152918 45.8055609 12.7152918 45.8423456zM12.7706771 45.3254164L12.8445241 45.1960453 12.7152918 45.2700312 12.7706771 45.3254164zM12.8259235 47.5967677L12.8259235 47.4675354 12.6966912 47.4675354C12.6966912 47.5598442 12.7337535 47.5967677 12.8259235 47.5967677zM12.7706771 46.4703229L12.8259235 46.4147989 12.6966912 46.3410907 12.7706771 46.4703229zM12.4936119 42.7768612L12.5305354 42.7400765 12.4936119 42.7400765 12.4936119 42.7768612zM12.4936119 46.7287875L12.5675977 46.618017 12.4936119 46.54417 12.4197649 46.618017 12.4936119 46.7287875zM12.4197649 45.5840198L12.4936119 45.5840198 12.4936119 45.5469575 12.4197649 45.5469575 12.4197649 45.5840198zM12.4197649 44.992966L12.4936119 45.066813 12.6043824 44.992966 12.4936119 44.919119 12.4197649 44.9743654 12.4197649 44.992966zM12.4936119 46.1749348L12.5675977 46.0826261 12.4013031 46.0086402C12.4013031 46.0640255 12.4382266 46.1378725 12.4936119 46.1749348zM12.4566884 43.367915L12.5305354 43.294068C12.5120737 43.2386827 12.4382266 43.2386827 12.4013031 43.2386827 12.4013031 43.2754674 12.4013031 43.3493144 12.4566884 43.367915zM12.4751501 47.282779L12.5675977 47.2090708 12.4936119 47.135085 12.3828414 47.2090708 12.4751501 47.282779zM12.4566884 44.5128215C12.5305354 44.5128215 12.5489972 44.402051 12.5489972 44.3466657 12.4936119 44.3466657 12.3828414 44.3651275 12.3828414 44.4389745L12.4566884 44.5128215zM12.2351473 46.9135439L12.3089943 46.9135439C12.2905326 46.8950822 12.2720708 46.8766204 12.2536091 46.8766204L12.2351473 46.8766204 12.2351473 46.9135439zM12.2166856 44.6605156C12.2166856 44.6605156 12.2166856 44.6789773 12.2351473 44.6789773 12.2536091 44.6789773 12.2536091 44.6605156 12.2536091 44.6605156 12.2536091 44.6605156 12.2536091 44.6421926 12.2351473 44.6421926 12.2166856 44.6421926 12.2166856 44.6605156 12.2166856 44.6605156zM12.198085 45.3254164C12.2351473 45.3254164 12.2536091 45.3254164 12.2720708 45.2883541 12.2536091 45.2700312 12.2351473 45.2515694 12.2166856 45.2515694L12.198085 45.2515694 12.198085 45.3254164zM12.2720708 46.4147989C12.2720708 46.3780142 12.2536091 46.3224901 12.2166856 46.3224901L12.1611615 46.3595524C12.179762 46.3966147 12.2351473 46.4147989 12.2720708 46.4147989zM12.2166856 45.8794079L12.2720708 45.8240227 12.1428385 45.7500368 12.2166856 45.8794079zM12.4566884 40.7824363L12.3459178 40.6716657C12.0134674 40.6162805 11.6256317 40.6162805 11.2748584 40.634881L11.2010113 40.5978187 11.3856289 40.4132011C11.5702465 40.4316629 12.4751501 40.5055099 12.5305354 40.2285836 12.5675977 40.0253654 12.8814476 38.1047875 13.0477422 37.9756941 13.4539008 37.9756941 14.0448159 38.0309405 14.0448159 38.584932 14.0448159 39.028153 13.8232748 39.4713739 13.8232748 39.8959943 13.8232748 40.0808895 13.8417365 40.1545977 14.0448159 40.1545977 14.838949 40.1545977 15.3744788 39.2312323 16.0578414 39.2312323L16.1870737 39.3606034C16.1870737 40.9856544 13.804813 40.3761388 13.7125042 40.7456516 13.2508215 42.5737819 13.1214504 44.6974391 13.1214504 46.5995552 13.1214504 47.116762 13.1399122 48.3539773 13.8786601 48.3539773 15.3190935 48.3539773 16.0392408 44.2172946 16.4456771 43.884983 16.5563088 43.8665212 16.6672181 43.9034448 16.7779887 43.9219065 16.2978442 45.2515694 16.0392408 46.7658499 15.0420283 47.8369093 14.6727932 48.2432068 14.174187 48.5201331 13.8232748 48.9448924L13.3800538 48.9448924C12.1611615 47.4121501 11.9396204 47.5967677 11.9396204 45.4731105 11.9396204 43.95883 12.2720708 42.2967167 12.4566884 40.7824363z"/>
      <path fill="#409ECC" d="M20.803762 42.0197904L20.8406856 42.0197904 20.8406856 41.9830057 20.803762 41.9830057 20.803762 42.0197904zM20.5451586 41.7982493L20.6191445 41.7982493 20.6191445 41.7242635 20.5451586 41.7242635 20.5451586 41.7982493zM20.5637592 42.3522408L20.656068 42.2783938 20.5819433 42.2414703 20.5082351 42.2967167 20.5637592 42.3522408zM20.5266969 42.9800793L20.656068 42.8877705 20.5451586 42.7585382 20.4343881 42.86917 20.5266969 42.9800793zM20.2865552 41.5027224C20.3234788 41.5027224 20.3420793 41.5027224 20.3604023 41.4657989L20.2865552 41.4657989 20.2865552 41.5027224zM20.3051558 42.6845524L20.3974646 42.5922436 20.3051558 42.4999348 20.2497705 42.5922436 20.3051558 42.6845524zM20.2865552 43.2017592L20.3974646 43.1094504 20.2865552 43.0170028 20.1759235 43.1094504 20.2865552 43.2017592zM20.0465524 43.4971473L20.139 43.4048385 20.0280907 43.3125297 19.9542436 43.4048385 20.0465524 43.4971473zM17.2581331 45.1591218L17.3504419 44.992966 17.2950567 44.992966C17.2581331 44.992966 17.1472238 44.992966 17.1472238 45.066813L17.2581331 45.1591218zM16.981068 45.3254164C16.981068 45.3254164 16.9626062 45.3254164 16.9626062 45.3438782 16.9626062 45.3623399 16.981068 45.3623399 16.981068 45.3623399 16.981068 45.3623399 16.9995297 45.3623399 16.9995297 45.3438782 16.9995297 45.3254164 16.981068 45.3254164 16.981068 45.3254164zM16.9995297 44.3096034L16.9995297 44.2358952 16.9626062 44.2728187 16.9995297 44.3096034zM16.9626062 43.7188272C16.9995297 43.7188272 17.0179915 43.7188272 17.0364533 43.6819037L16.9626062 43.6819037 16.9626062 43.7188272zM16.9995297 44.8268102L16.9995297 44.7529632C16.9626062 44.7529632 16.9440057 44.7529632 16.9256827 44.7897479 16.9440057 44.8268102 16.9626062 44.8268102 16.9995297 44.8268102zM16.981068 42.0936374L17.0364533 42.0197904C17.0364533 41.9830057 16.9995297 41.9459433 16.9626062 41.9459433L16.9256827 42.0197904 16.981068 42.0936374zM16.9995297 41.5765694C17.0364533 41.5765694 17.0733768 41.5396459 17.0733768 41.5027224 17.0733768 41.4657989 17.0364533 41.4287365 16.9995297 41.4287365L16.9256827 41.5027224 16.9995297 41.5765694zM16.9440057 43.2017592L17.0364533 43.1277734 16.9440057 43.0539263 16.8518357 43.1277734 16.9440057 43.2017592zM16.7040028 45.6763286L16.7779887 45.6763286 16.7040028 45.6392663 16.7040028 45.6763286zM16.6486176 47.7815241C16.6486176 47.7815241 16.6486176 47.7999858 16.6670793 47.7999858 16.6855411 47.7999858 16.6855411 47.7815241 16.6855411 47.7815241 16.6855411 47.7815241 16.6855411 47.7629235 16.6670793 47.7629235 16.6486176 47.7629235 16.6486176 47.7815241 16.6486176 47.7815241zM16.7040028 44.6051303L16.7410652 44.5312833 16.6486176 44.4943598C16.6486176 44.5312833 16.6670793 44.5866686 16.7040028 44.6051303zM16.7040028 44.0142153L16.7963116 43.9034448 16.6486176 43.9034448 16.7040028 44.0142153zM16.7040028 43.4602238L16.7779887 43.3863768 16.7040028 43.3125297 16.6301558 43.3863768 16.7040028 43.4602238zM16.7040028 42.3522408L16.7779887 42.2967167 16.7040028 42.2044079 16.6301558 42.2783938 16.7040028 42.3522408zM16.6486176 46.8210963L16.7040028 46.7473881 16.6486176 46.6735411 16.5932323 46.7473881 16.6486176 46.8210963zM16.6670793 43.0170028L16.7779887 42.86917 16.6670793 42.7585382 16.5932323 42.8877705 16.6670793 43.0170028zM16.5932323 41.8720963C16.6670793 41.8720963 16.8147734 41.8536346 16.8147734 41.7613258L16.7040028 41.6504164C16.6116941 41.6504164 16.5932323 41.7982493 16.5932323 41.8720963zM16.4084759 45.3806629L16.4455382 45.3806629 16.4455382 45.3438782 16.4084759 45.3806629zM16.4455382 43.7556119L16.5563088 43.6819037 16.4824618 43.6448414 16.4084759 43.7003654 16.4455382 43.7556119zM16.390153 44.8638725L16.537847 44.8638725C16.5193853 44.8083484 16.5009235 44.7529632 16.4455382 44.7159008L16.390153 44.8638725zM16.4269377 44.3466657L16.4455382 44.3466657 16.5193853 44.2728187 16.5193853 44.2542181 16.4455382 44.1988329 16.3716912 44.2728187C16.3716912 44.3096034 16.390153 44.3466657 16.4269377 44.3466657zM16.464 43.2386827L16.5563088 43.1277734 16.464 43.0539263 16.3716912 43.1646969 16.464 43.2386827zM16.4269377 42.6477677C16.4455382 42.6477677 16.464 42.6291671 16.4824618 42.6107054 16.464 42.5922436 16.4455382 42.5737819 16.4269377 42.5737819 16.4084759 42.5737819 16.390153 42.5922436 16.3716912 42.6107054 16.390153 42.6291671 16.4084759 42.6477677 16.4269377 42.6477677zM16.4455382 42.1676232L16.5563088 42.0567139 16.464 41.9459433 16.3716912 42.0567139 16.4455382 42.1676232zM16.537847 41.5581076L16.464 41.3919518 16.3716912 41.4842606 16.537847 41.5581076zM16.4269377 47.116762L16.5563088 47.0427762 16.4455382 46.9320057 16.3347677 47.0427762 16.4269377 47.116762zM16.4455382 45.9717167L16.5563088 45.8794079 16.4455382 45.7870992 16.3347677 45.8978697 16.4455382 45.9717167zM16.4084759 47.7076771L16.5563088 47.5598442 16.4084759 47.4859972 16.2978442 47.5783059 16.4084759 47.7076771zM16.1500113 47.3013796L16.1869348 47.3013796 16.1869348 47.2643173 16.1500113 47.2643173 16.1500113 47.3013796zM15.9653938 46.9320057C16.0023173 46.1563343 16.1315496 41.4842606 16.2609207 41.0595014L16.3347677 40.9856544 16.9995297 40.9856544C17.8121246 40.9856544 17.1841473 43.5709943 17.4427507 44.0511388 17.4612125 44.0696006 17.498136 44.0326771 17.5165977 44.0142153 18.0336657 42.4999348 18.3844391 41.669017 19.8065496 40.8010368L20.2865552 40.8010368C20.8222238 41.0964249 21.1729972 41.3733513 21.1729972 42.0382521L21.1729972 42.2414703C20.7483768 42.9431558 20.6191445 43.8295977 19.6033314 43.8295977 19.4556374 43.8295977 19.1785722 43.811136 19.1785722 43.6080567 19.1785722 42.9985411 20.0650142 42.6107054 20.0650142 41.8905581 20.0650142 41.6873399 19.9911671 41.4657989 19.7511643 41.4657989 18.0521275 41.4657989 17.1658244 46.6364788 16.9995297 47.9661416L16.8147734 48.150898C16.6301558 48.150898 15.8914079 48.0769122 15.8914079 47.8552323L15.8914079 47.0796997 15.9653938 46.9320057zM27.1748725 46.3410907C27.1748725 46.3410907 27.1564108 46.3410907 27.1564108 46.3595524 27.1564108 46.3780142 27.1748725 46.3780142 27.1748725 46.3780142 27.1748725 46.3780142 27.1933343 46.3780142 27.1933343 46.3595524 27.1933343 46.3410907 27.1748725 46.3410907 27.1748725 46.3410907zM27.1193484 47.4307507L27.1933343 47.4307507C27.1933343 47.3936884 27.1933343 47.3752266 27.1564108 47.3567649 27.1193484 47.3752266 27.1193484 47.3936884 27.1193484 47.4307507zM27.1193484 42.4445496L27.1564108 42.4445496 27.1564108 42.4074873 27.1193484 42.4074873 27.1193484 42.4445496zM27.137949 48.0584504L27.2302578 47.9846034 27.137949 47.9107564 27.0824249 47.9846034 27.137949 48.0584504zM27.0824249 46.9135439L27.1564108 46.9135439C27.1564108 46.8766204 27.1564108 46.8581586 27.1193484 46.8396969L27.0824249 46.9135439zM27.1564108 41.4104136L27.2302578 41.3733513 27.1748725 41.2996431 27.0824249 41.3550283 27.1564108 41.4104136zM26.9162691 41.6136317C26.9162691 41.6136317 26.8978074 41.6136317 26.8978074 41.6319547 26.8978074 41.6504164 26.9162691 41.6504164 26.9162691 41.6504164 26.9162691 41.6504164 26.9347309 41.6504164 26.9347309 41.6319547 26.9347309 41.6136317 26.9162691 41.6136317 26.9162691 41.6136317zM26.8608839 47.2090708L26.9347309 47.2090708C26.9347309 47.1720085 26.9347309 47.1536856 26.8978074 47.135085 26.8608839 47.1536856 26.8608839 47.1720085 26.8608839 47.2090708zM26.9347309 46.100949L26.9347309 46.027102 26.8608839 46.027102C26.8608839 46.0640255 26.8978074 46.100949 26.9347309 46.100949zM26.9162691 43.9219065L26.9717932 43.8665212 26.8978074 43.7742125 26.8608839 43.8479207 26.9162691 43.9219065zM26.8978074 47.7629235L26.9717932 47.7076771 26.8978074 47.6153683 26.8239603 47.7076771 26.8978074 47.7629235zM26.5839575 46.8210963C26.5839575 46.8210963 26.5654958 46.8210963 26.5654958 46.8396969 26.5654958 46.8581586 26.5839575 46.8581586 26.5839575 46.8581586 26.5839575 46.8581586 26.6024193 46.8581586 26.6024193 46.8396969 26.6024193 46.8210963 26.5839575 46.8210963 26.5839575 46.8210963zM26.5654958 44.1435864L26.6024193 44.1065241 26.5654958 44.1065241 26.5654958 44.1435864zM26.5654958 43.5525326L26.6024193 43.5157479 26.5654958 43.5157479 26.5654958 43.5525326zM26.5284334 45.2700312C26.5654958 45.2700312 26.6207422 45.2515694 26.6393428 45.2146459L26.5839575 45.1775836C26.547034 45.1775836 26.5284334 45.2331076 26.5284334 45.2700312zM26.2699688 43.294068C26.3068924 43.294068 26.3436771 43.2570057 26.3436771 43.220221L26.2699688 43.220221 26.2699688 43.294068zM23.2044844 47.5413824L23.315255 47.5413824 23.315255 47.3936884 23.2044844 47.3936884 23.2044844 47.5413824zM23.2044844 43.6080567C23.2598697 43.6080567 23.3521785 43.5894561 23.3521785 43.533932L23.2598697 43.4786856 23.2044844 43.4786856 23.2044844 43.6080567zM23.2967932 43.0723881L23.3521785 42.9800793 23.2598697 42.8877705 23.1674221 42.9800793 23.2967932 43.0723881zM23.2967932 42.5553201L23.4260255 42.4445496 23.2967932 42.333779 23.1674221 42.4260878 23.2967932 42.5553201zM23.2783314 42.0011898L23.3521785 41.8905581 23.2783314 41.7797875 23.1674221 41.8905581C23.1674221 41.9459433 23.2229462 42.0011898 23.2783314 42.0011898zM23.2414079 41.4473371L23.389102 41.3364278 23.2783314 41.2627195 23.1674221 41.3733513 23.2414079 41.4473371zM23.019728 47.2459943L23.0937139 47.2090708 22.9828045 47.0981615 22.9460198 47.1720085 23.019728 47.2459943zM22.9460198 45.5469575L23.0566516 45.5469575 23.0566516 45.436187 22.9460198 45.436187 22.9460198 45.5469575zM23.019728 44.992966L23.0566516 44.919119 23.0014051 44.845272 22.9460198 44.919119C22.9460198 44.9561813 22.9828045 44.992966 23.019728 44.992966zM22.9460198 43.294068L23.0566516 43.294068 23.0566516 43.1831586 22.9460198 43.1831586 22.9460198 43.294068zM22.9828045 47.7261388L23.0566516 47.6706147 22.9828045 47.6153683 22.9089575 47.6892153 22.9828045 47.7261388zM23.019728 46.7287875L23.0937139 46.618017 23.019728 46.5072465 22.9089575 46.5812323 23.019728 46.7287875zM22.9828045 46.2117195L23.1306374 46.100949 23.019728 45.953255 22.9089575 46.0826261 22.9828045 46.2117195zM22.9828045 44.4389745C23.0566516 44.4389745 23.0751133 44.328204 23.0751133 44.2728187 23.019728 44.2728187 22.9089575 44.2912805 22.9089575 44.3651275L22.9828045 44.4389745zM23.019728 43.884983L23.0566516 43.811136 22.9828045 43.7371501 22.9089575 43.7926742 23.019728 43.884983zM23.0014051 42.7768612L23.0937139 42.703153 23.019728 42.5922436 22.9089575 42.6845524 23.0014051 42.7768612zM23.019728 42.2228697L23.1306374 42.1676232 23.0014051 42.0382521 22.9089575 42.1305609 23.019728 42.2228697zM23.0014051 41.669017L23.0937139 41.6136317 23.0014051 41.5211841 22.9089575 41.6136317 23.0014051 41.669017zM22.9828045 41.1518102L23.0014051 41.1518102C23.0751133 41.1518102 23.0751133 41.0410397 23.0751133 40.9856544 23.019728 40.9856544 22.9460198 41.0225779 22.9089575 41.0779632L22.9828045 41.1518102zM22.6874164 44.1435864L22.7243399 44.1435864 22.7243399 44.1065241 22.6874164 44.1065241 22.6874164 44.1435864zM22.7243399 46.3966147C22.7980482 46.3966147 22.8351105 46.2857054 22.8535722 46.2301813L22.8166487 46.2301813C22.7612635 46.2301813 22.6504929 46.2487819 22.6504929 46.3224901L22.7243399 46.3966147zM22.7797252 45.8240227C22.7797252 45.7870992 22.7797252 45.7132521 22.7243399 45.6946516L22.6504929 45.7686374C22.6689547 45.8240227 22.7428017 45.8240227 22.7797252 45.8240227zM22.7797252 45.2700312L22.7243399 45.1037365 22.6504929 45.1960453 22.7797252 45.2700312zM22.7428017 44.7714249L22.8351105 44.6789773 22.7428017 44.5866686 22.7243399 44.5866686 22.6504929 44.6605156 22.7428017 44.7714249zM22.7797252 43.6080567C22.7797252 43.5709943 22.7797252 43.4971473 22.7243399 43.4786856L22.6504929 43.5525326C22.6689547 43.6080567 22.7428017 43.6080567 22.7797252 43.6080567zM22.7428017 43.0723881L22.8351105 42.9800793 22.7243399 42.8877705 22.6504929 42.9616176 22.7428017 43.0723881zM22.7428017 41.3733513L22.7980482 41.3733513C22.7797252 41.3181048 22.7612635 41.225796 22.6874164 41.225796L22.6504929 41.2996431 22.7428017 41.3733513zM22.6320312 42.3891643C22.6320312 42.4445496 22.6504929 42.5183966 22.7243399 42.5183966L22.7980482 42.4260878C22.7980482 42.3151785 22.7243399 42.3151785 22.6320312 42.3151785L22.6320312 42.3891643zM22.7057394 46.9873909L22.872034 46.8581586 22.7612635 46.7658499 22.6134306 46.8950822 22.7057394 46.9873909zM22.7057394 42.0011898L22.8351105 41.8905581 22.7612635 41.7797875 22.6134306 41.9274816 22.7057394 42.0011898zM22.4658754 44.9561813L22.5397224 44.9561813 22.5397224 44.8820567 22.4658754 44.8820567 22.4658754 44.9561813zM22.428813 45.5469575L22.4658754 45.5469575 22.4658754 45.4731105 22.428813 45.4731105 22.428813 45.5469575zM22.4472748 46.691864L22.5766459 46.5812323 22.4472748 46.4333994 22.354966 46.5626317 22.4472748 46.691864zM26.0853513 44.5498839C25.7529008 45.6392663 25.2544334 48.2432068 23.6292436 48.2432068 22.5766459 48.2432068 22.3918895 47.0796997 22.0965014 46.3224901L22.0965014 45.436187C22.1703484 45.2700312 22.2257337 45.0852748 22.2257337 44.8820567 22.2257337 43.6080567 22.4658754 42.2967167 22.4658754 41.0041161L22.4658754 40.7824363C22.4843371 40.7271898 22.5211218 40.634881 22.5766459 40.5978187L23.0937139 40.5978187C23.7584759 40.9118074 23.6475666 40.9302691 23.6475666 41.669017 23.6475666 43.1463739 23.4077025 44.6051303 23.4077025 46.0826261 23.4077025 46.4703229 23.3521785 47.652153 23.9986176 47.652153 25.4758357 47.652153 26.103813 41.3181048 26.5654958 41.0410397 27.0270397 41.0410397 27.4519377 40.8564221 27.6365552 41.3733513 27.6365552 43.1646969 27.4519377 44.9561813 27.4519377 46.7473881 27.4519377 47.116762 27.4702606 48.0584504 28.0059292 48.0584504 28.3751643 48.0584504 28.6522295 47.6892153 28.7814618 47.3936884L30.3695892 43.8479207 30.4804986 43.7742125 30.6649773 43.9034448C30.314204 44.5682068 29.2245439 48.6864278 27.6734788 48.6864278 25.7898244 48.6864278 26.2330453 45.4546487 26.2330453 44.5498839L26.1591983 44.475898 26.0853513 44.5498839z"/>
      <path fill="#409ECC" d="M34.3216544 42.86917L34.3956402 42.7214759 34.2108839 42.7214759 34.3216544 42.86917zM34.3216544 42.2967167C34.3216544 42.259932 34.3216544 42.186085 34.2661303 42.1676232L34.1922833 42.2414703C34.2108839 42.2967167 34.2847309 42.2967167 34.3216544 42.2967167zM34.0445892 41.4657989L34.0816516 41.3919518 34.0445892 41.3181048 33.970881 41.3919518 34.0445892 41.4657989zM32.0503031 47.8184476L32.0870878 47.7815241 32.0503031 47.7444618 32.0503031 47.8184476zM31.5516969 42.2783938C31.5516969 42.2414703 31.5330963 42.186085 31.4961728 42.1676232L31.4593881 42.2414703 31.5516969 42.2783938zM31.4593881 41.7242635C31.4961728 41.7242635 31.5330963 41.6873399 31.5330963 41.6504164L31.4593881 41.6504164 31.4593881 41.7242635zM31.4223258 44.7897479C32.7150652 44.7897479 33.8968952 43.367915 33.8968952 42.1305609 33.8968952 41.5765694 33.7122776 41.2073343 33.0658385 41.2073343 31.6992521 41.2073343 31.3115552 43.3125297 31.3115552 44.3651275L31.3115552 44.7529632C31.3484788 44.7714249 31.3854023 44.7897479 31.4223258 44.7897479zM31.1637224 43.0908499L31.2377082 43.0908499C31.2377082 43.0539263 31.2377082 43.0354646 31.2007847 43.0170028 31.1637224 43.0354646 31.1637224 43.0539263 31.1637224 43.0908499zM31.1637224 41.9274816C31.1637224 41.9644051 31.2007847 41.9830057 31.2377082 41.9830057L31.3115552 41.9274816 31.2377082 41.835034 31.1637224 41.908881 31.1637224 41.9274816zM31.2377082 42.5737819C31.2930935 42.5737819 31.3484788 42.5368584 31.3484788 42.4814731L31.3484788 42.4630113 31.2377082 42.3891643 31.1267989 42.4814731 31.2377082 42.5737819zM31.0160283 42.2783938L31.0160283 42.2414703 30.9791048 42.2414703 31.0160283 42.2783938zM30.9421813 46.1563343L31.0160283 46.1563343 31.0160283 46.0826261 30.9421813 46.0826261 30.9421813 46.1563343zM30.9606431 45.6392663L31.0160283 45.5654193C31.0160283 45.4915722 30.9421813 45.4731105 30.8869348 45.4731105 30.8869348 45.5286346 30.8869348 45.6392663 30.9606431 45.6392663zM30.9421813 46.7104646L31.0530907 46.6364788 30.9606431 46.5626317 30.8683343 46.6550793 30.9421813 46.7104646zM30.9421813 43.9772918L31.0160283 43.884983 30.9421813 43.8295977 30.8683343 43.884983 30.9421813 43.9772918zM30.9606431 43.4602238L31.0530907 43.3493144 30.9421813 43.2386827 30.8683343 43.3493144 30.9606431 43.4602238zM30.9237195 42.86917L31.0160283 42.7768612 30.9421813 42.6845524 30.8683343 42.7768612 30.9237195 42.86917zM30.6466544 44.2542181L30.7574249 44.1619093 30.6837167 44.1249858 30.6466544 44.1249858 30.6466544 44.2542181zM30.6466544 43.0908499L30.7205014 43.0908499 30.7205014 43.0170028C30.6837167 43.0170028 30.6466544 43.0539263 30.6466544 43.0908499zM30.6281926 45.3254164C30.7760255 45.3254164 31.0160283 45.2331076 31.0160283 45.066813L30.9237195 45.0114278C30.7574249 45.0114278 30.6281926 45.1591218 30.6281926 45.3254164zM30.7021785 44.7897479L30.7760255 44.6789773 30.6281926 44.6789773 30.7021785 44.7897479zM30.6837167 46.4889235L30.7205014 46.4889235 30.7574249 46.3780142 30.6837167 46.3041671 30.6651161 46.3041671 30.6098697 46.3966147C30.6098697 46.4333994 30.6281926 46.4889235 30.6837167 46.4889235zM30.6466544 45.9347932L30.6651161 45.9347932C30.7205014 45.9347932 30.7574249 45.8978697 30.7574249 45.8423456L30.6837167 45.7500368 30.5728074 45.8609462 30.6466544 45.9347932zM30.6651161 43.6819037L30.7574249 43.6263796 30.6651161 43.533932 30.6466544 43.533932 30.5728074 43.6080567 30.6651161 43.6819037zM30.3883286 44.4943598L30.4252521 44.4943598 30.4252521 44.4205127 30.3883286 44.4205127 30.3883286 44.4943598zM30.4252521 46.2301813L30.5358839 46.100949 30.4252521 46.0086402 30.3511275 46.100949 30.4252521 46.2301813zM30.3883286 45.0114278L30.4620368 44.9743654C30.4434363 44.9561813 30.4252521 44.9375807 30.4066516 44.9375807 30.3883286 44.9375807 30.369728 44.9561813 30.3511275 44.9743654L30.3883286 45.0114278zM30.4806374 45.6763286L30.5358839 45.6023428 30.4252521 45.4915722 30.3143428 45.5654193 30.4806374 45.6763286zM29.9080453 44.4574363C30.1480482 44.1619093 30.0557394 43.5709943 30.1665099 43.2017592 30.3883286 42.4074873 30.9791048 41.4657989 31.7178527 41.0595014 32.0503031 40.874745 32.4935241 40.8564221 32.7889122 40.653204L33.4536742 40.653204C34.0999745 41.225796 34.9310312 41.170272 34.9310312 42.259932 34.9310312 44.3835892 31.2746317 44.4205127 31.2746317 45.4731105 31.2746317 46.5072465 31.9210708 47.5967677 33.0473768 47.5967677 34.0445892 47.5967677 34.7833371 46.8581586 35.4850227 46.2672436L35.5036232 46.2672436 35.7065637 46.4889235C35.6882408 47.4859972 33.4167507 47.7629235 32.8627592 48.2246062L32.2350595 48.2246062C31.9763173 48.0216657 31.6254051 48.0030652 31.3484788 47.8552323 30.3329433 47.3198414 29.9080453 45.8794079 29.9080453 44.8083484L29.9080453 44.4574363zM15.9785807 30.9288555L15.8798867 31.7129943 15.8798867 31.9817309C15.8798867 32.8517932 15.8991813 33.4277167 15.9374929 33.7092238 15.9759433 33.9905921 16.0152266 34.2430878 16.0554816 34.4658782 16.0955977 34.6889462 16.1476516 34.8791161 16.2117819 35.0363881 16.2756346 35.1936601 16.3515637 35.3416317 16.4392918 35.4804419 16.6147479 35.7584788 16.8578045 35.897289 17.1687394 35.897289 17.2965836 35.897289 17.4556601 35.8305212 17.64583 35.6969858 17.8358612 35.5638669 17.9803626 35.4969603 18.0790567 35.4969603 18.1777507 35.4969603 18.2836629 35.5535949 18.3970708 35.6670028 18.3970708 36.0435949 18.1833031 36.3121926 17.7554901 36.4730737 17.5433881 36.5498357 17.313102 36.5882861 17.0644929 36.5882861 16.8158839 36.5882861 16.6037819 36.5380368 16.4283258 36.4372606 16.2528697 36.3370397 16.1065637 36.2071133 15.9895467 36.0480368 15.8725297 35.8890992 15.7702266 35.6853258 15.6824986 35.4365779 15.5947705 35.1879688 15.5252266 34.9413031 15.4741445 34.6963031 15.4302805 34.4476941 15.3936346 34.1624391 15.3644844 33.8408159 15.3206204 33.2998725 15.296745 32.7072918 15.293136 32.0639065L15.304102 30.7203626C15.304102 30.2926884 15.3297819 29.9471898 15.3810028 29.6838669 15.358932 29.5632408 15.347966 29.4462238 15.347966 29.3330935 15.347966 28.8723824 15.519813 28.5059235 15.8635071 28.2335779 16.2070623 27.9612323 16.6312663 27.8249207 17.1358414 27.8249207 17.3149065 27.8249207 17.4902238 27.87517 17.6622096 27.9756686 17.8340567 28.0764448 17.9199802 28.2087309 17.9199802 28.3733598 17.9199802 28.4537309 17.8888867 28.5159178 17.8266997 28.5597819 17.7646516 28.6036459 17.6594334 28.6255779 17.5114618 28.6255779 17.3633513 28.6255779 17.261881 28.5799093 17.207051 28.4885722L17.207051 28.4939858 17.0535269 28.4939858 17.0535269 28.4666402C16.6183569 28.4666402 16.3222748 28.6018414 16.1651416 28.8723824 16.0188357 29.1208527 15.9458215 29.5486657 15.9458215 30.1555439L15.9785807 30.9288555M20.9935156 28.9079178C20.9185581 28.7159433 20.8254164 28.5679717 20.7139518 28.4637252 20.6023484 28.3596176 20.4918555 28.3075637 20.3820567 28.3075637 20.2723966 28.3075637 20.1818924 28.3458754 20.1106827 28.4226374 20.0393343 28.4995382 19.9790907 28.6082266 19.9296742 28.7489802 19.8802578 28.8897337 19.8363938 29.0404816 19.7980822 29.2013626 19.7596317 29.3622436 19.7303428 29.5478329 19.7103541 29.7578527 19.6902266 29.968289 19.6728754 30.1592918 19.6583003 30.331 19.6473343 30.4990992 19.638034 30.6856601 19.6306771 30.8904051 19.6234589 31.2303513 19.6179065 31.4954788 19.6142975 31.6855099L19.6142975 31.7349263C19.6142975 32.2358924 19.6527479 32.7760028 19.7295099 33.3553966 19.806272 33.9349292 19.8858102 34.4093824 19.9681246 34.7784788 20.0503003 35.1477139 20.1607932 35.4612861 20.299881 35.7190567 20.4386912 35.9768272 20.5940198 36.1056431 20.7660057 36.1056431 20.9157819 36.1056431 21.0419603 35.9648895 21.1444023 35.6833824 21.2467054 35.3982663 21.3198584 35.0473541 21.3637224 34.6303683 21.4368754 33.8846799 21.4743541 33.3608102 21.4761586 33.0593144 21.4779632 32.7578187 21.4779632 32.5375269 21.4761586 32.3985779 21.4743541 32.2596289 21.4688017 32.0576601 21.4596402 31.7925326 21.4504788 31.5274051 21.4350708 31.278796 21.4131388 31.0467054 21.3912068 30.8146147 21.3627507 30.5576771 21.3280482 30.2763088 21.2932068 29.9946629 21.2475382 29.7442493 21.1910425 29.5247904 21.1342691 29.3054703 21.0684731 29.0998924 20.9935156 28.9079178zM21.9889235 33.0182266L21.8902295 34.4385326 21.8902295 34.4878102C21.8426176 34.6963031 21.818881 34.9211756 21.818881 35.162289 21.818881 35.4036799 21.7768215 35.636881 21.6927025 35.8614759 21.6085836 36.0864873 21.4807394 36.2858187 21.3088924 36.4593314 21.1370453 36.632983 20.9488187 36.7198782 20.7439348 36.7198782 20.5391898 36.7198782 20.3529065 36.6503343 20.1846686 36.5115241 20.0164306 36.3727139 19.8776204 36.1943428 19.7679603 35.9768272 19.6583003 35.7593116 19.561272 35.4997365 19.477153 35.198102 19.393034 34.8964674 19.3282096 34.6021898 19.2825411 34.3151303 19.2367337 34.0280708 19.1993938 33.7256034 19.1701048 33.4074504 19.1262408 32.9213371 19.1051416 32.5439122 19.107085 32.2750368 19.1088895 32.0064391 19.1079178 31.7760142 19.1043088 31.5840397 19.1006997 31.392204 19.0969518 31.2195241 19.0933428 31.0658612 19.0933428 30.9889603 19.0933428 30.9041473 19.0933428 30.810728 19.0933428 30.7175864 19.0933428 30.6181983 19.0933428 30.5120085 19.0969518 30.2962975 19.1034759 30.1025184 19.1124986 29.9305326 19.1216601 29.7588244 19.1380397 29.5732351 19.161915 29.3740425 19.1856516 29.1748499 19.2157734 28.9993938 19.2524193 28.8476742 19.2889263 28.6960935 19.338204 28.5470113 19.4005297 28.4007054 19.4663258 28.2509292 19.5393399 28.1284986 19.6198499 28.0334136 19.8025241 27.8213116 20.0128215 27.7152606 20.2506034 27.7152606 20.4881076 27.7152606 20.6910482 27.7582918 20.8591473 27.8440765 21.0273853 27.93 21.1691105 28.0681161 21.2841841 28.2582861 21.3993966 28.4483173 21.4998952 28.6329348 21.5858187 28.812 21.6717422 28.991204 21.7394816 29.2407847 21.7887592 29.5604646 21.8381756 29.8804221 21.8773201 30.1390255 21.9066091 30.3365524 21.935898 30.5376884 21.9560255 30.8244703 21.9669915 31.1974533 21.9815666 31.6984193 21.9889235 32.0894476 21.9889235 32.3710935L21.9889235 33.0182266zM23.0416601 33.8627479L23.0033484 29.5138244C23.0033484 29.0278499 23.008762 28.5432635 23.019728 28.0607592L23.3324674 27.8853031C23.5552578 27.8998782 23.8094193 28.4959292 24.0945354 29.6729008 24.3249603 30.6344391 24.5112436 31.4981161 24.6539405 32.2640708 24.7963598 33.0301643 24.8750652 33.4459008 24.889779 33.5116969 24.941 33.2704448 25.0359462 32.8391615 25.1747564 32.2174306 25.3137054 31.5961161 25.4180907 31.1134731 25.4873569 30.7696402 25.6922408 29.764238 25.8184193 28.8705779 25.8658924 28.0882436L25.8658924 28.0223088C25.8804674 27.9272238 25.926136 27.8504618 26.0030368 27.7920227 26.0799377 27.7335836 26.1600312 27.7042946 26.244289 27.7042946 26.3285467 27.7042946 26.3968414 27.7344164 26.4498669 27.7947989 26.5027535 27.8550425 26.5294051 27.9200057 26.5294051 27.9894108 26.5294051 28.8852918 26.5632748 30.2268924 26.6308754 32.0146289 26.6984759 33.8023654 26.7323456 35.1442436 26.7323456 36.039847 26.7323456 36.219051 26.6847337 36.3742408 26.5899263 36.5059717 26.4947025 36.6377025 26.4033654 36.7033598 26.3154986 36.7033598 26.1328244 36.7033598 26.0413484 36.5553881 26.0413484 36.2591671L25.9974844 31.5319858 25.9974844 30.9616147C25.9462635 31.2504788 25.8311898 31.7560255 25.6519858 32.4779773 25.4727819 33.200068 25.3577082 33.7530878 25.3064873 34.136898L25.3064873 34.2082465C25.2991303 34.2375354 25.2883031 34.3070793 25.2735892 34.4166006 25.259153 34.5262606 25.2434674 34.6167649 25.2270878 34.6881133 25.2104306 34.7593229 25.1858612 34.8388612 25.1529632 34.926728 25.0835581 35.1020453 24.9683456 35.1899122 24.8074646 35.1899122 24.5405326 35.1899122 24.407136 34.8408045 24.407136 34.1423116 24.407136 33.4514533 24.238898 32.4843626 23.9025609 31.2413173 23.7344618 30.6197252 23.6266062 30.1992691 23.5789943 29.979949 23.5644193 30.5796091 23.5570623 31.0311586 23.5570623 31.3345977L23.6503428 35.952119C23.6503428 36.1131388 23.5937082 36.2536147 23.4803003 36.3742408 23.2865212 36.3742408 23.155762 36.3121926 23.0881615 36.1879575 23.0205609 36.0635836 22.98683 35.8954844 22.98683 35.6833824L23.0416601 33.8627479M28.9366516 32.2941926L28.656949 32.2832266C28.547289 32.2832266 28.4705269 32.3108499 28.4266629 32.3655411L28.4266629 35.8314929C28.8106119 35.8095609 29.0191048 35.7985949 29.0520028 35.7985949 29.4796771 35.7985949 29.6934448 35.897289 29.6934448 36.0948159L29.6934448 36.1331275C29.6422238 36.2354306 29.5544958 36.3139972 29.4302606 36.3688272 29.3058867 36.423796 29.1962266 36.4547507 29.1011416 36.4621076 29.0060567 36.4694646 28.8836261 36.4730737 28.733711 36.4730737L28.3827989 36.4730737C28.1049008 36.4730737 27.9331926 36.4182436 27.8672578 36.3085836 27.8379688 36.2573626 27.8233938 36.1899008 27.8233938 36.1056431L27.8233938 29.5796204C27.8233938 29.4517762 27.7978527 29.2616062 27.7466317 29.0095269 27.6955496 28.75717 27.6698697 28.5653343 27.6698697 28.4336034L27.6698697 28.3952918C27.7941048 28.1905467 27.8873853 28.0589547 27.949711 28.0003768L28.7831275 27.9016827C28.8963966 27.9016827 29.0107762 27.9355524 29.1258499 28.003153 29.2409235 28.0708924 29.2985297 28.1594533 29.2985297 28.2691133 29.2985297 28.4921813 29.1287649 28.6036459 28.7886799 28.6036459L28.4651133 28.5926799C28.4101445 28.5926799 28.3700283 28.5944844 28.3443484 28.5980935L28.4320765 30.4516261C28.4320765 30.6014023 28.4230538 30.8201671 28.4047309 31.106949 28.3864079 31.3940085 28.3773853 31.6033343 28.3773853 31.7349263 28.4175014 31.7277082 28.4723314 31.7147989 28.5418754 31.6964759 28.6955382 31.6563598 28.8150538 31.6363711 28.9011161 31.6363711 28.9869008 31.6363711 29.0636629 31.6673258 29.1312635 31.7293739 29.1990028 31.7916997 29.2328725 31.8665184 29.2328725 31.9543853 29.2328725 32.0419745 29.2053881 32.1206799 29.1506969 32.1902238 29.095728 32.2596289 29.0245184 32.2941926 28.9366516 32.2941926M12.7391671 12.2488895C12.7391671 12.2488895 12.3498045 7.79946742 10.6256431 7.0764051 8.90148159 6.35334278 10.0695694 10.6915779 12.7391671 12.2488895M11.3280227 12.8924136C11.3280227 12.8924136 7.54239093 10.5222295 5.92650142 11.4626686 4.3106119 12.4031076 8.47672238 14.0847932 11.3280227 12.8924136M10.8206714 11.7477847C10.8206714 11.7477847 9.05320113 7.64580453 7.18911898 7.50116431 5.32517564 7.35638527 7.79683003 11.1080085 10.8206714 11.7477847M33.156204 12.2488895C33.156204 12.2488895 33.5455666 7.79946742 35.269728 7.0764051 36.9938895 6.35334278 35.8259405 10.6915779 33.156204 12.2488895M34.5672096 12.8924136C34.5672096 12.8924136 38.3529802 10.5222295 39.9688697 11.4626686 41.5847592 12.4031076 37.4186487 14.0847932 34.5672096 12.8924136M35.0748385 11.7477847C35.0748385 11.7477847 36.84217 7.64580453 38.7062521 7.50116431 40.5701955 7.35638527 38.0985411 11.1080085 35.0748385 11.7477847M23.424221 2.62795467C23.424221 2.62795467 25.1829462.892549575 26.5940907.547189802 28.0053739.201830028 27.0693768 1.65045326 27.0356459 1.97707365 27.001915 2.30369405 26.8935042 3.39266006 26.228187 3.32436544 25.5627309 3.25620963 24.6490822 3.0747847 24.6153513 3.21845326 24.5816204 3.36184419 25.7320793 3.64487819 25.9569518 3.92763456 26.1818244 4.21039093 26.5130255 4.91429745 25.8603399 5.57767139 25.2076544 6.24104533 24.2883144 5.96120397 23.9078357 5.44885552 23.5276346 4.93664589 23.2290538 4.29575921 23.2290538 4.29575921 23.2290538 4.29575921 23.1214759 4.44706232 23.0366629 4.4413711 22.951711 4.4358187 23.1622861 2.53758924 23.1622861 2.53758924 23.1622861 2.53758924 23.2146176 2.48012181 23.424221 2.62795467"/>
      <path fill="#409ECC" d="M22.9057649,2.59366856 C22.9057649,2.59366856 21.3900963,0.642413598 20.0364193,0.114657224 C18.682881,-0.41309915 19.4203796,1.14587819 19.4109405,1.4740255 C19.4013626,1.8021728 19.3658272,2.89613598 20.0344759,2.91570822 C20.7029858,2.93555807 21.6325977,2.87586969 21.6471728,3.02259207 C21.6618867,3.16931445 20.4840822,3.29868555 20.2239518,3.54937677 C19.9639603,3.8002068 19.5432266,4.45455807 20.1030482,5.19788669 C20.6630085,5.9412153 21.6110822,5.78449858 22.0555524,5.32670255 C22.4998839,4.86876771 22.880085,4.27271671 22.880085,4.27271671 C22.880085,4.27271671 22.9667025,4.43679037 23.0515156,4.44234278 C23.1366062,4.44789518 23.1772776,2.53856091 23.1772776,2.53856091 C23.1772776,2.53856091 23.1327195,2.47470822 22.9057649,2.59366856"/>
      <polyline fill="#409ECC" points="38.722 16.915 38.034 16.327 37.159 16.561 37.505 15.724 37.013 14.964 37.915 15.035 38.486 14.332 38.697 15.213 39.542 15.538 38.77 16.011 38.722 16.915"/>
      <polyline fill="#409ECC" points="11.462 40.75 10.586 40.518 9.899 41.108 9.849 40.204 9.076 39.732 9.921 39.405 10.13 38.524 10.702 39.226 11.604 39.153 11.113 39.914 11.462 40.75"/>
      <polyline fill="#409ECC" points="16.881 5.3 15.984 5.177 15.374 5.846 15.214 4.955 14.389 4.582 15.187 4.154 15.287 3.254 15.94 3.881 16.827 3.698 16.433 4.513 16.881 5.3"/>
      <path fill="#409ECC" d="M33.5033683 35.1610397C33.4489547 35.1610397 33.3955127 35.1350822 33.3627535 35.0866374L32.519204 33.8460907C32.4663173 33.7682181 32.4864448 33.6624448 32.5641785 33.6095581 32.6419122 33.5568102 32.7478244 33.5767989 32.8005722 33.6546714L33.643983 34.8952181C33.6968697 34.9729518 33.6766034 35.0787252 33.5990085 35.1314731 33.5695807 35.1514618 33.5364051 35.1610397 33.5033683 35.1610397M32.7117337 31.7828159C32.6786969 31.7828159 32.6452436 31.773238 32.6158159 31.7531105 32.538221 31.700085 32.5185099 31.5941728 32.5713966 31.5165779L33.3628924 30.360289C33.4160567 30.2828329 33.52183 30.2628442 33.5994249 30.3158697 33.6770198 30.369034 33.6968697 30.4748074 33.6437054 30.5524023L32.8523484 31.70883C32.8193116 31.7569972 32.7660085 31.7828159 32.7117337 31.7828159M11.2693059 35.1610397C11.2364079 35.1610397 11.2030935 35.1514618 11.1738045 35.1314731 11.0962096 35.0787252 11.0759433 34.9729518 11.12883 34.8952181L11.9722408 33.6546714C12.0249887 33.5769377 12.130762 33.5566714 12.2086346 33.6095581 12.2862295 33.6624448 12.3064958 33.7682181 12.2536091 33.8460907L11.4101983 35.0866374C11.3773003 35.1350822 11.3238584 35.1610397 11.2693059 35.1610397M12.0610793 31.7828159C12.0068045 31.7828159 11.9533626 31.7569972 11.9204646 31.70883L11.1291076 30.5524023C11.0760822 30.4748074 11.095932 30.3688952 11.1735269 30.3158697 11.2511218 30.262983 11.357034 30.2828329 11.4099207 30.360289L12.2012776 31.5165779C12.2543031 31.5941728 12.2345921 31.7002238 12.1569972 31.7531105 12.1275694 31.773238 12.0939773 31.7828159 12.0610793 31.7828159"/>
      <path fill="#FFFFFE" d="M12.3707649 12.0696856C12.3707649 12.0696856 11.9814023 7.62012465 10.2573796 6.89720113 8.53321813 6.17413881 9.70116714 10.5123739 12.3707649 12.0696856M10.9597592 12.7132096C10.9597592 12.7132096 7.17412748 10.3430255 5.55823796 11.2834646 3.94220963 12.2237649 8.10832011 13.9054504 10.9597592 12.7132096M10.4522691 11.5684419C10.4522691 11.5684419 8.68479887 7.46660057 6.82071671 7.32182153 4.95677337 7.1771813 7.42856657 10.9286657 10.4522691 11.5684419M32.7879405 12.0696856C32.7879405 12.0696856 33.1773031 7.62012465 34.9013258 6.89720113 36.6254873 6.17413881 35.4573994 10.5123739 32.7879405 12.0696856M34.1989462 12.7132096C34.1989462 12.7132096 37.9847167 10.3430255 39.6004674 11.2834646 41.2164958 12.2237649 37.0503853 13.9054504 34.1989462 12.7132096M34.7064363 11.5684419C34.7064363 11.5684419 36.4739065 7.46660057 38.3378499 7.32182153 40.201932 7.1771813 37.7301388 10.9286657 34.7064363 11.5684419M23.0558187 2.4486119C23.0558187 2.4486119 24.8145439.713345609 26.2258272.367985836 27.6371105.0226260623 26.7009745 1.47111048 26.6672436 1.79773088 26.6336516 2.12435127 26.5252408 3.21331728 25.8599235 3.14516147 25.1944674 3.07686686 24.2808187 2.89558074 24.246949 3.03911048 24.2132181 3.18264023 25.3638159 3.46567422 25.5886884 3.74829178 25.8135609 4.03104816 26.144762 4.73509348 25.4919377 5.39846742 24.8392521 6.06184136 23.9199122 5.78186119 23.5395722 5.26965156 23.1592323 4.75730312 22.8605127 4.11655524 22.8605127 4.11655524 22.8605127 4.11655524 22.7530737 4.26771955 22.6682606 4.26216714 22.5833088 4.25661473 22.7938839 2.35824646 22.7938839 2.35824646 22.7938839 2.35824646 22.8463541 2.30077904 23.0558187 2.4486119"/>
      <polyline fill="#0E0F2A" points="38.354 16.736 37.665 16.148 36.79 16.381 37.137 15.545 36.644 14.785 37.547 14.856 38.117 14.153 38.329 15.033 39.174 15.358 38.402 15.831 38.354 16.736"/>
      <polyline fill="#0E0F2A" points="11.093 40.571 10.218 40.339 9.531 40.929 9.481 40.024 8.708 39.553 9.552 39.226 9.762 38.345 10.333 39.047 11.236 38.974 10.745 39.735 11.093 40.571"/>
      <polyline fill="#0E0F2A" points="16.513 5.121 15.616 4.998 15.006 5.667 14.845 4.776 14.02 4.403 14.818 3.975 14.918 3.075 15.572 3.702 16.459 3.518 16.065 4.334 16.513 5.121"/>
      <path fill="#0E0F2A" d="M32.176898 33.7161643L33.0204476 34.956711C33.0849943 35.051796 33.2145042 35.0765042 33.309728 35.0118187 33.404813 34.9471331 33.4293824 34.8176232 33.3646969 34.7225382L32.5211473 33.4819915C32.4566006 33.3869065 32.3270907 33.3621983 32.2318669 33.4268839 32.1367819 33.4915694 32.1122125 33.6210793 32.176898 33.7161643M32.5730623 31.5791813L33.3644193 30.4227535C33.4293824 30.3278074 33.4050907 30.1982975 33.3101445 30.1333343 33.2153371 30.0683711 33.0856884 30.0926629 33.0207252 30.1876091L32.2293683 31.3440368C32.1644051 31.4388442 32.1886969 31.5684929 32.2836431 31.6334561 32.3784504 31.6984193 32.5080992 31.6741275 32.5730623 31.5791813M11.6299348 33.4819915L10.7865241 34.7225382C10.7219773 34.8176232 10.7465467 34.9471331 10.8416317 35.0118187 10.9368555 35.0765042 11.0662266 35.051796 11.1309122 34.956711L11.9743229 33.7161643C12.0390085 33.6209405 12.0143003 33.4914306 11.9192153 33.4268839 11.8241303 33.3621983 11.6946204 33.3869065 11.6299348 33.4819915M11.9218527 31.3440368L11.1306346 30.1876091C11.0656714 30.0926629 10.9360227 30.0683711 10.8412153 30.1333343 10.7462691 30.1982975 10.7219773 30.3278074 10.7869405 30.4227535L11.5782975 31.5791813C11.6431218 31.6741275 11.7727705 31.6984193 11.8677167 31.6334561 11.9625241 31.5684929 11.9868159 31.4388442 11.9218527 31.3440368"/>
    </g>
    <rect width="50" height="50"/>
  </g>
</svg>
