<svg xmlns="http://www.w3.org/2000/svg" width="50" height="50" viewBox="0 0 50 50">
  <g fill="none" fill-rule="evenodd">
    <g transform="translate(6.856 1)">
      <path fill="#413E08" d="M14.5353052 3.27989968C14.7182756 3.93468771 14.882353 4.61458187 14.9078395 5.28927728 14.9629969 6.74771491 14.8639672 8.20133419 14.3428249 9.59180776 14.2312422 9.8895309 14.0803518 10.1419869 13.7100999 10.0898727 13.1329126 10.0085948 12.4908044 10.0387729 12.2525498 9.31170963 11.941386 8.36224162 12.0575336 7.36991569 11.9511495 6.5383704 11.9591378 5.32008934 12.105083 4.2639837 12.5271956 3.26265507 12.7034457 2.84447325 12.8864161 2.36390651 13.4447104 2.3833067 14.0016099 2.40258009 14.3926568 2.76915487 14.5353052 3.27989968zM12.0622251 2.55017367C11.6707978 3.17072608 11.4023651 3.8535366 11.2650422 4.57806387 11.0288164 5.82386022 11.1146591 7.08436522 11.1538399 8.3368819 11.2054469 9.9899554 12.1115498 11.03541 13.7177078 11.4128894 14.6278682 11.6267987 15.3790232 11.1557418 15.6657148 10.2592757 16.1150891 8.85396664 15.9487293 7.41239323 15.982331 5.9813441 15.942643 5.41265233 15.9652132 4.8303931 15.8456421 4.27907274 15.726071 3.72775238 15.5198964 3.1774464 15.2541266 2.67874746 14.5287117 1.31781797 12.8774134 1.25809582 12.0622251 2.55017367zM7.34341478 3.01095983C8.31291696 3.13877283 8.7659684 3.78316337 9.0125917 4.60900273 9.32616467 5.65965602 9.30105854 6.73503504 9.00219422 7.78644913 8.74466624 8.6929324 8.03751038 9.20824196 7.231832 9.58407304 6.69902424 9.83259832 6.58756826 9.4514417 6.58173552 9.04200898 6.56854847 8.12893218 6.57755117 7.21547498 6.57755117 6.30227138 6.57387401 6.30227138 6.57007005 6.30227138 6.56639289 6.30227138 6.56639289 5.41189153 6.57336681 4.52138489 6.56385692 3.63113184 6.55789738 3.07347154 6.81276259 2.94096699 7.34341478 3.01095983zM6.49525887 10.8265726C7.91071177 10.5828657 8.96960697 9.79506593 9.5607421 8.50311488 10.0531011 7.42710187 10.0879707 6.26981094 9.83982584 5.09768457 9.44484817 3.23184301 8.20615253 2.16787586 6.47180113 2.24116546 5.94292412 2.26348201 5.68273337 2.49742545 5.65965602 3.03416397 5.5980319 4.46749548 5.51967035 5.90019299 5.44790234 7.3330173 5.47072609 8.26929824 5.49862178 9.20063404 5.61793928 10.1309555 5.6890733 10.6862066 5.98705004 10.9141905 6.49525887 10.8265726zM18.6315344 10.5066597C18.8801864 9.82917476 19.1557198 9.00954854 19.4824798 8.21084408 19.7242848 7.61983575 19.962793 7.03187059 20.1053146 6.40789463 20.201428 5.98730363 20.4666907 5.69731521 20.8937484 5.67639344 21.3497162 5.65395008 21.388263 6.07580906 21.4841227 6.39331279 21.8695905 7.66928721 21.9496004 9.01943883 22.4311816 10.2743647 22.5475827 10.577667 22.3823641 10.8032417 22.0857821 10.9183748 21.8078396 11.0261537 21.5803629 10.9356194 21.4506479 10.682783 21.3374167 10.4621534 21.2709743 10.2171785 21.1895696 9.9809527 21.0878771 9.68538513 21.0592206 9.36585263 20.5934893 9.38309725 20.1340979 9.40008826 19.7949116 9.49835718 19.6785105 9.99274497 19.6106732 10.280451 19.5468935 10.5717074 19.4448207 10.847748 19.3459177 11.1156735 19.1285849 11.2329622 18.8418933 11.1483875 18.5860137 11.0730691 18.5800541 10.8663874 18.6315344 10.5066597M23.8438449 9.3232483C23.9934672 8.31152218 23.9915653 7.07980047 23.9960032 5.84795196 23.9966372 5.69249686 24.0231381 5.52385471 24.0881858 5.38501023 24.2105465 5.12443908 24.4159602 4.91813774 24.7268704 4.96201006 25.071509 5.01070073 25.1361763 5.30208394 25.1218481 5.58738081 25.0712554 6.58896304 25.034991 7.59282765 24.9340593 8.58984513 24.8321133 9.59776729 24.856839 9.64595077 25.820128 9.43064672 26.1481561 9.35723033 26.5405978 9.19480131 26.6558577 9.6973042 26.7608469 10.1554276 26.3878054 10.282353 26.0505211 10.3662937 25.7199571 10.4487128 25.3759525 10.4759745 25.039429 10.5362038 23.8787145 10.7440267 23.8144276 10.6917857 23.8438449 9.3232483M28.4751642 9.76729704C28.6249133 8.75557092 28.6230113 7.52384921 28.6274493 6.2920007 28.6280833 6.1365456 28.6545842 5.96790345 28.7196319 5.82905897 28.8419925 5.56861462 29.0474063 5.36218648 29.3583165 5.4061856 29.7029551 5.45474946 29.7676224 5.74613267 29.7532942 6.03142955 29.7027015 7.03301178 29.6664371 8.03687639 29.5655054 9.03389387 29.4635593 10.041816 29.4882851 10.0899995 30.4515741 9.87469546 30.7796021 9.80127907 31.1720438 9.63885004 31.2873038 10.1413529 31.392293 10.5994763 31.0192515 10.7264017 30.6819672 10.8103424 30.3514032 10.8927615 30.0073986 10.9200232 29.6708751 10.9803794 28.5101606 11.1882023 28.4458737 11.1358345 28.4751642 9.76729704"/>
      <path fill="#763F2E" d="M19.8338388,13.9412537 C23.6394455,13.7353328 27.4506314,13.4294945 31.2514198,13.7348256 C31.5765314,13.7609461 31.5751366,13.2734054 31.2514198,13.2474117 C27.4506314,12.9420807 23.6394455,12.8922488 19.8338388,13.0981698 C19.5093612,13.115668 19.507586,13.9588787 19.8338388,13.9412537"/>
      <path fill="#8A5B12" d="M19.8895034,15.1452065 C23.5080822,15.1041238 27.1267877,15.2476598 30.7454933,15.2067039 C31.0709853,15.2030267 31.0717461,14.5047468 30.7454933,14.5084239 C27.1267877,14.5493799 23.5080822,14.5903358 19.8895034,14.6314186 C19.5638846,14.6350957 19.5631238,15.1620708 19.8895034,15.1583936 L19.8895034,15.1452065"/>
      <path fill="#413E08" d="M30.1524562 1.19254094C30.0871549 1.14765423 29.9810245 1.13408678 29.8941674 1.1593197 29.8511827 1.17174597 29.7943769 1.19913447 29.7690172 1.25860302 29.5665198 1.73168864 29.490821 2.35148025 29.4733228 2.5205028 29.4720548 2.53622583 29.4709137 2.54966648 29.4693921 2.56120515 29.4691385 2.56336073 29.4690117 2.56450192 29.4690117 2.56462871L29.4688849 2.56462871C29.4674901 2.57388501 29.4658417 2.58187333 29.4635593 2.58872045 29.460643 2.71120791 29.4749712 2.89252992 29.5398921 2.93703624 29.5893436 2.97101826 29.6467833 2.98179615 29.7018139 2.9675947 29.7628041 2.95174488 29.8144111 2.90698497 29.8469983 2.84143008 29.9474228 2.6390595 30.0884229 2.44974917 30.2247314 2.26665198 30.3573628 2.08824633 30.4946857 1.90375435 30.5897846 1.71241525 30.6355589 1.62010586 30.3923592 1.35725234 30.1524562 1.19254094M34.6847458 7.44523407C34.6610344 7.40706768 34.6196981 7.359645 34.5552844 7.3512763 34.0454272 7.28369264 33.4286787 7.37752361 33.2606706 7.40630689 33.2450743 7.40935006 33.2316337 7.41188603 33.220095 7.41353441 33.2180662 7.41391481 33.216925 7.41416841 33.2167982 7.41416841L33.2166714 7.41391481C33.2074151 7.4151828 33.1993 7.41568999 33.1920725 7.41530959 33.073389 7.44548766 32.9025913 7.50825298 32.8772316 7.58268376 32.8578314 7.63948954 32.8627765 7.6978169 32.8913062 7.74688796 32.9231327 7.80141137 32.9800652 7.83881696 33.05196 7.85263801 33.2739844 7.89486194 33.4943604 7.97956342 33.7073821 8.06160212 33.9149514 8.14148524 34.1294946 8.22403114 34.3393463 8.2638459 34.4405316 8.28324609 34.6281936 7.97816863 34.7221514 7.70276205 34.7477647 7.62795087 34.7322952 7.52194723 34.6847458 7.44523407"/>
      <path fill="#62604F" d="M33.4173936 3.22613707C33.406489 3.22106513 33.3955843 3.21662717 33.3849332 3.21295001 33.3116436 3.18771709 33.2429188 3.19684659 33.1805338 3.24021172 32.997183 3.36739072 32.8629033 3.55023432 32.7207621 3.7439826 32.5781136 3.93811127 32.4306469 4.13896027 32.2285299 4.27907274 32.1306413 4.3470368 32.0792879 4.44213575 32.0872762 4.54002428 32.0938697 4.61787863 32.1374885 4.68508189 32.2012682 4.71500637 32.269993 4.7483544 32.3553285 4.73288497 32.4407907 4.67354322L33.5965601 3.8716688C33.6900107 3.80674791 33.7026905 3.70885938 33.6968578 3.63810576 33.6831635 3.47453555 33.5605493 3.29359393 33.4173936 3.22613707M26.5589836 1.314648C26.5159988.964937433 26.4714925.603307793 26.4170959.30228789 26.4027677.222531563 26.3410167.169910139 26.2563153.140746459 26.1614699.108159216 26.0378413.105116049 25.9195382.126418216 25.6877503.168261757 25.4696567.303048681 25.5016099.47942555 25.5549921.775119912 25.6877503 1.0954132 25.8161973 1.40518221 25.947307 1.72154475 26.0829816 2.04881196 26.1390266 2.35870777 26.1659079 2.50769614 26.2725455 2.56678429 26.3337892 2.58884725 26.4424556 2.62790122 26.5634215 2.6112906 26.6377255 2.54827169 26.6960529 2.49894703 26.7182426 2.42489664 26.7018856 2.33423564 26.646855 2.02966537 26.6022219 1.66626055 26.5589836 1.314648"/>
      <path fill="#413E08" d="M23.8873368,2.96112797 L23.2007223,2.13947297 C23.158118,2.08849993 23.1018194,2.04627599 23.0394345,2.02484703 C22.9660181,1.9997409 22.884233,2.00316446 22.8065054,2.0547715 C22.720536,2.11183087 22.573196,2.38203871 22.5458075,2.56982746 C22.5370584,2.63043719 22.5418767,2.67887426 22.5588678,2.69916204 C22.7800045,2.96391754 22.7800045,2.96391754 23.5129005,3.38970728 C23.6325984,3.45957331 23.635388,3.45741774 23.7845031,3.35813442 L23.8042837,3.34494737 C23.8678098,3.30272343 23.9168809,3.22030433 23.9293071,3.13522247 C23.9391974,3.06713161 23.9242352,3.00538069 23.8873368,2.96112797"/>
      <path fill="#62604F" d="M17.3793981,20.9056675 C17.4482497,20.9353383 17.5269917,20.9376207 17.6034512,20.9068086 C17.9247589,20.7774741 18.2768786,20.3901043 18.449198,20.1008767 C18.6043995,19.8403055 18.4688517,19.4838746 18.1263687,19.544104 C17.9676168,19.5721265 17.8669387,19.705265 17.7746293,19.8252165 C17.7401401,19.4500194 17.6214566,19.1093115 17.2662937,19.2278682 C17.0312091,19.3064834 16.999129,19.5605878 17.0009042,19.7737363 C17.003567,20.1079774 17.0668395,20.4393022 17.1738575,20.7551575 C17.2087271,20.858118 17.2936822,20.9036387 17.3793981,20.9056675"/>
      <path fill="#413E08" d="M30.6164123,25.5120074 C29.9633995,25.6371576 30.0677547,24.9842716 30.2082476,24.6992283 C30.3141244,24.4843047 30.5416011,24.2993055 30.7345886,24.1627434 C30.8606264,24.0734772 30.9954134,23.9962568 31.1355258,23.9298143 C31.2558577,24.6757706 31.2175645,25.3968743 30.6164123,25.5120074 Z M26.5960087,27.5577762 C26.4501903,28.2085067 26.2514969,29.7480954 25.5662772,30.0475937 C24.7404379,30.4084626 24.8062463,29.2686699 24.925437,28.8206904 C25.0448813,28.3711893 25.2350792,27.9408348 25.4550748,27.5322897 C25.8590552,26.7818955 26.3665033,26.1094825 26.9178236,25.4707979 C26.8563263,26.1709798 26.7507031,26.867865 26.5960087,27.5577762 Z M11.8036827,20.7375325 L11.8036827,20.2887922 C11.8036827,19.2544959 12.0173384,18.468091 12.4446497,17.9295773 C12.6413144,17.6731905 12.8699323,17.4916148 13.1306302,17.3847236 C13.3913282,17.2778324 13.619946,17.2671813 13.8166107,17.3526436 C13.9276863,17.3953747 14.0024975,17.4510393 14.0409174,17.5193837 C14.0793374,17.5877282 14.0986108,17.6903083 14.0986108,17.827124 C14.0986108,18.0407796 14.0366063,18.2587464 13.912724,18.4808976 C13.788715,18.7031756 13.5729038,18.9894868 13.2652903,19.3399582 C13.0857435,19.5451184 12.8443189,19.7973208 12.5408899,20.0964387 C12.2374608,20.3955566 12.0301451,20.583599 11.9189427,20.6605657 L11.8036827,20.7375325 Z M35.54406,24.8006672 C34.831959,23.468521 33.4011634,22.6617014 31.8849056,22.8573517 C31.8480072,22.8620432 31.8106016,22.8676224 31.7726889,22.8740891 C31.5009594,21.8531067 30.9938918,21.4005624 31.2429243,20.3585315 C31.3470259,19.9232318 30.6738521,19.5858207 30.4823862,20.0378578 C29.8538455,21.5221623 28.9324,22.1405591 27.848779,23.2704616 L27.837494,22.5852419 C27.7970452,22.009703 27.6713878,21.4341641 27.4606485,20.8586252 C27.4200729,20.7451404 27.3451349,20.6641161 27.2355809,20.6154254 C27.1262805,20.5668616 27.0188821,20.562804 26.9133857,20.6032528 C26.7594522,20.6600586 26.6661284,20.7694858 26.6337947,20.9315344 C26.6175645,20.9478914 26.6053918,20.9680524 26.5972767,20.9923977 C26.5324826,21.1058825 26.4514583,21.2558852 26.354077,21.4422792 C26.354077,21.4503943 26.3501462,21.462567 26.3419043,21.4787972 L26.3297317,21.4909699 L26.3176858,21.5153152 C26.1798557,21.7908486 26.0704285,21.9975303 25.9894042,22.1353604 C25.8676775,22.3379846 25.7462045,22.5123327 25.6246046,22.6582779 C25.4705443,22.8365567 25.3408293,22.9419264 25.2354596,22.9743868 C25.1948841,22.990617 25.1584929,22.990617 25.1260324,22.9743868 C24.963857,22.860902 24.87066,22.6055296 24.8463147,22.2083964 C24.8139811,21.7463423 24.907178,21.3531398 25.1260324,21.0287889 C25.3611171,20.6803463 25.7096865,20.5141133 26.1717406,20.5303436 C26.2933405,20.5303436 26.3966813,20.489768 26.4817632,20.4087437 C26.5668451,20.3277194 26.6114782,20.2283093 26.6155357,20.1108938 C26.6195933,19.9932247 26.5810465,20.0089477 26.5000222,19.9238658 C26.4189979,19.8387839 26.3217433,19.7961796 26.2081318,19.7961796 C25.4299687,19.7718343 24.834142,19.9466896 24.4207786,20.5546889 C24.1342137,20.9773087 23.9906777,21.4697945 23.9890293,22.0316391 C23.9740671,22.0469818 23.9603728,22.0604224 23.9447766,22.0769062 C23.910541,22.1111419 23.833701,22.1964773 23.7140031,22.333293 L23.5216496,22.5255197 L23.2780695,22.7692267 C23.2439607,22.79484 23.2140362,22.8205801 23.1882961,22.8461934 C23.1455649,22.8546889 23.1113293,22.8461934 23.085716,22.8205801 C23.0601027,22.79484 23.0301782,22.7434865 22.9960694,22.6666466 C22.9532114,21.991444 22.8122114,21.5084681 22.5729424,21.2178456 C22.3762778,20.9784499 22.1326976,20.8673743 21.8420752,20.8844921 C21.6113017,20.9101054 21.3890238,21.0169966 21.1753681,21.205039 C20.910359,21.444308 20.6795855,21.786157 20.4830477,22.230713 C20.4778489,21.9980375 20.4883732,21.771702 20.5144937,21.5515796 C20.542643,21.3135786 20.38592,21.0781136 20.1504549,21.0336073 C19.8930538,20.9850434 19.6482056,21.1649706 19.6149844,21.4265562 C19.6038261,21.5144276 19.595077,21.6138377 19.5881031,21.7203485 C19.4585149,21.7989637 19.3253764,21.9250015 19.1883071,22.1025196 C19.1028448,22.2222174 18.9959536,22.4016375 18.8677602,22.6410333 C18.8506424,22.6666466 18.8293402,22.7008822 18.8036001,22.7434865 L18.7907934,22.7692267 L18.7651801,22.8205801 C18.7566846,22.8375711 18.7523734,22.8505046 18.7523734,22.8590001 C18.6497934,23.0470424 18.5643311,23.1923536 18.4958599,23.2948069 C18.4873643,23.3120515 18.4745577,23.3290425 18.4574399,23.3461603 C18.3804731,23.4316226 18.299322,23.4957827 18.2138597,23.5385138 C18.0856663,23.581245 17.9702796,23.5599428 17.8676995,23.4743537 C17.8505817,23.4402449 17.8249684,23.380396 17.7907328,23.2948069 C17.7907328,23.2863114 17.7864216,23.2778159 17.7779261,23.2691936 C17.7523128,23.0897735 17.7416617,22.8674956 17.7458461,22.6026133 C17.7482552,22.4554001 17.7552292,22.2963946 17.7668946,22.1254701 C17.7832517,21.8836652 17.6037048,21.6722919 17.3626607,21.6480733 C17.1488782,21.6267712 16.9581731,21.7596561 16.8926182,21.9539116 C16.8457027,22.0010807 16.7930813,22.0563649 16.7333592,22.1221733 C16.5240146,22.3529468 16.3038923,22.6264514 16.0731188,22.942814 C15.7226474,23.3957386 15.5046806,23.6713988 15.4192183,23.7697945 C15.3337561,23.8680634 15.2739071,23.9044546 15.2396715,23.8787145 C15.1542092,23.8273611 15.2012515,23.4427809 15.3807984,22.7248471 C15.594454,21.912702 15.5602184,21.3443907 15.2782183,21.0195326 C15.0986715,20.8144993 14.846469,20.7032969 14.5217378,20.6861791 C14.3250731,20.6861791 14.1584597,20.7247258 14.021644,20.8015658 C13.6969128,20.9896081 13.4127571,21.3251173 13.1690502,21.8080932 C12.9254701,22.2910691 12.7780033,22.8146206 12.7267766,23.3787476 L12.7011633,23.6864878 L12.6113899,23.545361 C12.5088098,23.3829319 12.3934231,23.1308563 12.2652297,22.7888804 C12.1369095,22.4470314 12.0429517,22.1436023 11.9831028,21.8785932 C11.965985,21.8187443 11.9724517,21.7718288 12.0023762,21.7375932 C12.0323006,21.7033575 12.128414,21.6350131 12.290843,21.532433 C12.5984564,21.3272728 13.0002812,20.9704616 13.4960638,20.4618723 C13.9918464,19.9532831 14.3421909,19.5364961 14.5473511,19.2117648 C14.6756713,19.0237225 14.7866201,18.8100668 14.8807046,18.570671 C14.9405536,18.4168643 14.9789736,18.299322 14.9960914,18.2181709 C15.0132092,18.136893 15.0217047,18.0022329 15.0217047,17.8141905 C15.0217047,17.5321904 14.991907,17.3313414 14.9320581,17.2116435 C14.8722091,17.0663323 14.775969,16.9296434 14.6435912,16.8013232 C14.5110867,16.6731298 14.3721154,16.5748609 14.2268042,16.5063896 C14.081493,16.4380452 13.8977618,16.3974696 13.6754838,16.384663 C13.4532059,16.3718563 13.2524837,16.3868185 13.0729368,16.4295497 C12.6198854,16.5492476 12.2202162,16.7949833 11.8741828,17.1667568 C11.5280226,17.5385303 11.2693534,17.9980485 11.0984289,18.5450577 C10.9275043,19.117807 10.8570043,19.7886985 10.8869288,20.5579857 C10.9168532,21.3272728 11.0428911,22.0623244 11.2650422,22.7632671 C11.3933624,23.1650919 11.574938,23.5816254 11.8100227,24.0133746 C12.0451073,24.4449971 12.2609185,24.7633884 12.4574564,24.9685486 C12.5686588,25.0881197 12.6797343,25.1479686 12.7908099,25.1479686 C12.8848945,25.1479686 12.9768235,25.1201997 13.0664701,25.0646619 C13.1562435,25.0091241 13.2139369,24.9472464 13.2395502,24.8787752 C13.2652903,24.8189262 13.278097,24.6651195 13.278097,24.4172282 C13.278097,24.1437236 13.3058659,23.8253323 13.3614037,23.4620543 C13.4169415,23.0987762 13.4746348,22.8487294 13.5344838,22.7119137 C13.619946,22.5238713 13.7225261,22.3637247 13.842224,22.2312201 C13.9619219,22.0987156 14.0729975,22.0154089 14.1755776,21.9811733 C14.2781576,21.9469377 14.3636199,21.9683666 14.4319644,22.0453334 C14.5260489,22.1735268 14.5174266,22.4256024 14.406351,22.8016871 C14.2866531,23.2206297 14.265351,23.647941 14.3421909,24.0838747 C14.4191577,24.494195 14.5601578,24.7206573 14.7653179,24.7633884 C14.9448647,24.8061195 15.1478693,24.7292796 15.3743316,24.5326149 C15.6009208,24.3360771 15.9321187,23.9556813 16.3680524,23.3914274 C16.5554607,23.1402394 16.7140858,22.9335577 16.8443079,22.7713822 C16.8539446,23.1666135 16.8957882,23.4908376 16.970219,23.743674 C17.0385634,23.9573296 17.1368323,24.1282542 17.2650257,24.2564476 C17.4360771,24.4359944 17.6411104,24.5257678 17.8805062,24.5257678 L17.8805062,24.5129612 C17.974464,24.5129612 18.0642374,24.4873478 18.1498264,24.4359944 C18.3206242,24.3334143 18.4788688,24.183792 18.6240532,23.9872541 C18.6925245,23.8931695 18.7608689,23.7864051 18.8293402,23.6667072 C18.9148025,23.5385138 19.0301892,23.341976 19.1755004,23.0768401 C19.1755004,23.0683446 19.1796848,23.0576935 19.1883071,23.0448868 C19.1968026,23.0320802 19.2054249,23.0171179 19.2139204,23.0000001 L19.226727,22.9743868 C19.2353494,22.9657645 19.2460004,22.9487735 19.2588071,22.9230334 L19.2908871,22.8590001 C19.393594,22.6653786 19.486791,22.5108111 19.5712389,22.3921276 C19.5775788,23.1663599 19.6611391,24.0791831 19.829274,24.6368434 C19.9085232,24.8991897 20.1627544,25.0696071 20.436259,25.0512213 C20.7225703,25.0319479 20.9508078,24.8105575 20.9850434,24.5257678 C21.0177574,24.2540384 21.0937098,23.1762502 21.1881748,22.89742 C21.3506038,22.4187553 21.5472684,22.0769062 21.7779151,21.8717461 L21.8036552,21.846006 C21.8377641,21.8375105 21.8676885,21.8418216 21.8934286,21.8589394 C21.919042,21.8674349 21.9403441,21.8888639 21.9574619,21.9229727 C21.9574619,21.9400905 21.9617731,21.9593639 21.9702686,21.9806661 C21.9788909,22.0020951 21.9832021,22.0255528 21.9832021,22.0512929 C21.9916976,22.1537462 21.9958819,22.2520151 21.9958819,22.3460997 C21.9958819,22.4829154 22.0045042,22.6196043 22.021622,22.75642 L22.021622,23.0384201 C22.0472354,23.4828492 22.2267822,23.7094384 22.5601357,23.7180607 C22.6712113,23.7265562 22.8037159,23.6966317 22.9575226,23.6282872 C23.0601027,23.5855561 23.1626827,23.5127737 23.2652628,23.4103204 C23.3678429,23.3333537 23.4789185,23.234958 23.5986164,23.1153869 C23.6755831,23.0384201 23.7610454,22.9487735 23.8550032,22.8461934 C23.8634987,22.8461934 23.9285464,22.7810189 24.0492586,22.6521915 C24.1438504,23.1237556 24.3434314,23.4676334 24.6518056,23.6796407 C24.9031205,23.8499312 25.1828382,23.8863224 25.490832,23.7890679 C25.7582503,23.7080436 26.0176803,23.5174653 26.2689951,23.2175865 C26.4311706,23.0310658 26.5851041,22.8122114 26.7310493,22.5608965 C26.7831635,22.4698551 26.8385745,22.3686698 26.8958875,22.2619054 C26.9581456,22.9021116 26.9881969,23.5437126 26.9812229,24.184426 C26.8279234,24.348123 26.6756383,24.5125808 26.5261427,24.6790673 C25.8291307,25.4557088 25.1641988,26.2843378 24.6816033,27.2140252 C24.2790177,27.9893987 23.8061857,29.0371356 24.0512874,29.9252331 C24.2314682,30.5778655 24.8290701,31.0681958 25.5264625,30.9350572 C26.464265,30.7560176 26.8237391,29.8202438 27.0725179,29.0115223 C27.523287,27.5459839 27.7634436,26.0236398 27.8061747,24.4947022 C28.7624898,23.4832296 29.7558301,22.500794 30.5289213,21.3540274 C30.5762172,21.6677271 30.6450688,21.9815537 30.7252055,22.2976626 C30.7686975,22.4697283 30.8630356,22.7674515 30.9554718,23.1141189 C29.9503392,23.5296379 28.9881913,24.3864161 29.3163462,25.5011027 C29.73643,26.9284747 31.5528201,26.3727164 31.8964443,25.2066764 C32.0467007,24.6970727 32.0361764,24.1901319 31.9535037,23.6839518 C32.0937429,23.6640445 32.2349966,23.6541542 32.3757431,23.6556757 C33.4408514,23.6672144 34.6753627,24.1856939 35.1668341,25.1051107 C35.4194169,25.5775623 35.7967696,25.2733724 35.54406,24.8006672 Z"/>
      <path fill="#413E08" d="M4.26677327 17.4315123C4.09267878 18.3771764 3.36257238 19.1611722 2.37278242 19.2328134 1.43193672 19.3007774.795914884 18.5869013.79350571 17.676614.789067759 15.9415018 2.37050004 15.2376427 3.88168589 15.034765 4.24471032 15.7719721 4.42438395 16.5752413 4.26677327 17.4315123zM16.0677932 12.7754673C14.4423618 14.6699653 11.8087547 14.8392415 9.48098577 14.6352225 9.63758206 14.2138707 9.81193015 13.7980981 10.006566 13.390187 10.2903413 12.7958819 9.18427702 12.2733448 8.89910695 12.8710734 8.64525613 13.4029936 8.4288109 13.9456917 8.24431892 14.4958709 6.90633997 14.3229175 5.49278905 14.1076135 4.14491981 14.2193231 3.52297262 13.3124594 2.68698937 12.5046255 1.93291803 11.8289157 1.57293677 11.50634 1.19976846 11.9175479 1.56038371 12.2407576 2.21162138 12.8244116 2.91865044 13.5204091 3.45475497 14.3083357 2.96150837 14.3963339 2.48056124 14.537968 2.01990188 14.7544132.427945314 15.5023982-.721737696 17.7114836.58530239 19.2505652 1.82513921 20.7102708 4.15569769 19.8206517 4.80655496 18.2453058 5.28800929 17.0802802 5.10250292 15.977259 4.59454768 14.9733944 4.70587687 14.9690833 4.81517727 14.9671813 4.9218149 14.9675617 5.95890074 14.9711121 6.98888586 15.1007002 8.01887098 15.2262309 6.78943165 19.647318 7.67194998 24.4978721 10.044352 28.5402119 10.3791003 29.1108056 10.9942004 28.6898342 10.6581841 28.1170849 8.4104251 24.2871328 7.90462544 19.573648 9.2316997 15.3638074 9.99464695 15.4396329 10.758989 15.4860412 11.5278958 15.4491428 13.4217598 15.3581014 15.577463 15.1462209 16.8453223 13.6685099 17.1596561 13.3021887 16.3831414 12.4077513 16.0677932 12.7754673zM20.4618723 35.1724132C20.7891395 34.9847513 20.8795469 34.5201612 21.1900767 34.556806 21.4793044 34.5909148 21.5912676 34.9974311 21.7982029 35.2251614 21.8359889 35.2668782 21.8830312 35.3002262 21.9795249 35.3841669 22.1734 34.5831801 22.354722 33.8272068 22.5403552 33.0722478 22.5782679 32.9178071 22.590821 32.730272 22.7887536 32.6889356 22.9606926 32.652798 23.1621755 32.6058825 23.3026684 32.7272288 23.4344122 32.841094 23.3176306 33.0078341 23.2778159 33.1408459 22.9548598 34.2196485 22.6264514 35.2966759 22.2913227 36.3716745 22.2541707 36.4908652 22.2698937 36.6758644 22.115453 36.7054084 21.9367938 36.7396441 21.8967254 36.5385415 21.7997245 36.4379902 21.5570319 36.1862949 21.4355589 35.6868352 21.1117152 35.6905124 20.8323779 35.6936823 20.6819947 36.1718399 20.4533768 36.4217599 20.3757761 36.5065882 20.3234082 36.6583662 20.1915377 36.6288221 20.0624567 36.5997852 20.0630907 36.4463589 20.0367166 36.3318597 19.7871769 35.24938 19.5302829 34.1686754 19.2940571 33.0834061 19.2584267 32.9199627 19.0428691 32.6719446 19.3678539 32.5721541 19.6948675 32.4717296 20.0071725 32.6727054 20.0676554 32.9975634 20.1732787 33.5652408 20.2627985 34.1357078 20.361955 34.7045263 20.3870611 34.84895 20.4228183 34.9913448 20.4618723 35.1724132M32.4788303 34.6364355C32.4788303 35.1852199 32.4747728 35.7341311 32.4806055 36.2830423 32.4831415 36.5329623 32.3926073 36.6803023 32.123921 36.6815703 31.8509236 36.6829651 31.8199847 36.5005019 31.8189703 36.2910306 31.8177024 36.0388281 31.8028669 35.7859917 31.8158004 35.5346769 31.8338058 35.1826839 31.6129226 35.1559294 31.3528587 35.1667073 31.0950771 35.1772316 30.7939304 35.0987432 30.7894924 35.5290977 30.7863225 35.8392471 30.7328134 36.1485089 30.7117649 36.4589119 30.6981974 36.6592537 30.6038593 36.7570155 30.4028835 36.7519435 30.1896082 36.746618 30.1215173 36.6161422 30.1302664 36.4278463 30.1870722 35.1990409 30.2450192 33.9702356 30.3042341 32.741557 30.3117153 32.5873699 30.3787917 32.4778159 30.5533934 32.508628 30.7402946 32.5415956 30.960417 32.5533879 30.9643477 32.821567 30.9699268 33.1923261 30.9677713 33.563212 30.960417 33.9339712 30.9557254 34.1700702 30.9988369 34.3349084 31.2938973 34.3393463 31.5624568 34.3434039 31.7674901 34.3052375 31.7986826 33.987607 31.8335522 33.6337121 31.8743813 33.2804511 31.9076026 32.9265562 31.9259884 32.7311596 31.9802582 32.5725345 32.2159768 32.5720273 32.4769283 32.5713933 32.4808591 32.7634932 32.4820003 32.9451956 32.4854239 33.5089422 32.4832683 34.0726889 32.4832683 34.6364355 32.4817467 34.6364355 32.4802251 34.6364355 32.4788303 34.6364355M28.8288055 32.5502179C28.9888253 32.57786 29.2296159 32.4779427 29.2509181 32.7870777 29.2689235 33.0492973 29.10865 33.1091462 28.8884008 33.1228405 28.5523845 33.143889 28.4472685 33.3468936 28.4486633 33.6650313 28.452594 34.554904 28.4399142 35.4447766 28.4300239 36.3346493 28.4271075 36.5906557 28.4409285 36.8513536 28.0533052 36.8490713 27.6589615 36.8467889 27.6933239 36.5798778 27.6920559 36.3270414 27.6872376 35.4371687 27.6731629 34.5470425 27.6885056 33.6575502 27.6944651 33.3136724 27.5897295 33.1602461 27.231777 33.198032 27.0599649 33.2161642 26.8602571 33.2297317 26.8119468 32.9818404 26.7618613 32.7253268 26.8899279 32.6356802 27.1280557 32.6233807 27.690154 32.5944707 28.2559294 32.6525444 28.8288055 32.5502179M25.296323 34.0322401C25.296323 34.830691 25.2890955 35.6292686 25.3000001 36.4275927 25.3041845 36.7414192 25.1394731 36.8595955 24.8655881 36.8566792 24.5421248 36.8531288 24.6457193 36.5924309 24.6516788 36.4260711 24.6922544 35.2881804 24.7455098 34.1507968 24.7959757 33.0132865 24.8056124 32.7953197 24.765544 32.5298034 25.107393 32.543244 25.4294615 32.5557971 25.3575667 32.8205526 25.3647942 33.0112577 25.3777277 33.3512048 25.3684714 33.6919126 25.3684714 34.0323669 25.3443797 34.0323669 25.3204147 34.0322401 25.296323 34.0322401"/>
      <path fill="#CE5F55" d="M27.0295332,41.2624237 C27.0100062,41.4726558 26.9783066,41.691637 26.9353218,41.913281 L26.9353218,41.9135346 C26.8919567,42.1347982 26.843266,42.3558082 26.7905178,42.5700978 L26.7594522,42.6962624 L26.6359503,42.6554333 C26.4679421,42.5998955 26.3221237,42.4668837 26.2028063,42.260202 C26.0936326,42.0720329 26.0006893,41.8510229 25.9265121,41.6037656 C25.8527153,41.3585371 25.8022494,41.0946692 25.7767629,40.8195162 C25.7512764,40.545758 25.746458,40.290132 25.7621811,40.0598657 C25.7784113,39.8203431 25.8282432,39.6116326 25.9102819,39.4394401 C26.0289654,39.18952 26.2106678,39.1275155 26.3421579,39.1195272 C26.4054304,39.1093833 26.496345,39.136011 26.6176913,39.2039751 C26.7441095,39.2747287 26.8390817,39.4369041 26.9164288,39.7140859 C27.051089,40.0875078 27.0901429,40.6113129 27.0295332,41.2624237 Z M20.3054028,42.3151058 C20.2595017,42.8093668 20.1212913,43.1993993 19.8945753,43.4740451 C19.6621535,43.7557916 19.4064007,43.9111199 19.1344177,43.9358457 C19.0829374,43.940664 19.0323448,43.940664 18.9827665,43.9360993 C18.7631513,43.9156847 18.5611611,43.8042287 18.3804731,43.6033797 C18.1650423,43.3639839 18.0563759,42.9811789 18.0575171,42.4657426 C18.0535863,42.2594412 18.0794532,42.044264 18.1342302,41.8287063 C18.1895144,41.6120075 18.2766251,41.4069742 18.393153,41.2196926 C18.5095541,41.0324111 18.6582889,40.8602185 18.8355533,40.7079334 C19.0149734,40.5536195 19.2287558,40.4332876 19.4706876,40.3503613 L19.5301561,40.3300735 L19.5808756,40.3672255 C19.7472353,40.4893326 19.8943217,40.6465629 20.0179504,40.8346052 C20.1425934,41.0373562 20.2283093,41.2681297 20.2748444,41.5238825 C20.3204919,41.7760849 20.3307626,42.0422352 20.3054028,42.3151058 Z M31.065533,41.2686369 C31.2789351,40.7194721 31.5698111,40.382695 31.9296655,40.2678154 L31.9346107,40.266167 C32.0020675,40.247908 32.1273446,40.2136724 32.1960694,40.2971059 C32.2349966,40.3441482 32.2420973,40.4099567 32.2265011,40.578472 C32.2224435,40.6219639 32.2063401,40.672303 32.1757816,40.7368435 C32.1456036,40.8003696 32.0955181,40.8678265 32.0227357,40.9431448 C31.9522357,41.0163076 31.8543472,41.0931476 31.7236178,41.1782295 C31.5952976,41.2617897 31.426275,41.344716 31.2211149,41.4243456 L30.9665033,41.5232485 L31.065533,41.2686369 Z M34.6947629,42.3082587 C34.6903249,42.2821382 34.6781522,42.2477757 34.622868,42.2132865 C34.5636531,42.1766417 34.521556,42.1804457 34.4951818,42.1866588 C34.4534651,42.1964223 34.4210047,42.2219088 34.393109,42.2669223 C34.0671097,42.7666357 33.7337562,43.2600091 33.4006562,43.7356306 C33.0632451,44.2173386 32.7238052,44.6503558 32.3918465,45.0225098 C32.092475,45.3376043 31.851938,45.5048517 31.653625,45.5366781 C31.4397157,45.5706602 31.2586473,45.4969902 31.1304539,45.3222617 C31.0157011,45.1664262 30.9381004,44.9478254 30.8932137,44.6545402 C30.850863,44.37888 30.8272784,44.0770993 30.8232209,43.7571864 C30.8189097,43.4429795 30.8222065,43.1206574 30.8328575,42.7994765 C30.843255,42.4796904 30.8544133,42.2050446 30.8663324,41.9762999 L30.8705167,41.894388 L30.9482443,41.8683943 C31.9687195,41.5276864 32.5093888,41.1040523 32.5554167,40.6090305 C32.5732953,40.4161698 32.5408348,40.2400465 32.4590497,40.0858594 C32.3758699,39.9298971 32.2518608,39.799675 32.0903194,39.6992505 C31.8772977,39.5669995 31.6078507,39.5070238 31.2888254,39.5217324 C30.9681517,39.5450633 30.6585095,39.6525886 30.3720714,39.8411381 C30.2188987,39.9353495 30.0818294,40.0554278 29.9614975,40.1998514 C29.8376152,40.3490933 29.7188049,40.5266114 29.6084902,40.7273336 C29.3308012,41.2867691 29.1563263,41.895022 29.0921662,42.5304098 L29.0865871,42.5853136 L29.0414468,42.6168865 C28.9823586,42.658096 28.9280888,42.6923317 28.8755942,42.7212418 C28.6801975,42.8286402 28.4489169,42.8944487 28.1882189,42.9171456 C27.9332269,42.9393354 27.6280226,42.9171456 27.2811016,42.8508299 L27.153669,42.8264846 L27.1875243,42.7013344 C27.3200288,42.2130329 27.4077735,41.7421029 27.4487294,41.3014777 C27.5151719,40.5868407 27.4721872,40.0074979 27.3209164,39.5796794 C27.2641106,39.3951874 27.1955126,39.2496226 27.1157563,39.1424777 C27.0342247,39.0331773 26.9507913,38.9461935 26.8674846,38.8840622 C26.7851923,38.8229452 26.700998,38.7780585 26.6175645,38.7511772 C26.5293127,38.7229011 26.4558963,38.7057833 26.3994709,38.7005846 C26.0128619,38.6645738 25.7016981,38.7539668 25.4482277,38.973582 C25.1950109,39.1929436 25.0361322,39.520718 24.9760297,39.9480293 C24.9253102,40.2515852 24.9348201,40.581642 25.003545,40.9321134 C25.0723966,41.2848671 25.1903193,41.6172062 25.3538895,41.9198745 C25.6607422,42.47614 26.061933,42.866553 26.5456697,43.0791942 L26.6510393,43.1254757 L26.6093226,43.2328742 C26.4343405,43.6828824 26.248327,44.1100669 26.0563539,44.502889 C25.8632396,44.8981203 25.6698717,45.237687 25.4818293,45.5119524 C25.2851647,45.7986441 25.1020675,45.9944211 24.9220135,46.1105686 C24.7073434,46.2491595 24.5029441,46.2310273 24.3464746,46.0598492 C24.2125752,45.9136504 24.1153207,45.6407798 24.0487514,45.2255143 C23.9854789,44.8318046 23.9702631,44.2605769 24.0034843,43.5279345 C24.0098243,43.2224767 24.0261813,42.9248803 24.0520482,42.6465574 C24.0777883,42.37039 24.1066984,42.1195823 24.1381445,41.9011083 C24.1722533,41.6501739 24.2048405,41.420288 24.235399,41.2123383 C24.2805393,40.9343957 24.2186616,40.7237832 24.0464691,40.5666798 C23.8612163,40.397784 23.6421083,40.2877228 23.395485,40.2394125 C23.1470865,40.1908487 22.9022384,40.2044161 22.668295,40.2789737 C22.4564145,40.3469378 22.3322786,40.4580133 22.2894207,40.6186672 C22.2862507,40.638955 22.2761069,40.6952535 22.2393353,40.8872266 C22.2129611,41.0250567 22.1836707,41.1942061 22.1518442,41.3909975 L22.1340924,41.5011855 L22.02289,41.4916756 C21.8986274,41.4805173 21.770434,41.4471693 21.643889,41.3913779 C21.4748664,41.3172007 21.2989968,41.2034624 21.1214787,41.0534596 C20.950681,40.9094164 20.7659354,40.7426762 20.5720603,40.5580574 C20.2961465,40.3196761 20.0193452,40.1159107 19.7537021,39.9561444 C19.4976957,39.8025913 19.1942666,39.7086335 18.8520372,39.6768071 C18.0246762,39.5999671 17.3308342,39.8178072 16.7896577,40.3246212 C16.5595183,40.5447436 16.3690667,40.8105135 16.2245163,41.1139426 C16.0799659,41.4178788 15.9908265,41.7421029 15.9597608,42.0773584 C15.9285684,42.4129943 15.9518993,42.736838 16.0293733,43.0397599 C16.1059596,43.3391314 16.2394786,43.6109876 16.4262529,43.8477206 C16.6429517,44.1204644 16.9077072,44.3424888 17.2132919,44.5074538 C17.5188765,44.6727992 17.876195,44.7752525 18.2753571,44.8124045 C18.6052871,44.8430897 18.9231712,44.796301 19.2201335,44.6733064 C19.5189978,44.5496777 19.7886985,44.3596066 20.0220079,44.1084186 C20.4225648,43.6410389 20.6600586,43.0495234 20.724599,42.354033 C20.7521143,42.0579582 20.746028,41.7765921 20.70634,41.5179229 L20.659171,41.2106899 L20.9008491,41.4062134 C20.9888474,41.4774742 21.0811567,41.5418879 21.1749877,41.5975525 C21.2713547,41.6546118 21.365566,41.7091352 21.4573682,41.7606155 C21.5604555,41.8019518 21.6556812,41.8374554 21.7403827,41.8657315 C21.803148,41.8870337 21.8727605,41.9025031 21.9537848,41.9130274 L22.0723415,41.9284968 L22.0576328,42.0470535 C22.044319,42.1535644 22.0312587,42.2623576 22.0185789,42.3767299 C21.9840897,42.6900493 21.9577155,43.0038759 21.9400905,43.3095873 C21.8692101,45.0024756 22.0633388,46.1686424 22.5170242,46.7741058 C22.7341034,47.0577543 23.0058329,47.211561 23.3471747,47.2432606 C23.8950715,47.2941069 24.4310493,47.120266 24.9403993,46.7263027 C25.1724407,46.5629861 25.3879984,46.3593475 25.585297,46.1176694 C25.7869068,45.8714265 25.9866146,45.5848616 26.1789681,45.2660899 C26.3459619,44.9792714 26.5015438,44.6686148 26.6405151,44.3445176 C26.7797399,44.0187719 26.905017,43.6822484 27.012669,43.3442033 L27.0432274,43.24809 L27.1433984,43.2615306 C27.8579085,43.358912 28.4458737,43.3113625 28.8916976,43.1219254 L29.058311,43.0510449 L29.058945,43.2321134 C29.060847,43.7547772 29.1212031,44.2646345 29.238365,44.7476104 C29.365544,45.255312 29.5457248,45.6548544 29.7737087,45.9343186 C29.9944651,46.205414 30.2481892,46.350852 30.5492091,46.3787477 C30.7586804,46.3982747 30.9588954,46.3768457 31.1442749,46.3152216 C31.336882,46.2513151 31.5225152,46.1645848 31.6961025,46.0579472 C31.8712114,45.9502952 32.0359228,45.8242574 32.1856719,45.6831305 C32.3388447,45.5390873 32.491637,45.3904793 32.6398646,45.2411106 C32.9719501,44.8716194 33.3160816,44.4350518 33.6585646,43.9478915 C34.0004137,43.4618724 34.3382052,42.9549316 34.6628096,42.4412704 C34.6914661,42.3951157 34.7019904,42.3513702 34.6947629,42.3082587 Z"/>
      <path fill="#CE5F55" d="M5.64494738,46.4823422 C4.70701805,46.2321685 4.37797566,45.2837149 4.93424116,44.4781633 C5.63150673,43.4685928 7.04670603,43.5156351 8.09520375,43.8229949 C8.32547003,43.8904518 8.54952317,43.9702081 8.76850438,44.0598547 C8.22098797,45.4883679 7.28229785,46.9189098 5.64494738,46.4823422 Z M14.3756658,30.518397 C15.1010806,29.1220907 16.6518276,29.2168092 16.9641326,30.5730472 C17.220139,31.6851978 16.1907879,32.742825 15.5164729,33.4999395 C14.7504825,34.3598877 13.8953526,35.1687361 12.9723855,35.8957993 C12.8687911,35.9734001 12.7635482,36.0493524 12.6570374,36.1240368 C13.1325322,34.1097141 12.873229,33.4102929 14.3756658,30.518397 Z M20.0206132,45.8993222 C18.9373726,47.8356637 16.0577762,47.5791502 14.4021667,46.7100725 C13.2091185,46.0836873 12.0858096,45.072722 10.9060754,44.2196209 C11.0204477,43.9355921 11.1144055,43.6528312 11.192767,43.3785658 C11.746243,41.4409562 11.9827224,39.4362701 12.3674294,37.4622693 C12.5592757,37.3414303 12.7487128,37.216914 12.9358675,37.0889742 C13.6389658,36.6682564 14.2819616,36.1558633 14.8283368,35.6017533 C14.8348035,35.5951598 14.8382271,35.5881859 14.8440598,35.5815923 C15.5419594,34.952164 16.1935775,34.2711287 16.7828106,33.5391203 C17.4433046,32.7186065 18.0841448,31.7815648 17.9835935,30.6758809 C17.8983848,29.7394731 17.2698441,28.984641 16.3354651,28.8063621 C15.3267822,28.6140086 14.389994,29.1078892 13.6721871,29.7789075 C11.5526215,31.760009 10.7739512,34.4860523 10.2412702,37.2820885 C10.1821821,37.2945148 10.1228403,37.3083358 10.0643862,37.3174653 C8.44745029,37.5703018 6.69205032,37.0050336 5.81473072,35.5595294 C5.08500471,34.357225 5.2417278,32.6805669 6.40649984,31.7985558 C7.01690836,31.3365016 8.09520375,31.1094053 8.61241528,31.8390045 C8.8212526,32.1335577 8.90925083,32.7613376 8.61837482,33.039407 C8.34081266,33.3047965 7.76958491,33.401417 7.54007943,33.1234745 C7.20279512,32.7148025 6.76064836,32.9980706 7.0953967,33.4035726 C8.01811019,34.5214292 9.77312977,33.5649872 9.61336352,32.2162304 C9.40427261,30.4494185 7.26036169,30.1965821 6.02331444,31.0600807 C4.71297759,31.9745522 4.2189702,33.7589891 4.75494793,35.244308 C5.34849223,36.8893932 6.91597666,37.9495564 8.61444406,38.1559846 C9.10502789,38.2157067 9.59840129,38.2050556 10.0861955,38.136838 L9.98412266,38.7163076 C9.75512437,40.0507362 9.53956673,41.3750209 9.21940024,42.6159989 C9.17806389,42.7757652 9.1315288,42.9479577 9.07941457,43.1273777 C8.87222564,43.0359559 8.66212034,42.9555656 8.44808428,42.8895035 C6.65870228,42.3371688 4.12133527,42.7074207 3.70087107,44.8912732 C3.35800763,46.6715257 5.10719447,48.0962349 6.68786596,47.7502015 C8.71461497,47.3065331 9.85516848,46.208584 10.5278351,45.0124927 C11.9304813,45.9259499 13.2324495,47.0430456 14.812487,47.6287284 C16.7593529,48.3503393 19.306737,48.0366395 20.4044325,46.074431 C20.7173715,45.5149956 20.3335521,45.3398867 20.0206132,45.8993222 Z"/>
      <path fill="#413E08" d="M1.1689564 31.724759C1.61287834 31.940697 2.19298198 32.0403607 2.36733008 32.066608 2.37252882 32.0673688 2.37734717 32.067876 2.38229231 32.0687636L2.4292078 32.0786539C2.4564695 32.0805559 2.48854955 32.0820775 2.52265837 32.0820775 2.63373396 32.0820775 2.76598491 32.065974 2.81924033 31.9958544 2.86552182 31.9349911 2.88289323 31.8617015 2.86780419 31.7896799 2.85157397 31.7116987 2.79984014 31.6450027 2.72223939 31.6017643 2.54281935 31.5015934 2.3744308 31.3633829 2.20857821 31.2270744 2.0451348 31.0926679 1.87611225 30.9538234 1.69567783 30.8530185 1.53058604 30.7610895 1.20192404 31.124114 1.09959756 31.2585205 1.04203099 31.3342193 1.01996803 31.4541707 1.04456696 31.5570044 1.06345995 31.6363803 1.10644468 31.6945809 1.1689564 31.724759M7.50013787 27.2396385C7.41175923 27.2045153 7.29028616 27.2155468 7.19797677 27.267027 7.12633556 27.306715 7.08195605 27.3639011 7.06978338 27.431992 6.98165834 27.9162359 7.04176089 28.5025527 7.06242906 28.6724628 7.06395064 28.6820995 7.06521863 28.6907218 7.06635982 28.7009925L7.06585262 28.7023873 7.0673742 28.7212803 7.06648661 28.7311706 7.06838859 28.7410609C7.09159274 28.8547992 7.14636974 29.0519711 7.25338777 29.0943218 7.28559462 29.1070016 7.31856225 29.1134684 7.3512763 29.1134684 7.39058387 29.1134684 7.42925744 29.1040853 7.46514145 29.0855727 7.53538788 29.0489279 7.58572693 28.9810906 7.6066487 28.8947408 7.65533937 28.6928774 7.7434644 28.4934232 7.82892667 28.2998017 7.91438893 28.1059266 8.00289436 27.905458 8.05107783 27.7044822 8.09558414 27.5206242 7.65724135 27.3017698 7.50013787 27.2396385"/>
      <path fill="#62604F" d="M3.88422186 28.1505597C3.8265285 28.0582503 3.73016155 28.0098133 3.60881528 28.013744 3.42964884 28.0199572 3.23311099 28.140289 3.15132589 28.2937154 3.14485916 28.305888 3.13915322 28.3181875 3.13420808 28.330487 3.09921166 28.4182316 3.10681958 28.5064834 3.15614424 28.5853522 3.27343295 28.7730141 3.44334309 28.910971 3.62327032 29.057043 3.79482884 29.1960143 3.9722201 29.3399307 4.08874802 29.5263247 4.15924805 29.6391754 4.26385691 29.7032087 4.37721486 29.7032087 4.38076523 29.7032087 4.38431559 29.7032087 4.38773915 29.7030819 4.48575448 29.6996584 4.57299192 29.6477977 4.61521586 29.5684218 4.66162415 29.4832131 4.65097307 29.3780971 4.58491099 29.272347L3.88422186 28.1505597M2.69713326 34.0004137C2.40853962 34.0381996 2.06707096 34.0635594 1.73688738 34.0880315 1.4064502 34.1125036 1.06472794 34.1379902.776134301 34.1759029.681162141 34.1882024.605336571 34.2543913.562225043 34.3622969.524565855 34.4568887.512519987 34.5844481.529257404 34.7122611.545741224 34.8375381.586950772 34.952798.645278134 35.0369923.710706217 35.1313305.795154092 35.1817963.885941898 35.1817963.896846579 35.1817963.907751259 35.1810355.918782738 35.1796407 1.20623519 35.1418548 1.51651139 35.0305256 1.81867248 34.9218592 2.11766361 34.8145875 2.42679862 34.7036388 2.7124759 34.6662332 2.84041569 34.649369 2.94223498 34.571261 2.99168644 34.4519435 3.04278628 34.3288221 3.02972602 34.1894704 2.9584652 34.0966538 2.89988424 34.020321 2.80694086 33.986339 2.69713326 34.0004137"/>
    </g>
    <rect width="50" height="50"/>
  </g>
</svg>
