<svg xmlns="http://www.w3.org/2000/svg"   style="enable-background:new 0 0 50 50;"
     viewBox="0 0 50 50">
  <defs>
    <filter id="typogy1-a" width="102.3%" height="104%" x="-1.1%" y="-1%" filterUnits="objectBoundingBox">
      <feOffset dy="1" in="SourceAlpha" result="shadowOffsetOuter1"/>
      <feColorMatrix in="shadowOffsetOuter1" result="shadowMatrixOuter1" values="0 0 0 0 0   0 0 0 0 0   0 0 0 0 0  0 0 0 0.5 0"/>
      <feMerge>
        <feMergeNode in="shadowMatrixOuter1"/>
        <feMergeNode in="SourceGraphic"/>
      </feMerge>
    </filter>
  </defs>
  <g fill="none" fill-rule="evenodd">
    <g filter="url(#typogy1-a)" transform="translate(3)">
      <path fill="#35C3C3" d="M20.0419775,39.4301141 C21.8830931,38.3386056 25.324649,31.9658257 24.8904818,30.4996537 C22.2847783,31.8028555 19.2323067,36.5516735 20.0419775,39.4301141 Z M32.6794505,37.9601618 C32.6347877,37.9386005 32.5899849,37.9168991 32.5451821,37.8953378 C32.4156739,37.9895637 32.2783253,38.074549 32.1581978,38.1791356 C30.5611176,39.5698428 29.4724093,41.2990913 28.7750255,43.285256 C28.3982619,44.3587033 28.3106164,45.4658928 28.5251098,46.5767225 C28.6788395,47.3725324 28.8426497,48.1771629 29.6579209,48.6512326 C30.0269841,48.8660061 30.2273366,48.8525653 30.3824664,48.466141 C30.6714445,47.7455158 31.030567,47.0418317 31.221819,46.2955848 C31.5298384,45.0934694 31.7282308,43.8630722 31.9675058,42.6435957 C32.1471371,41.7273782 32.3399292,40.8128408 32.4856783,39.891163 C32.5866247,39.253143 32.6174266,38.6042022 32.6794505,37.9601618 Z M30.4197087,36.1029453 C30.7344485,35.7656641 31.0561886,35.5126683 31.2596214,35.1860278 C31.9340437,34.1019397 32.5647833,32.99083 33.2144241,31.891481 C33.389575,31.5952225 33.6242298,31.3231854 33.7428172,31.0067655 C34.0669375,30.1422113 34.3566157,29.2639362 34.6331331,28.3827209 C34.7458401,28.0238784 34.8683478,27.746801 35.3141358,27.9026308 C35.9371749,28.1207645 35.9802976,28.2628734 35.8467292,28.7957468 C35.4692655,30.3007012 35.1048227,31.8087359 34.74276,33.3173305 C34.6573546,33.6735129 34.0870988,35.1514456 34.3993184,35.3718194 C34.7416399,35.6130546 36.1064455,34.6783559 36.3810027,34.4788434 C37.9293599,33.3528927 40.0240313,32.5458821 41.8014429,31.8323973 C42.0561188,31.7301909 42.3368364,31.6289646 42.5983729,31.7118498 C42.8599093,31.794735 43.0368804,32.1559576 42.8466084,32.35351 C42.7838845,32.4187541 42.696099,32.4524963 42.6113937,32.4845583 C39.9372259,33.4952817 37.3424431,34.7162983 34.8589672,36.1323471 C34.5783896,36.2923772 34.2906716,36.4624879 34.1019397,36.7244443 C33.8769456,37.0368039 33.8226222,37.436809 33.7724991,37.8184729 C33.341132,41.0983187 32.7164128,44.3525429 31.9028218,47.5590241 C31.6744674,48.4588606 31.2359599,49.5310479 30.3119019,49.6207935 C29.8866953,49.6620961 29.4715692,49.4645437 29.1292477,49.2090276 C28.193429,48.5108038 27.6532751,47.3673521 27.5188667,46.2077993 C27.3845983,45.0481066 27.6228932,43.8717528 28.0146378,42.7718437 C28.7100614,40.8194212 29.897896,39.0443899 31.4377126,37.6569028 C32.703812,36.5161112 33.0837959,35.7183412 33.4346579,34.0967594 C33.3913952,34.0768782 33.3481324,34.0567169 33.3048697,34.0366957 C32.9765491,34.5471677 32.6608293,35.0664603 32.3154276,35.5650315 C32.0888934,35.891672 31.8465382,36.2159324 31.5637205,36.4928698 C30.7709907,37.2699185 29.7021637,37.0740462 29.1964519,36.0809639 C29.1111866,35.9130934 29.0284414,35.7439628 28.9034136,35.493207 C28.448385,36.1901708 28.0461398,36.8441518 27.6044121,37.4701311 C27.2955527,37.9077985 26.966252,38.3412657 26.5869682,38.7164893 C25.8541622,39.4414548 24.4143119,39.0509703 24.1116129,38.0475273 C23.9594233,37.5427956 23.8975395,37.0107623 23.7802121,36.417685 C23.236978,37.1630918 22.7399468,37.8860972 22.1985329,38.5739603 C21.7724861,39.1152343 21.3513397,39.6884303 20.8200064,40.1115368 C20.2703319,40.5493443 19.5520868,40.3636926 19.1427011,39.8386597 C18.6508503,39.2080601 18.7769982,38.3519064 18.932828,37.6310012 C19.4662614,35.1641864 20.3369761,33.3943353 22.0145613,31.508697 C22.694864,30.7442491 23.3716665,29.9708405 24.336327,29.5338731 C24.7605536,29.3417811 26.0844767,29.5110517 26.3665944,29.8584135 C26.4597002,29.9728007 26.4697809,30.2147358 26.424698,30.3715457 C26.1469206,31.3399864 25.7760373,32.2863058 25.562944,33.2674874 C25.2735458,34.6017711 24.8452589,35.9317146 25.0306306,37.3263421 C25.0710931,37.6307212 25.2563247,37.9160591 25.3746321,38.2100775 C25.6357485,38.0247059 25.9730297,37.8922576 26.1444004,37.644582 C26.8636256,36.6064169 27.5775304,35.5594312 28.2103701,34.4677827 C29.1999522,32.7603756 29.8150108,30.9065192 30.1641927,28.9638974 C30.2291567,28.6030947 30.44071,28.4038622 30.8335747,28.5109689 C31.3889895,28.6624584 31.5892021,28.9731379 31.4529735,29.4486078 C31.0421878,30.8834178 30.616001,32.3143076 30.2291567,33.755698 C29.9746208,34.7046776 30.041265,35.4195624 30.4197087,36.1029453 Z"/>
      <path fill="#FCC33C" d="M30.3323432,10.231142 C31.2393201,10.2507432 32.4874984,9.55531955 32.8842833,8.8261538 C33.0402531,8.53941581 32.8823232,8.48061212 32.6252671,8.42180843 C31.8524186,8.24539736 30.5013338,9.4651539 30.3323432,10.231142 Z M18.0591731,16.0303058 C19.2324468,14.3135181 20.5089068,12.7777617 21.1904696,10.8450805 C19.8441451,11.5252432 17.8938228,14.6957421 18.0591731,16.0303058 Z M25.0090692,11.6697322 C24.70287,12.3106924 24.431533,12.9712539 24.081931,13.5874326 C23.650984,14.3472602 23.1641734,15.076146 22.6828232,15.8061518 C22.4358478,16.1809553 22.041443,16.4889746 21.6209966,16.3108834 C21.276575,16.1648543 20.9598751,15.7995714 20.7836041,15.4537497 C20.6127934,15.1182886 20.6365949,14.6837013 20.5623902,14.2134118 C20.2395299,14.7003624 19.9569922,15.14083 19.6597536,15.571217 C19.3014711,16.0900896 18.9251275,16.5966414 18.567405,17.1159339 C18.3509514,17.4301137 18.0791944,17.6616882 17.6871698,17.578943 C17.2714837,17.4911575 16.9197816,16.9589841 16.9063408,16.5180964 C16.8664383,15.2095743 17.2481022,14.0045187 17.9852485,12.9579531 C18.7362556,11.8916461 19.6113105,10.9118647 20.4457629,9.90548153 C20.5867517,9.73537085 20.7862642,9.6054427 20.9773762,9.48657524 C21.5964951,9.10127106 22.0145613,9.14579386 22.5341339,9.64198499 C22.7442871,9.84261758 22.8285724,10.0474504 22.7297262,10.374651 C22.3804043,11.5312635 22.0630044,12.6985168 21.7740262,13.8717904 C21.6834405,14.2391734 21.7199828,14.6380585 21.6982815,15.0225226 C21.7467245,15.0487042 21.7951676,15.0748859 21.8436106,15.1009275 C22.1502298,14.7154833 22.5008118,14.3569208 22.7538077,13.9389946 C23.2408983,13.1342241 23.6893464,12.3046721 24.1223936,11.4689596 C24.5483003,10.6469681 24.9394848,9.80677533 25.3359897,8.96994282 C25.4372161,8.75642943 25.468018,8.40262723 25.787098,8.53577558 C26.0339335,8.63882205 26.3089108,8.89349803 26.3828354,9.13781336 C26.4755212,9.44485262 26.3913759,9.81181565 26.3558137,10.1499369 C26.2506671,11.1505796 26.1306796,12.1496823 26.0199326,13.1497651 C26.0077519,13.259532 26.0182525,13.371679 26.106178,13.5123878 C26.1495808,13.4307627 26.2033441,13.3530578 26.2347061,13.2669524 C26.5922885,12.2850708 26.9360101,11.2978689 27.316134,10.3246678 C27.3581366,10.2167211 27.6024519,10.1343959 27.7524013,10.135516 C27.937773,10.136916 28.1202044,10.2464029 28.3076762,10.2941459 C28.718742,10.3992925 29.0428623,10.486378 29.3354807,9.95210445 C29.8654139,8.98464375 30.6818051,8.21767562 31.6900084,7.76684734 C32.7739564,7.28199691 33.676033,7.75326648 33.7470175,8.91393931 C33.7643786,9.19843716 33.5785869,9.53473826 33.3992357,9.78465394 C32.7417544,10.7003114 31.7877345,11.1144574 30.7004263,11.2565663 C29.5733556,11.4039956 29.5417136,11.4300372 29.5372333,12.6049909 C29.5361133,12.9132903 29.5181921,13.2304101 29.579376,13.5287689 C29.8642939,14.9194761 30.8841178,15.3831852 32.273565,14.7643464 C34.2727505,13.8737505 35.3072754,11.6646919 36.4367262,9.88182004 C36.5858356,9.64646527 36.7143637,9.33564577 37.0585053,9.50869663 C37.4026469,9.6818875 37.3189216,10.0334496 37.181713,10.2812651 C36.6641005,11.2177839 36.1285669,12.1456221 35.5640515,13.0545591 C34.9160908,14.0979046 33.9811122,14.8266503 32.9218057,15.4355485 C30.9513221,16.5679396 28.6679188,15.2932996 28.6478975,13.1143429 C28.6435573,12.6332727 28.7004008,12.1516425 28.6945205,11.6707123 C28.6931204,11.5444244 28.5606721,11.3141099 28.4913677,11.31523 C28.3145366,11.3180302 28.033959,11.3771139 27.9801956,11.4969614 C27.5643695,12.4215794 27.1762652,13.3596383 26.8123824,14.3062377 C26.5010028,15.1159085 26.2568275,15.9520409 25.9287869,16.7542913 C25.8519221,16.9426031 25.5355022,17.179918 25.3656716,17.1540163 C24.9547458,17.0917124 24.7612537,16.7213892 24.7571934,16.3246043 C24.7529931,15.905278 24.831118,15.4855316 24.8661202,15.0655053 C24.9530657,14.0148794 25.0366509,12.9641134 25.1189761,11.9130675 C25.1247165,11.8394229 25.1081954,11.7638181 25.101895,11.6891934 C25.0709531,11.682753 25.0400111,11.6761726 25.0090692,11.6697322 Z"/>
      <path fill="#FCC33C" d="M8.92093975,10.2401025 C7.66758111,10.8392001 6.37291987,11.3520523 5.04913681,11.7734787 C4.04527382,12.0931188 2.96986635,12.3615156 1.94794222,12.1048795 C0.925878095,11.8483834 0.00588036897,10.8963237 0.140988846,9.85129813 C0.416246118,9.72389013 0.732665972,9.94440397 0.897876338,10.1987999 C1.0629467,10.4533359 1.16235293,10.7606552 1.39658763,10.9533073 C1.64874345,11.1606603 2.00058553,11.188102 2.32708601,11.1846018 C4.4480791,11.1616403 6.44068412,10.2326821 8.35656434,9.32220493 C8.58449864,9.21383813 8.82083347,9.09903092 8.97778332,8.90133852 C9.16259491,8.66808388 9.20837778,8.35712437 9.24758024,8.06212586 C9.47369443,6.36031908 9.69980862,4.6585123 9.92606282,2.95670552 C9.98388644,2.52141821 10.1499369,1.97636401 10.5876043,1.94038175 C11.171581,1.89263875 11.3073895,2.74081197 11.2149837,3.31946828 C10.9524672,4.96163132 10.6899507,6.60379436 10.4274343,8.24609741 C11.8121212,7.97294027 13.1597057,7.51259138 14.4220249,6.88129177 C14.6008161,6.79182616 14.7828276,6.6952201 14.9116356,6.5423305 C15.0888868,6.33217732 15.14083,6.04697942 15.1866129,5.77606242 C15.4575299,4.17128173 15.7283069,2.56650104 15.9992239,0.961720344 C16.0564875,0.622339049 16.1707346,0.217153625 16.5033955,0.128948091 C16.797554,0.0509631977 17.0984329,0.298078703 17.1916787,0.587896888 C17.2849246,0.877715073 17.2266809,1.19175478 17.1677372,1.49039352 C16.9004604,2.84399845 16.6331837,4.19746337 16.3659069,5.5510683 C16.3372051,5.69695746 16.3089233,5.8522272 16.3618466,5.99125592 C16.5064757,6.37081974 17.0541901,6.31453621 17.4427145,6.19664881 C18.599467,5.84620682 19.7810012,5.57809 20.9755561,5.3948185 C21.8570514,5.25971002 23.8219347,4.98781296 24.176297,6.1503059 C23.0247247,6.34477811 21.7309035,6.34547815 20.543629,6.48226673 C19.1845637,6.63893656 17.8390793,6.90845347 16.5297172,7.30607842 C16.3302046,7.36670223 16.1179513,7.43936679 15.9939035,7.60709731 C15.8816165,7.75900684 15.8643954,7.95879938 15.8510946,8.1472512 C15.633941,11.2399053 15.4166473,14.3325593 15.1993537,17.4252134 C15.1775123,17.7358928 15.1486705,18.0660336 14.9604987,18.3142691 C14.7723269,18.5625047 14.3636413,18.6680713 14.1497078,18.4416771 C14.0021386,18.2857073 14.0018586,18.0457323 14.0110991,17.8312388 C14.151668,14.5326319 14.4013036,11.2387852 14.7593061,7.95669925 C14.8003287,7.55739419 11.3612929,9.08825025 11.1490396,9.17505569 C10.8546011,9.29532324 10.5429415,9.42945166 10.3661104,9.69378824 C10.2067804,9.93194319 10.1859191,10.2335221 10.1699581,10.5195601 C9.97394582,14.0494615 9.77779351,17.579503 9.58178121,21.1092645 C9.56007985,21.4986289 9.530538,21.9112348 9.30414379,22.2286347 C9.07760958,22.5460347 8.57861827,22.7008844 8.29132024,22.4373878 C8.06814624,22.232695 8.06618612,21.8877134 8.08130707,21.5851544 C8.27045893,17.7974967 8.5503365,14.0143193 8.92093975,10.2401025"/>
      <path fill="#35C3C3" d="M10.9902696,44.0939467 C11.0217716,44.1180282 11.0534136,44.1421097 11.0849155,44.1663312 C11.3041693,44.0200221 11.5498847,43.9000345 11.7377765,43.7225034 C12.3462547,43.1479073 12.9324715,42.5511899 13.5293289,41.9648331 C13.8085064,41.6905559 14.153068,41.4585613 14.3628012,41.1421415 C14.9981611,40.1832213 15.6391213,39.2203809 16.1694746,38.2060173 C16.6726661,37.2435969 17.1428156,36.241274 17.4310937,35.205069 C17.6938902,34.2602897 17.7252522,32.8777029 17.5052984,31.9336237 C17.0781316,30.1002087 15.2774786,29.3203597 13.4807459,29.4543481 C10.9444867,29.6435 8.96350242,30.8400151 7.49817048,32.8005581 C6.51138856,34.1209809 6.25503248,35.6015738 6.97761781,37.1465708 C7.22081307,37.6667034 7.62711857,37.962822 8.25799815,37.899538 C9.30358376,37.7945314 10.2275017,37.4020868 11.0893958,36.8363113 C11.4812804,36.5791152 11.6536312,36.2528947 11.6947938,35.7903057 C11.8080609,34.5163657 11.9655708,33.246066 12.1200005,31.9760464 C12.1744639,31.5292783 12.4486011,31.3555274 12.7748216,31.5373988 C13.180427,31.763513 13.4073813,32.0635518 13.2985944,32.5664634 C13.1384244,33.3064098 13.0264173,34.0564369 12.9067098,34.8040838 C12.8689075,35.0399986 12.8724077,35.2819338 12.8487462,35.6477767 C13.116023,35.4045815 13.260652,35.2488917 13.4293626,35.1234438 C14.0764832,34.6433537 14.7604262,34.2051262 15.3721245,33.6865337 C15.7351673,33.3786544 16.0760887,33.2316451 16.6152625,33.3864949 C16.4648931,33.6040685 16.3628267,33.8440436 16.1822154,33.9963731 C15.395646,34.6604348 14.5767346,35.2879542 13.7883452,35.9496357 C13.1116827,36.5173713 12.5305062,37.0782465 12.4040783,38.073849 C12.223187,39.4989984 11.7786591,40.8930659 11.4415179,42.2991741 C11.2977289,42.8989717 11.1410591,43.4958292 10.9902696,44.0939467 Z M11.3664732,37.6615231 C10.7367137,37.9236195 10.2060804,38.1257922 9.69112808,38.361847 C7.80520974,39.2265413 5.64221402,37.7217269 5.55036826,35.748163 C5.50836563,34.8427262 5.53636738,33.9270688 5.99853638,33.0970967 C6.6537775,31.9197628 7.59687667,31.0435878 8.65800325,30.2067553 C10.1709382,29.0138805 11.8755451,28.5584319 13.7100802,28.4111427 C15.6641829,28.2541928 17.7024307,29.4630287 18.2255036,31.1796764 C18.4768193,32.0046081 18.5906465,32.9387468 18.4923603,33.7916803 C17.9404457,38.5784406 15.3192012,42.1646256 11.7111748,45.1449926 C11.4700797,45.3442251 11.2245043,45.5381373 10.980189,45.7334496 C10.6429078,46.0029665 10.3039465,45.9508832 9.96736541,45.7331696 C9.66144621,45.5349171 9.60684279,45.2715606 9.69392825,44.9191585 C10.1546972,43.0538214 10.6011852,41.1848442 11.0416528,39.3147468 C11.1633204,38.7981144 11.2476057,38.2726614 11.3664732,37.6615231 Z"/>
      <path fill="#FF4C7E" d="M27.5222269 20.6489156C27.4824644 20.5563698 27.4428419 20.463824 27.4030794 20.3711382 27.1213817 20.5035865 26.8396841 20.6358948 26.5581264 20.7683431 26.5915885 20.8433878 26.6249106 20.9182925 26.6582327 20.9933372 26.9462308 20.87853 27.2343688 20.7637228 27.5222269 20.6489156zM27.3221543 21.8109885C27.1129812 21.7974077 26.9584115 21.7920874 26.8046819 21.7766864 26.152801 21.7115823 26.1432804 21.7083621 25.994591 22.3799842 25.8764236 22.9141178 25.7522358 23.4573518 26.0941373 23.9969457 26.9365702 23.4695326 27.0475971 22.6171591 27.3221543 21.8109885zM19.6283916 24.8474991C20.5798913 24.3536881 22.1548501 21.7022017 21.99412 20.9023315 21.2263119 21.2484332 19.6577934 23.42837 19.6283916 24.8474991zM31.6575264 20.7581225C31.0433078 20.8257467 30.5310157 20.8758699 30.0216637 20.9458743 29.9537595 20.9551148 29.8605136 21.0581613 29.8460927 21.1309659 29.7129444 21.7978277 29.579936 22.4656696 29.48389 23.1384118 29.4635887 23.2801007 29.5761558 23.5591382 29.6584809 23.571599 29.8126306 23.5951205 30.0485454 23.5181157 30.1462715 23.3981281 30.5451566 22.9080974 30.9402614 22.407426 31.2653618 21.8676921 31.4636142 21.5381114 31.5313785 21.1301258 31.6575264 20.7581225zM36.129967 18.6000271C34.7835025 18.8940455 33.1420395 21.9043744 33.7293764 22.9715214 34.774962 21.6167964 35.5184086 20.1486642 36.129967 18.6000271zM43.5038097 20.3442565C42.7456621 20.9003714 41.9908747 21.4615266 41.2281069 22.0112011 40.5174223 22.5232132 39.7196522 22.7844696 38.8492176 22.9040371 37.9820032 23.0231846 36.5341724 22.1191479 36.2540148 21.1150049 36.2339935 21.0429003 36.1894707 20.9777963 36.1229666 20.8403076 35.6705982 21.6202966 35.2710131 22.3659834 34.8136044 23.0744278 34.5949107 23.4132491 34.313353 23.7582307 33.9766319 23.9620835 33.5697664 24.208639 32.9895699 23.8629573 32.8299599 23.4005083 32.3820718 22.1016468 32.9491074 20.9972575 33.4885613 19.8864278 33.5539454 19.7518793 33.6326303 19.6236313 33.7048748 19.4925831 33.6765931 19.4584209 33.6483113 19.4243988 33.6201695 19.3903767 33.1853022 19.666894 32.7400743 19.9289905 32.3252283 20.2329495 32.2458433 20.2910532 32.2557839 20.5189875 32.2780453 20.6601163 32.4702774 21.8763726 31.6502459 23.6532241 30.5769386 24.2776633 30.1657328 24.5169383 29.7333856 24.559641 29.2895578 24.3118255 28.7372231 24.0035261 28.4982281 23.5223159 28.5262299 22.9197181 28.5462512 22.487931 28.6429972 22.0597842 28.703901 21.6298172 28.7249024 21.4815479 28.7410034 21.3327185 28.7593445 21.1840292 28.7011009 21.1620478 28.6427172 21.1400664 28.5844735 21.1180851 28.4994882 21.308077 28.3702601 21.4905084 28.336938 21.6891809 28.1805482 22.6217794 27.9173317 23.5050948 27.3112337 24.256522 26.9766127 24.671648 26.6289708 25.0474316 26.0153123 24.8801211 25.5101606 24.7424925 25.0164897 24.1544556 24.9512456 23.5735591 24.909663 23.2037959 24.9032226 22.8301125 24.8773209 22.3963653 24.750893 22.4821907 24.6535869 22.5240533 24.5900229 22.5958778 24.3833699 22.8289924 24.2164795 23.1039697 23.985465 23.3076825 22.8758954 24.2864839 22.6066585 25.5913657 22.4166665 26.9767527 22.2697973 28.04908 21.9390966 29.0964857 21.6806404 30.1527119 21.6407379 30.3156822 21.5910347 30.5235952 21.4727273 30.6085806 21.3034567 30.7303882 21.0576013 30.8283943 20.861449 30.8034728 20.7131797 30.7844316 20.4965861 30.5720383 20.4726446 30.4201287 20.1863266 28.6061749 20.3137346 26.8394041 21.2897358 25.2314032 21.5175301 24.8561796 21.8851932 24.5722418 21.7775264 24.1181933 21.3062569 24.6086441 20.829667 25.1132357 20.3431364 25.6081668 20.0309169 25.9258467 19.6733344 26.1343198 19.2180258 25.9063855 18.7411559 25.6676705 18.5702052 25.308828 18.6589708 24.7464127 18.9294677 23.0310251 19.7339582 21.6079758 21.0455605 20.4781049 21.3950224 20.177086 21.7614254 19.8634663 22.1747314 19.6766946 22.7594081 19.412498 23.0363454 19.6400123 23.0173042 20.2588512 22.9914026 21.100584 22.9643809 21.9424568 22.9404394 22.7841896 22.9376392 22.885416 22.9513601 22.9869223 22.965641 23.2254973 23.4068087 22.6734427 23.7545905 22.2126737 24.1310741 21.7766864 24.3423474 21.531951 24.6113043 21.3377588 24.8361584 21.1033841 25.2535245 20.6679568 25.642749 20.2045277 26.0762162 19.7863215 26.2071244 19.6598936 26.4543799 19.571688 26.632051 19.5945095 26.9540712 19.6359521 27.2639107 19.7727407 27.5783704 19.8718669 27.6814169 19.9044889 27.7869835 19.9343108 27.8834496 19.9816338 28.0626608 20.0695593 28.2996957 20.2937133 28.400362 20.2421901 28.7726454 20.0512181 29.2066726 19.8403649 29.420326 19.5096641 29.8624737 18.8246012 30.9458617 18.5374431 31.5294183 19.0920179 31.7857744 19.3357732 31.9637256 19.3182721 32.2546638 19.1701428 32.8393405 18.8723442 33.4318577 18.5398233 34.0610572 18.3970143 34.5083852 18.295648 34.9257514 18.2712864 35.2904743 17.9330252 35.4649253 17.7710351 35.7725246 17.7371529 36.0283206 17.6815694 36.9152763 17.4879373 37.087067 15.7880906 37.2542375 15.0957472 37.5657571 13.8055662 38.2033571 12.6811557 38.9221622 11.5671058 39.0991333 11.2926886 39.3185271 11.1480595 39.6161857 11.3500922 39.8969034 11.5405041 39.9785285 11.7307761 39.7778959 12.1172003 39.3862913 12.8719877 39.1211147 13.6927192 38.8098751 14.4886691 38.3981093 15.5422352 38.0023045 16.6021017 37.5814381 17.6520276 37.1700923 18.6777319 36.7028829 19.6720743 37.0942075 20.8379275 37.5031732 22.0562839 38.2286987 22.487651 39.4555957 22.0147013 40.1998824 21.7276833 40.8915258 21.2978563 41.5917097 20.9051317 42.0195765 20.6651566 42.4030606 20.3432765 42.8387679 20.1219226 42.9966979 20.0416975 43.2485737 20.1465641 43.4577468 20.1668654 43.4731477 20.2259491 43.4884087 20.2851728 43.5038097 20.3442565zM12.1929451 25.7630165C12.2331276 25.7879381 12.2731701 25.8129997 12.3133526 25.8380612 12.9807745 24.7720343 13.6481964 23.7058674 14.3157583 22.6398405 14.2675952 22.6097387 14.2195722 22.5797768 14.1714092 22.5498149 13.3358368 23.5108352 12.3575954 24.3828099 12.1929451 25.7630165zM14.1317867 24.910223C13.6201946 25.6497494 13.1235834 26.3588939 12.637613 27.0748988 12.4355803 27.3724175 12.2038657 27.6651759 11.8159014 27.5587692 11.4060957 27.4464821 11.1175376 27.156664 11.1017166 26.6874945 11.0546736 25.2858666 11.5294434 24.0577095 12.4190592 23.0016232 12.956833 22.3631832 13.5555105 21.7726261 14.1595084 21.1946699 14.4764883 20.8912708 15.2784587 20.8897307 15.5735972 21.1057643 15.7873906 21.2621541 15.8496945 21.4290446 15.7873906 21.7002416 15.586058 22.5755765 15.3861254 23.4535716 15.252557 24.3405273 15.2034139 24.6674478 15.3406226 25.02237 15.3927058 25.3645515 15.6835041 25.2393837 15.9813028 25.1277967 16.2627204 24.9842877 16.4688133 24.8791411 16.6396241 24.6908292 16.8528574 24.6181647 16.9991666 24.5683216 17.21296 24.6156445 17.3528288 24.6958696 17.4109325 24.7291916 17.4131726 25.0118694 17.3412081 25.0940545 17.0477497 25.4299356 16.7631118 25.8141197 16.3885883 26.0300133 15.5324346 26.5232642 14.6641001 26.1619015 14.2765558 25.2326632 14.2370733 25.1380173 14.1925505 25.0453315 14.1317867 24.910223z"/>
      <path fill="#00ABAB" d="M37.4548701 37.2525574C37.3355826 37.2909198 37.2256757 37.182133 37.1472708 36.8228705 37.0681659 36.4596877 36.9597991 36.0762036 37.0036218 35.7182012 37.1202491 34.7646013 37.2370165 33.7993808 37.4932325 32.8774229 37.7603693 31.9164026 37.7431482 30.9321409 37.9126989 29.9658002 38.1491737 28.6184957 38.3024833 27.2566302 38.4870149 25.9003651 38.5220171 25.642609 38.5469386 25.3824726 38.5561792 25.1227563 38.56864 24.7723144 38.7537316 24.576022 39.0830323 24.6439263 39.3928717 24.7076303 39.827739 24.7230313 39.7251126 25.2560447 39.5809035 26.0053717 39.4162532 26.7517586 39.2996259 27.5055659 38.9890864 29.5131518 38.7086488 31.5254981 38.3975493 33.5333641 38.2805019 34.2895515 38.3251647 35.0661802 38.1781555 35.8185875 38.1208919 36.1107858 37.7579891 37.1555313 37.4548701 37.2525574M37.2186753 39.7339331C37.7631695 39.7360333 37.9778029 40.7698581 37.2720187 40.6120682 36.7493659 40.4953009 36.4374263 39.731413 37.2186753 39.7339331"/>
    </g>
    <rect width="50" height="50"/>
  </g>
</svg>
