<svg xmlns="http://www.w3.org/2000/svg" style="enable-background:new 0 0 300 300;" viewBox="0 0 300 300">
  <g fill="none" fill-rule="evenodd">
    <path fill="#413E08" fill-rule="nonzero" d="M128.34,25.68 C129.553171,29.5778308 130.298406,33.6061276 130.56,37.68 C131.189112,46.4185254 130.046249,55.1940797 127.2,63.48 C126.54,65.28 125.64,66.78 123.42,66.48 C120,66 116.1,66 114.66,61.86 C113.476693,56.3987975 112.873348,50.8279129 112.86,45.24 C112.682064,38.5179974 113.844678,31.8278695 116.28,25.56 C117.36,23.04 118.44,20.16 121.8,20.28 C124.959509,20.3696014 127.654144,22.5945293 128.34,25.68 Z M113.52,21.3 C111.193491,24.9696731 109.566096,29.0381614 108.72,33.3 C107.626171,40.8288544 107.384645,48.457029 108,56.04 C107.688033,65.1936067 114.299337,73.1220061 123.36,74.46 C125.82857,75.1494662 128.471504,74.8032823 130.679224,73.5012935 C132.886945,72.1993046 134.46882,70.0539345 135.06,67.56 C136.9363,59.1781333 137.603063,50.5708315 137.04,42 C137.003737,38.5843125 136.723019,35.1756018 136.2,31.8 C135.470788,28.4513526 134.279374,25.2203999 132.66,22.2 C131.03566,18.4703062 127.433527,15.9872951 123.369958,15.7962183 C119.30639,15.6051414 115.487154,17.7391853 113.52,21.3 Z M85.2,24 C90.2391779,24.7486311 94.2564089,28.5974752 95.22,33.6 C97.0500936,39.8283474 97.0500936,46.4516526 95.22,52.68 C93.4766478,57.6757803 89.5758773,61.6206273 84.6,63.42 C81.42,64.92 80.7,62.64 80.7,60.18 C80.7,54.72 80.7,49.26 80.7,43.74 C80.7,38.4 80.7,33.06 80.7,27.72 C80.46,24.42 82.02,23.64 85.2,24 Z M80.1,70.92 C88.2151298,69.7321653 95.1617996,64.4825646 98.52,57 C101.265472,50.5591489 101.854784,43.4032251 100.2,36.6 C99.0698528,26.4268303 90.2015292,18.9005972 79.98,19.44 C78.6723413,19.2905797 77.3668088,19.7371202 76.4245779,20.6560862 C75.4823469,21.5750522 75.0033127,22.869015 75.12,24.18 C74.7,32.82 74.28,41.4 73.8,49.98 C73.8,55.62 73.8,61.2 74.82,66.78 C75.3,70.14 77.04,71.46 80.1,70.98 L80.1,70.92 Z M152.94,69 C154.44,64.92 156.06,60 158.04,55.2 C159.652654,51.7348041 160.977132,48.1426586 162,44.46 C162.315477,42.0471799 164.30982,40.2043058 166.74,40.08 C169.5,40.08 169.68,42.48 170.28,44.34 C172.62,52.02 173.1,60.12 175.98,67.62 C176.278367,68.4147645 176.218629,69.2997058 175.816154,70.0471597 C175.413679,70.7946136 174.707758,71.3316105 173.88,71.52 C173.194796,71.8790649 172.388491,71.9269772 171.665587,71.651585 C170.942682,71.3761928 170.372626,70.8039523 170.1,70.08 C169.456036,68.7292188 168.933964,67.3236384 168.54,65.88 C167.88,64.14 167.76,62.22 164.94,62.28 C162.12,62.34 160.14,63 159.42,65.94 C159.079949,67.6898592 158.618841,69.4140032 158.04,71.1 C157.83797,71.8412805 157.329697,72.4613821 156.642492,72.8049845 C155.955287,73.1485869 155.154243,73.183144 154.44,72.9 C152.88,72.42 152.88,71.22 153.18,69.06 L152.94,69 Z M184.44,61.92 C185.218282,55.0089431 185.518995,48.0524377 185.34,41.1 C185.326882,40.1525277 185.510768,39.2126647 185.88,38.34 C186.463332,36.8763 187.90553,35.9388711 189.48,36 C191.58,36 191.94,38.04 191.88,39.78 C191.58,45.78 191.34,51.78 190.74,57.78 C190.14,63.78 190.26,64.14 196.08,62.82 C198,62.4 200.4,61.38 201.06,64.44 C201.72,67.5 199.44,67.92 197.46,68.46 C195.48,69 193.38,69.12 191.46,69.48 C184.44,70.68 184.08,70.38 184.26,62.16 L184.44,61.92 Z M212.04,64.86 C212.818193,57.9288529 213.118902,50.9524012 212.94,43.98 C212.930605,43.0266577 213.135661,42.0834 213.54,41.22 C214.023763,39.5756551 215.61608,38.5141101 217.32,38.7 C219.42,38.7 219.78,40.74 219.72,42.42 C219.72,48.42 219.18,54.42 218.58,60.42 C217.98,66.42 218.1,66.78 223.92,65.46 C225.9,65.04 228.24,64.08 228.9,67.08 C229.56,70.08 227.34,70.62 225.3,71.1 C223.26,71.58 221.22,71.76 219.3,72.12 C212.34,73.38 211.92,73.08 212.1,64.86 L212.04,64.86 Z"/>
    <path fill="#763F2E" fill-rule="nonzero" d="M160.14,89.64 C182.92784,87.7214406 205.81703,87.300536 228.66,88.38 C230.58,88.38 230.58,85.62 228.66,85.5 C205.867132,83.640257 182.973851,83.3395571 160.14,84.6 C158.22,84.6 158.16,89.76 160.14,89.64"/>
    <path fill="#8A5B12" fill-rule="nonzero" d="M160.5,96.9 C182.16,96.9 203.88,97.5 225.6,97.26 C227.58,97.26 227.58,93 225.6,93.06 L160.5,93.78 C159.739298,93.9284672 159.190322,94.5949453 159.190322,95.37 C159.190322,96.1450547 159.739298,96.8115328 160.5,96.96"/>
    <path fill="#413E08" fill-rule="nonzero" d="M222,13.14 C221.50191,12.9265201 220.93809,12.9265201 220.44,13.14 C220.116883,13.2113698 219.848467,13.4350502 219.72,13.74 C218.773243,16.1646231 218.167468,18.7088794 217.92,21.3 C217.92,22.02 217.92,23.1 218.4,23.4 C218.708402,23.6064869 219.094995,23.6586494 219.447094,23.541283 C219.799194,23.4239165 220.07717,23.1502309 220.2,22.8 C220.847323,21.5887764 221.610918,20.4433842 222.48,19.38 C223.295622,18.3118405 224.037348,17.1892289 224.7,16.02 C224.7,15.48 223.5,13.92 222.06,12.9 M249.24,50.46 C249.100049,50.1395102 248.805665,49.9130613 248.46,49.86 C245.875869,49.6170458 243.270422,49.7382293 240.72,50.22 L240.3,50.22 C239.58,50.22 238.56,50.76 238.38,51.18 C238.228309,51.5030808 238.228309,51.8769192 238.38,52.2 C238.599463,52.5280917 238.948917,52.7465001 239.34,52.8 C240.675276,53.1017539 241.980576,53.5234662 243.24,54.06 C244.483477,54.5686634 245.768152,54.9701243 247.08,55.26 C247.68,55.26 248.76,53.58 249.36,51.9 C249.563392,51.4206842 249.563392,50.8793158 249.36,50.4"/>
    <path fill="#62604F" fill-rule="nonzero" d="M241.62,25.38 C241.239055,25.2053939 240.800945,25.2053939 240.42,25.38 C239.335637,26.2152733 238.402171,27.2299102 237.66,28.38 C236.853645,29.6243929 235.838781,30.7204463 234.66,31.62 C234.149983,31.9787257 233.838743,32.5567424 233.82,33.18 C233.854198,33.6412848 234.127352,34.0510156 234.54,34.26 C234.988619,34.505463 235.531381,34.505463 235.98,34.26 L242.88,29.46 C243.348288,29.1701984 243.587451,28.6201233 243.48,28.08 C243.395436,27.0202508 242.756321,26.0844033 241.8,25.62 M200.46,13.86 C200.46,11.76 199.98,9.6 199.62,7.86 C199.62,7.38 199.2,7.08 198.66,6.9 C198.008652,6.74886632 197.331348,6.74886632 196.68,6.9 C195.24,6.9 193.98,7.92 194.16,9 C194.5707,10.9233445 195.194553,12.7949046 196.02,14.58 C196.865816,16.4102737 197.529027,18.3195176 198,20.28 C198.068297,20.9272324 198.517295,21.4707562 199.14,21.66 C199.700048,21.9696544 200.379952,21.9696544 200.94,21.66 C201.296334,21.3206588 201.454724,20.8228596 201.36,20.34 C201,18.54 200.76,16.38 200.46,14.34"/>
    <path fill="#413E08" fill-rule="nonzero" d="M184.44,24 L180.36,19.08 C180.114951,18.6597805 179.788592,18.2926261 179.4,18 C178.94252,17.7920606 178.41748,17.7920606 177.96,18 C177.169604,18.8812766 176.630783,19.9589169 176.4,21.12 C176.328242,21.3750489 176.328242,21.6449511 176.4,21.9 C177.78,23.46 177.78,23.46 182.4,26.04 C183.12,26.46 183.12,26.46 184.02,26.04 C184.412491,25.7436725 184.688533,25.318993 184.8,24.84 C184.778888,24.5272391 184.651922,24.2309854 184.44,24"/>
    <path fill="#62604F" fill-rule="nonzero" d="M145.44,131.46 C145.861571,131.640097 146.338429,131.640097 146.76,131.46 C148.868887,130.331936 150.631671,128.652107 151.86,126.6 C152.76,125.04 151.86,122.88 149.88,123.24 C148.987869,123.538477 148.239093,124.158891 147.78,124.98 C147.78,122.7 146.88,120.66 144.72,121.38 C142.56,122.1 143.16,123.36 143.16,124.62 C143.156969,126.663398 143.501898,128.692395 144.18,130.62 C144.376269,131.149564 144.875406,131.506091 145.44,131.52"/>
    <path fill="#413E08" fill-rule="nonzero" d="M224.82,159.06 C220.92,159.84 221.52,155.88 222.36,154.2 C223.164766,152.896094 224.251363,151.788995 225.54,150.96 C226.305528,150.442491 227.107639,149.981277 227.94,149.58 C228.66,154.08 228.42,158.4 224.82,159.06 Z M200.82,171.06 C199.98,174.96 198.78,184.2 194.82,186 C190.86,187.8 190.26,181.32 190.98,178.62 C191.735531,175.92516 192.802738,173.327617 194.16,170.88 C196.637225,166.463411 199.573475,162.320484 202.92,158.52 C202.493952,162.848389 201.751974,167.139832 200.7,171.36 L200.82,171.06 Z M111.96,130.44 L111.96,127.74 C111.603066,122.721679 112.956622,117.73044 115.8,113.58 C116.865493,112.134787 118.293601,110.99644 119.94,110.28 C121.247671,109.746453 122.712329,109.746453 124.02,110.28 C124.57296,110.471872 125.054335,110.82767 125.4,111.3 C125.652905,111.885468 125.756008,112.524707 125.7,113.16 C125.673178,114.530061 125.301756,115.871305 124.62,117.06 C123.482436,118.896951 122.176837,120.624359 120.72,122.22 C119.64,123.48 118.2,124.98 116.4,126.78 C115.22316,127.990196 113.959825,129.113161 112.62,130.14 L111.96,130.44 Z M254.4,154.8 C250.229563,146.714288 241.47266,142.072651 232.44,143.16 L231.78,143.16 C230.16,137.16 227.1,134.34 228.6,128.1 C229.2,125.46 225.18,123.48 224.04,126.18 C220.26,135.06 214.74,138.78 208.2,145.56 L208.2,141.48 C207.957534,137.932013 207.209999,134.436781 205.98,131.1 C205.757836,130.438177 205.251775,129.910113 204.6,129.66 C203.987879,129.392848 203.292121,129.392848 202.68,129.66 C201.804471,129.969554 201.162851,130.725749 201,131.64 C200.982769,131.759381 200.982769,131.880619 201,132 L199.56,134.7 C198.78,136.32 198.12,137.58 197.64,138.42 C197.16,139.26 196.14,140.64 195.42,141.54 C194.835449,142.372458 194.022881,143.018345 193.08,143.4 C193.120341,143.671892 192.987949,143.94032 192.747671,144.073808 C192.507393,144.207296 192.209539,144.177893 192,144 C191.04,143.34 190.5,141.84 190.32,139.44 C189.972961,136.838925 190.568944,134.199569 192,132 C193.384735,129.913175 195.807096,128.75967 198.3,129 C198.98917,129.006186 199.654616,128.748594 200.16,128.28 C200.652454,127.809984 200.933799,127.160725 200.94,126.48 C200.94,125.76 200.94,125.88 200.28,125.34 C199.800016,124.869576 199.152005,124.610371 198.48,124.62 C194.359138,124.009066 190.241063,125.74421 187.8,129.12 C186.009396,131.732472 185.066681,134.832957 185.1,138 L184.8,138 L183.42,139.5 L182.28,140.7 L180.78,142.14 L180.24,142.62 C180.049527,142.707303 179.830473,142.707303 179.64,142.62 L179.1,141.72 C179.168765,138.630624 178.289293,135.594353 176.58,133.02 C175.541531,131.664551 173.905779,130.902694 172.2,130.98 C170.692964,131.225698 169.293374,131.915048 168.18,132.96 C166.405222,134.656704 164.996335,136.69857 164.04,138.96 C163.91903,137.60269 163.91903,136.23731 164.04,134.88 C164.119015,133.560536 163.270937,132.363248 162,132 C161.248375,131.862118 160.473224,132.042029 159.859172,132.496882 C159.24512,132.951735 158.847132,133.640817 158.76,134.4 C158.76,134.88 158.76,135.48 158.76,136.14 C157.843183,136.766719 157.032881,137.536506 156.36,138.42 C155.88,139.14 155.22,140.22 154.44,141.66 C154.352471,141.877773 154.230962,142.080288 154.08,142.26 L154.08,142.56 C153.614585,143.451844 153.093558,144.313544 152.52,145.14 L152.52,145.5 C152.12726,145.978822 151.636163,146.367607 151.08,146.64 C150.355844,146.894268 149.550656,146.73323 148.98,146.22 C148.98,146.22 148.98,145.68 148.56,145.14 C148.487427,143.800983 148.487427,142.459017 148.56,141.12 C148.56,140.28 148.56,139.32 148.56,138.3 C148.617558,136.976688 147.706678,135.807034 146.409586,135.53867 C145.112493,135.270306 143.812267,135.98249 143.34,137.22 L142.38,138.24 C141.12,139.62 139.8,141.3 138.42,143.16 C137.04,145.02 135,147.54 134.52,148.14 C134.04,148.74 133.62,148.92 133.44,148.8 C133.26,148.68 133.44,146.16 134.28,141.84 C135.12,137.52 135.36,133.56 133.62,131.64 C132.471666,130.367544 130.833956,129.646952 129.12,129.66 C128.079672,129.615958 127.04579,129.843412 126.12,130.32 C123.873343,131.782226 122.101182,133.867121 121.02,136.32 C119.503424,139.249564 118.585567,142.451866 118.32,145.74 L118.32,147.6 L117.78,146.76 C116.934102,145.31153 116.230804,143.784369 115.68,142.2 C114.995491,140.420666 114.434166,138.596362 114,136.74 C113.836356,136.48391 113.836356,136.15609 114,135.9 C114.527976,135.412478 115.112081,134.989506 115.74,134.64 C118.349495,132.747206 120.761673,130.596347 122.94,128.22 C125.197113,125.937002 127.208148,123.423207 128.94,120.72 C129.750673,119.513816 130.434316,118.226959 130.98,116.88 C131.250136,116.196755 131.470707,115.494939 131.64,114.78 C131.726893,113.962302 131.726893,113.137698 131.64,112.32 C131.717708,111.095268 131.533623,109.868032 131.1,108.72 C130.680213,107.797672 130.089847,106.963017 129.36,106.26 C128.646402,105.515446 127.789092,104.923494 126.84,104.52 C125.795404,104.065024 124.677753,103.800852 123.54,103.74 C122.332015,103.680422 121.121462,103.781301 119.94,104.04 C117.15962,104.789092 114.657689,106.33195 112.74,108.48 C110.487247,111.005544 108.863123,114.027648 108,117.3 C106.930825,121.204978 106.505246,125.25811 106.74,129.3 C106.907857,133.781998 107.67466,138.221386 109.02,142.5 C109.766421,145.09412 110.771464,147.606726 112.02,150 C113.053622,152.147388 114.34297,154.161993 115.86,156 C116.267635,156.565173 116.886554,156.94142 117.575931,157.043131 C118.265309,157.144842 118.966515,156.963368 119.52,156.54 C119.990662,156.310929 120.370929,155.930662 120.6,155.46 C120.706152,154.543062 120.706152,153.616938 120.6,152.7 C120.61205,150.688426 120.792682,148.6814 121.14,146.7 C121.300148,145.164826 121.642559,143.654188 122.16,142.2 C122.630461,141.151284 123.257626,140.180189 124.02,139.32 C124.585251,138.752219 125.25849,138.303393 126,138 C126.556175,137.789186 127.184848,137.958445 127.56,138.42 C128.1,139.14 128.04,140.7 127.56,142.92 C126.841381,145.416675 126.718082,148.04705 127.2,150.6 C127.68,153.06 128.52,154.44 129.72,154.68 C131.095358,154.872908 132.47439,154.352946 133.38,153.3 C135.608046,151.230599 137.618514,148.938664 139.38,146.46 L142.26,142.74 C142.233168,144.766927 142.495817,146.787305 143.04,148.74 C143.333379,149.915773 143.93386,150.992497 144.78,151.86 C145.73383,152.903563 147.086261,153.492525 148.5,153.48 C149.067463,153.484286 149.626099,153.339454 150.12,153.06 C151.201085,152.319972 152.15369,151.407904 152.94,150.36 C153.36,149.76 153.78,149.16 154.2,148.44 C154.62,147.72 155.4,146.46 156.24,144.9 C156.24,144.9 156.24,144.9 156.24,144.9 C156.24,144.9 156.24,144.9 156.24,144.9 L156.24,144.54 C156.728467,143.559188 157.290053,142.616526 157.92,141.72 C157.856969,146.268377 158.381302,150.805867 159.48,155.22 C159.953889,156.783306 161.451358,157.806577 163.08,157.68 C164.790064,157.575571 166.179919,156.261527 166.38,154.56 C166.687892,150.809987 167.228938,147.082779 168,143.4 C168.696888,141.151719 169.90906,139.097191 171.54,137.4 C171.709829,137.314423 171.910171,137.314423 172.08,137.4 C172.252588,137.452352 172.387648,137.587412 172.44,137.76 C172.413984,137.87859 172.413984,138.00141 172.44,138.12 C172.44,138.12 172.44,138.42 172.44,138.54 C172.44,138.66 172.44,139.74 172.44,140.34 C172.382558,141.158994 172.382558,141.981006 172.44,142.8 L172.44,144 C172.44,146.64 173.64,148.02 175.68,148.08 C176.493692,148.106596 177.300246,147.920468 178.02,147.54 C178.727827,147.239085 179.362297,146.788816 179.88,146.22 L181.86,144.48 L183.42,142.86 L184.62,141.66 C184.980837,144.056835 186.274952,146.213692 188.22,147.66 C189.692739,148.686432 191.572624,148.932608 193.26,148.32 C195.097645,147.649496 196.702121,146.461767 197.88,144.9 C198.942827,143.671923 199.887038,142.346011 200.7,140.94 L201.66,139.14 C202.02,143.14 202.2,146.98 202.2,150.66 L199.44,153.66 C195.148002,158.245301 191.439833,163.344034 188.4,168.84 C185.255136,173.664136 183.916308,179.444471 184.62,185.16 C185.545126,189.15428 189.385091,191.766501 193.44,191.16 C199.08,190.08 201.24,184.44 202.74,179.58 C205.424929,170.780881 206.898481,161.656971 207.12,152.46 C213.083785,146.653565 218.543423,140.350895 223.44,133.62 C223.44,135.54 224.16,137.4 224.64,139.32 C224.64,140.34 225.48,142.14 226.02,144.18 C220.02,146.7 214.02,151.86 216.18,158.52 C218.7,167.1 229.62,163.74 231.66,156.78 C232.468142,153.785905 232.591189,150.648186 232.02,147.6 C232.857672,147.511556 233.702328,147.511556 234.54,147.6 C241.562888,147.273643 248.223597,150.729887 252,156.66 C253.68,159.48 255.9,157.62 254.4,154.8 Z"/>
    <path fill="#413E08" fill-rule="nonzero" d="M66.72,110.58 C65.8870103,116.366478 61.2002065,120.8301 55.38,121.38 C52.8377478,121.595129 50.3280302,120.69123 48.5067539,118.904535 C46.6854777,117.11784 45.7336397,114.625909 45.9,112.08 C45.9,101.64 55.38,97.44 64.44,96.18 C66.7512993,100.602499 67.5520395,105.659806 66.72,110.58 Z M137.52,82.68 C127.8,94.02 111.96,95.04 98.04,93.84 C98.94,91.26 100.02,88.8 101.16,86.34 C102.9,82.8 96.24,79.62 94.56,83.22 C93.0145506,86.3841122 91.6913491,89.652019 90.6,93 C82.4822257,91.5737543 74.2363049,91.0106183 66,91.32 C62.1651578,86.0303767 57.71379,81.216454 52.74,76.98 C50.58,75.06 48.36,77.52 50.52,79.44 C54.7804379,83.1143302 58.5873356,87.2837897 61.86,91.86 C58.9019303,92.3822116 56.0199712,93.2689683 53.28,94.5 C43.68,99 36.78,112.5 44.64,121.5 C52.5,130.5 66.06,124.92 69.96,115.5 C72.4965234,109.141689 72.0337038,101.979005 68.7,96 L70.68,96 C76.8865157,96.1322775 83.0786462,96.6532982 89.22,97.56 C82.3661292,124.712967 86.6888113,153.480416 101.22,177.42 C103.26,180.84 107.22,178.32 104.88,174.9 C91.4766442,151.688438 88.3875803,123.930371 96.36,98.34 C100.918737,98.8802341 105.512926,99.0607917 110.1,98.88 C121.5,98.34 134.4,97.08 142.02,88.2 C144,85.8 139.44,80.46 137.52,82.68 Z M163.92,217.02 C165.9,215.88 166.44,213.12 168.3,213.36 C170.16,213.6 170.7,216 171.9,217.38 L173.04,218.28 C174.18,213.48 175.26,208.98 176.4,204.42 C176.4,203.52 176.7,202.38 177.84,202.14 C178.823916,201.65698 179.976084,201.65698 180.96,202.14 C181.74,202.8 180.96,203.82 180.96,204.6 C179.04,211.08 177.06,217.56 174.96,223.98 C174.96,224.7 174.96,225.84 173.88,226.02 C172.8,226.2 172.56,225 172.02,224.4 C170.52,222.9 169.8,219.9 167.88,219.9 C165.96,219.9 165.3,222.78 163.92,224.28 C163.44,224.82 163.14,225.72 162.36,225.54 C161.58,225.36 161.58,224.46 161.4,223.74 C159.9,217.26 158.4,210.78 156.96,204.24 C156.96,203.28 155.46,201.78 157.38,201.18 C158.282081,200.887567 159.266994,201.005014 160.075016,201.50137 C160.883037,201.997726 161.433044,202.823159 161.58,203.76 C162.24,207.18 162.78,210.6 163.38,213.96 C163.38,214.86 163.74,215.7 163.98,216.78 L163.92,217.02 Z M235.98,213.6 C235.98,216.9 235.98,220.14 235.98,223.44 C235.98,224.94 235.44,225.84 233.82,225.84 C232.2,225.84 232.02,224.76 231.96,223.5 C231.9,222.24 231.96,220.5 231.96,218.94 C231.96,217.38 230.76,216.72 229.2,216.78 C227.64,216.84 225.84,216.36 225.84,218.94 C225.84,221.52 225.48,222.66 225.36,224.52 C225.24,226.38 224.7,226.32 223.5,226.26 C222.3,226.2 221.82,225.48 221.88,224.34 C221.88,216.96 222.54,209.58 222.9,202.2 C222.9,201.3 223.32,200.64 224.4,200.82 C225.48,201 226.86,200.82 226.86,202.68 C226.86,204.54 226.86,207.12 226.86,209.34 C226.86,211.56 226.86,211.74 228.84,211.8 C230.82,211.86 231.66,211.8 231.84,209.7 C232.02,207.6 232.32,205.44 232.5,203.34 C232.68,201.24 232.98,201.18 234.36,201.18 C235.74,201.18 235.98,202.32 235.98,203.46 L235.98,213.6 Z M214.08,201.06 C215.04,201.06 216.54,200.64 216.66,202.5 C216.78,204.36 215.76,204.42 214.44,204.48 C213.12,204.54 211.8,205.86 211.8,207.78 C211.8,213.06 211.8,218.4 211.8,223.74 C211.8,225.3 211.8,226.86 209.52,226.86 C207.24,226.86 207.36,225.24 207.36,223.74 C207.36,218.4 207.36,213.06 207.36,207.72 C207.36,205.62 206.82,204.72 204.66,204.96 C203.64,204.96 202.44,204.96 202.14,203.64 C201.84,202.32 202.62,201.6 204,201.48 C207.405401,201.549778 210.811864,201.409512 214.2,201.06 L214.08,201.06 Z M192.9,210 C192.9,214.8 192.9,219.6 192.9,224.4 C192.9,226.26 191.94,226.98 190.26,226.98 C188.58,226.98 188.94,225.36 189,224.4 C189,217.56 189.54,210.72 189.84,203.88 C189.84,202.62 189.84,201 191.7,201.06 C193.56,201.12 193.2,202.74 193.26,203.88 C193.26,205.92 193.26,207.96 193.26,209.88 L192.84,209.88 L192.9,210 Z"/>
    <path fill="#CE5F55" fill-rule="nonzero" d="M203.34,253.56 C203.34,254.82 202.98,256.14 202.74,257.46 C202.74,258.78 202.2,260.16 201.9,261.42 L201.9,262.2 L201.12,262.2 C199.99319,261.745963 199.074202,260.89109 198.54,259.8 C197.840373,258.543693 197.277167,257.216138 196.86,255.84 C196.428202,254.308256 196.127123,252.742643 195.96,251.16 C195.841459,249.642311 195.841459,248.117689 195.96,246.6 C195.980148,245.308566 196.287586,244.037821 196.86,242.88 C197.26271,241.784664 198.275155,241.031216 199.44,240.96 C200.01387,240.967955 200.574426,241.134046 201.06,241.44 C202.043595,242.179562 202.691487,243.280978 202.86,244.5 C203.650665,247.453386 203.814173,250.539603 203.34,253.56 Z M162.96,259.92 C162.879221,262.420183 162.019134,264.832622 160.5,266.82 C159.427096,268.34138 157.780425,269.359716 155.94,269.64 L155.04,269.64 C153.622903,269.446499 152.334211,268.71624 151.44,267.6 C149.963673,265.662919 149.258185,263.247158 149.46,260.82 C149.47155,259.525784 149.632618,258.237237 149.94,256.98 C150.272098,255.688191 150.798071,254.454177 151.5,253.32 C152.212131,252.166434 153.103271,251.133521 154.14,250.26 C155.25284,249.276535 156.561648,248.540331 157.98,248.1 L158.34,248.1 L158.64,248.1 C159.647525,248.870097 160.519497,249.802905 161.22,250.86 C161.98595,252.13437 162.514499,253.537055 162.78,255 C163.094112,256.620819 163.154835,258.280561 162.96,259.92 Z M227.52,253.92 C228.242293,251.222385 230.168277,249.008611 232.74,247.92 C233.16,247.92 233.88,247.56 234.3,247.92 C234.72,248.28 234.6,248.58 234.3,249.6 C234.354868,249.917648 234.354868,250.242352 234.3,250.56 C234.06474,251.004693 233.761032,251.409636 233.4,251.76 C232.858119,252.308453 232.254026,252.791728 231.6,253.2 C230.641264,253.761612 229.637866,254.243242 228.6,254.64 L227.04,255.24 L227.52,253.92 Z M249.3,259.92 C249.3,259.92 249.3,259.56 248.88,259.32 C248.630268,259.216662 248.349732,259.216662 248.1,259.32 C247.838318,259.382295 247.618218,259.558375 247.5,259.8 C245.54,262.8 243.54,265.74 241.5,268.62 C239.643271,271.288771 237.640205,273.852695 235.5,276.3 C234.360563,277.755621 232.815621,278.841256 231.06,279.42 C229.849086,279.648345 228.619353,279.128073 227.94,278.1 C227.109074,276.912921 226.611794,275.524679 226.5,274.08 C226.228899,272.312747 226.088518,270.527905 226.08,268.74 C226.08,266.82 226.08,264.9 226.08,262.74 C226.08,260.58 226.08,259.2 226.08,257.82 L226.08,257.28 L226.5,257.28 C232.5,255.24 235.92,252.66 236.16,249.72 C236.295805,248.649406 236.107717,247.562677 235.62,246.6 C235.271718,245.686081 234.717352,244.864798 234,244.2 C232.517324,243.380769 230.830099,243.00583 229.14,243.12 C227.186265,243.28493 225.306954,243.945787 223.68,245.04 C222.753288,245.628526 221.923431,246.357182 221.22,247.2 C220.391058,248.181762 219.667117,249.247564 219.06,250.38 C217.410042,253.770979 216.374026,257.427507 216,261.18 L216,261.54 L214.98,262.14 C213.694653,262.814121 212.286614,263.222248 210.84,263.34 C209.029246,263.44955 207.21204,263.308212 205.44,262.92 L204.66,262.92 L204.66,262.14 C205.442081,259.395072 205.964379,256.582699 206.22,253.74 C206.706924,250.287592 206.461605,246.771348 205.5,243.42 C205.213881,242.482137 204.789189,241.592307 204.24,240.78 C203.818048,240.190216 203.312789,239.664747 202.74,239.22 C202.286878,238.878357 201.779914,238.614736 201.24,238.44 C200.820768,238.404081 200.399232,238.404081 199.98,238.44 C197.838281,238.053393 195.636091,238.647985 193.98,240.06 C192.330165,241.64231 191.325439,243.780024 191.16,246.06 C190.789194,248.042813 190.789194,250.077187 191.16,252.06 C191.56363,254.151715 192.271122,256.173122 193.26,258.06 C194.796048,261.112193 197.309589,263.562368 200.4,265.02 L201.06,265.32 L201.06,265.92 C199.98,268.62 198.84,271.2 197.7,273.54 C196.726647,275.630495 195.58278,277.637278 194.28,279.54 C193.395733,280.940139 192.255902,282.161387 190.92,283.14 C189.946211,284.069527 188.413789,284.069527 187.44,283.14 C186.426779,281.659819 185.807303,279.945935 185.64,278.16 C185.340558,274.766593 185.340558,271.353407 185.64,267.96 C185.64,266.1 185.64,264.3 185.94,262.68 C186.24,261.06 186.24,259.5 186.42,258.18 C186.6,256.86 186.84,255.3 187.02,254.04 C187.390587,252.647492 186.950389,251.164718 185.88,250.2 C184.795438,249.181562 183.442229,248.494548 181.98,248.22 C180.546075,247.829772 179.033925,247.829772 177.6,248.22 C176.541117,248.439928 175.688468,249.223443 175.38,250.26 C175.338281,250.799194 175.338281,251.340806 175.38,251.88 C175.38,252.72 175.02,253.68 174.84,254.88 L174.84,255.54 L174.18,255.54 C173.389478,255.482459 172.616446,255.27903 171.9,254.94 C170.756656,254.432954 169.703007,253.74403 168.78,252.9 C167.76,252.06 166.62,251.04 165.48,249.96 C163.947135,248.62005 162.30097,247.415539 160.56,246.36 C158.919546,245.377793 157.068136,244.801798 155.16,244.68 C150.674104,244.060053 146.144849,245.467201 142.8,248.52 C141.396415,249.892014 140.239518,251.495432 139.38,253.26 C138.516906,255.154726 137.989079,257.18483 137.82,259.26 C137.563225,261.268135 137.705961,263.307222 138.24,265.26 C138.673869,267.024982 139.470812,268.680172 140.58,270.12 C141.885963,271.737143 143.496341,273.082523 145.32,274.08 C147.292478,275.113949 149.458226,275.726896 151.68,275.88 C153.620479,276.087318 155.58182,275.798279 157.38,275.04 C159.195041,274.263811 160.829439,273.119733 162.18,271.68 C164.665207,268.694926 166.136161,264.996527 166.38,261.12 C166.592182,259.46678 166.592182,257.79322 166.38,256.14 L166.38,254.28 L167.82,255.48 C168.335401,255.893807 168.876483,256.274569 169.44,256.62 L171.12,257.58 L172.86,258.24 L174.12,258.24 L174.84,258.24 L174.84,258.96 C174.84,259.56 174.84,260.22 174.84,260.94 C174.84,262.8 174.48,264.66 174.42,266.52 C173.394661,273.627076 174.589078,280.877394 177.84,287.28 C178.99677,288.915208 180.822684,289.94916 182.82,290.1 C186.294249,290.350885 189.731804,289.255165 192.42,287.04 C193.843195,285.979654 195.1326,284.750689 196.26,283.38 C197.543558,281.754269 198.725795,280.051046 199.8,278.28 C200.859081,276.482613 201.801039,274.618738 202.62,272.7 C203.46,270.78 204.18,268.74 204.84,266.7 L204.84,266.16 L204,266.16 C207.512285,266.821312 211.137523,266.531293 214.5,265.32 L215.46,264.9 L215.46,265.98 C215.512586,269.04857 215.874416,272.104021 216.54,275.1 C217.090528,277.668118 218.196397,280.084646 219.78,282.18 C220.872493,283.718455 222.5813,284.704305 224.46,284.88 C225.652203,285.001742 226.856711,284.87925 228,284.52 C229.14355,284.097614 230.247792,283.575609 231.3,282.96 C232.354912,282.301852 233.340001,281.537905 234.24,280.68 L237,278.04 C239.154053,275.58319 241.157703,272.998481 243,270.3 C245.1,267.36 247.08,264.3 249,261.24 C249.23145,261.104304 249.395555,260.877944 249.452549,260.615772 C249.509543,260.353599 249.454225,260.079539 249.3,259.86 L249.3,259.92 Z"/>
    <path fill="#CE5F55" fill-rule="nonzero" d="M75,284.88 C72.448806,284.355792 70.3574662,282.53569 69.4861465,280.081268 C68.6148267,277.626846 69.0903986,274.89549 70.74,272.88 C74.94,266.88 83.4,266.88 89.7,268.92 C91.0648869,269.327462 92.4068314,269.808158 93.72,270.36 C90.48,278.94 84.84,287.52 75,284.88 Z M127.38,188.88 C131.76,180.48 141.06,181.08 142.92,189.18 C144.48,195.9 138.3,202.2 134.22,206.76 C129.569875,211.995459 124.470414,216.813847 118.98,221.16 L117.06,222.48 C120,210.66 118.38,206.46 127.38,189.12 L127.38,188.88 Z M161.28,281.4 C154.74,293.04 137.28,291.48 127.56,286.26 C120.245313,281.737821 113.23068,276.74741 106.56,271.32 C107.237551,269.675279 107.818539,267.992418 108.3,266.28 C111.6,254.64 113.04,242.64 115.32,230.76 L118.74,228.54 C122.892034,226.064869 126.704083,223.059602 130.08,219.6 C130.08,219.6 130.08,219.6 130.08,219.6 C134.267591,215.910289 138.159511,211.898 141.72,207.6 C146.268978,203.039826 148.853184,196.880801 148.92,190.44 C148.641267,184.84855 144.533231,180.192776 139.02,179.22 C133.041358,178.509947 127.090208,180.747221 123.06,185.22 C110.34,197.22 105.66,213.48 102.48,230.22 L101.4,230.22 C91.54828,232.163828 81.4930901,227.999796 75.9,219.66 C71.235001,212.320589 72.7512309,202.657836 79.44,197.1 C83.1,194.34 89.58,192.96 92.7,197.1 C94.3,199.233333 94.3,202.166667 92.7,204.3 C91.08,205.86 87.66,206.46 86.28,204.78 C84.9,203.1 81.6,204.06 83.58,206.46 C86.1690397,209.261915 90.2737107,210.066094 93.7286506,208.448305 C97.1835906,206.830515 99.1942769,203.162796 98.7,199.38 C97.44,188.76 84.6,187.38 77.16,192.42 C69.3450672,198.169236 66.2442624,208.375034 69.54,217.5 C73.3614055,227.22277 82.3043225,233.987878 92.7,235.02 C95.6270891,235.409657 98.5929109,235.409657 101.52,235.02 L100.92,238.5 C99.54,246.48 98.28,254.46 96.36,261.9 C96.36,262.86 95.82,263.88 95.52,264.96 C94.26,264.42 93,263.94 91.68,263.52 C80.94,260.22 65.76,262.44 63.24,275.52 C62.4673361,280.422866 64.1501561,285.392723 67.7426163,288.817535 C71.3350765,292.242347 76.3796253,293.685915 81.24,292.68 C91.0520167,290.901472 99.526722,284.766138 104.28,276 C112.254927,282.171894 120.887286,287.443871 130.02,291.72 C141.72,296.04 156.96,294.18 163.56,282.36 C165.42,279.06 163.14,278.04 161.28,281.4 Z"/>
    <path fill="#413E08" fill-rule="nonzero" d="M48,196.32 C50.2991381,197.328277 52.7193168,198.034163 55.2,198.42 L56.16,198.42 C56.7997244,198.502154 57.446125,198.329781 57.96,197.94 C58.1300251,197.537207 58.1300251,197.082793 57.96,196.68 C57.8785305,196.187487 57.5662737,195.76371 57.12,195.54 C56.0286588,194.874942 54.9860257,194.133069 54,193.32 C53.0616866,192.456109 52.036185,191.69201 50.94,191.04 C49.98,190.5 48,192.66 47.4,193.5 C47.0330994,194.023058 46.9024985,194.676062 47.04,195.3 C47.1210278,195.713062 47.3861486,196.066556 47.76,196.26 M85.8,169.38 C85.2081867,169.115608 84.5318133,169.115608 83.94,169.38 C83.5532444,169.557832 83.2824273,169.918922 83.22,170.34 C82.8849422,172.808683 82.8849422,175.311317 83.22,177.78 C83.22,178.44 83.7,179.64 84.36,179.88 C84.5548631,179.944105 84.7651369,179.944105 84.96,179.88 L85.62,179.88 C86.0574526,179.617166 86.3627738,179.180993 86.46,178.68 C86.8105851,177.468561 87.2518308,176.285221 87.78,175.14 C88.3634628,173.991043 88.8259467,172.784564 89.16,171.54 C89.16,170.46 86.76,169.14 85.86,168.78"/>
    <path fill="#62604F" fill-rule="nonzero" d="M64.44,174.9 C64.0728871,174.337043 63.4306331,174.015916 62.76,174.06 C61.6449643,174.161505 60.6436781,174.784527 60.06,175.74 C60.06,175.74 60.06,175.74 60.06,175.74 C59.8229609,176.232987 59.8229609,176.807013 60.06,177.3 C60.8597745,178.370481 61.8095194,179.320226 62.88,180.12 C63.9593651,180.889575 64.8938127,181.844336 65.64,182.94 C66.0159084,183.546543 66.6671218,183.928288 67.38,183.96 C67.9510355,183.984144 68.4861683,183.681678 68.76,183.18 C69.1085455,182.630618 69.1085455,181.929382 68.76,181.38 L64.56,174.66 M57.3,210 C55.56,210 53.52,210.36 51.3,210.54 C49.08,210.72 47.28,210.54 45.3,211.08 C44.7009709,211.153725 44.2044739,211.579294 44.04,212.16 C43.8539347,212.847636 43.8539347,213.572364 44.04,214.26 C44.2116988,214.910258 44.5414808,215.507988 45,216 C45.3206205,216.491476 45.8543686,216.802829 46.44,216.84 C48.2888798,216.50718 50.0984686,215.98441 51.84,215.28 C53.5737824,214.566564 55.3866493,214.06299 57.24,213.78 C57.998708,213.679037 58.6423982,213.17328 58.92,212.46 C59.3079623,211.813755 59.3079623,211.006245 58.92,210.36 C58.5600479,209.874804 57.9523122,209.64106 57.36,209.76"/>
    <rect width="300" height="300"/>
  </g>
</svg>
